{
.appVersion = "965";
classes = (
{
automatic = 1;

glyphs = (
{
glyphname = A;
layers = (
{
anchors = (
{
name = bottom;
position = "{290, 0}";
},
{
name = btm;
position = "{318, -82}";
},
{
name = ogonek;
position = "{551, 10}";
},
{
name = top;
position = "{406, 830}";
}
);
layerId = UUID0;
paths = (
{
closed = 1;
nodes = (
"13 45 LINE",
"-55 34 LINE",
"-59 0 LINE",
"171 0 LINE",
"174 34 LINE",
"84 46 LINE",
"169 225 LINE",
"458 225 LINE",
"488 45 LINE",
"398 34 LINE",
"396 0 LINE",
"642 0 LINE",
"644 34 LINE",
"562 47 LINE",
"434 743 LINE",
"359 743 LINE"
);
},
{
closed = 1;
nodes = (
"392 622 LINE",
"450 272 LINE",
"192 272 LINE",
"385 679 LINE"
);
}
);
width = 655;
},
{
anchors = (
{
name = bottom;
position = "{291, 0}";
},
{
name = btm;
position = "{310, -82}";
},
{
name = ogonek;
position = "{555, 10}";
},
{
name = top;
position = "{396, 830}";
}
);
layerId = "809C3DC2-6073-4494-AA7C-C910FAB1DD5E";
paths = (
{
closed = 1;
nodes = (
"-7 66 LINE",
"-75 52 LINE",
"-79 0 LINE",
"194 0 LINE",
"198 52 LINE",
"106 66 LINE",
"164 203 LINE",
"401 203 LINE",
"421 66 LINE",
"344 52 LINE",
"342 0 LINE",
"678 0 LINE",
"681 52 LINE",
"603 67 LINE",
"482 743 LINE",
"313 743 LINE"
);
},
{
closed = 1;
nodes = (
"353 545 LINE",
"391 277 LINE",
"195 277 LINE",
"349 639 LINE"
);
}
);
width = 660;
}
);
unicode = 0041;
},
{
glyphname = Aogonek;
layers = (
{
layerId = UUID0;
paths = (
{
closed = 1;
nodes = (
"642 0 LINE",
"644 34 LINE",
"562 47 LINE",
"434 743 LINE",
"359 743 LINE",
"13 45 LINE",
"-55 34 LINE",
"-59 0 LINE",
"171 0 LINE",
"174 34 LINE",
"84 46 LINE",
"169 225 LINE",
"458 225 LINE",
"488 45 LINE",
"398 34 LINE",
"396 0 LINE",
"503 0 LINE",
"468 -20 OFFCURVE",
"425 -42 OFFCURVE",
"395 -85 CURVE SMOOTH",
"385 -99 OFFCURVE",
"378 -121 OFFCURVE",
"377 -140 CURVE SMOOTH",
"376 -169 OFFCURVE",
"396 -203 OFFCURVE",
"449 -203 CURVE SMOOTH",
"505 -203 OFFCURVE",
"545 -180 OFFCURVE",
"571 -157 CURVE",
"561 -120 LINE",
"537 -140 OFFCURVE",
"510 -153 OFFCURVE",
"483 -153 CURVE SMOOTH",
"464 -153 OFFCURVE",
"448 -140 OFFCURVE",
"450 -110 CURVE",
"451 -72 OFFCURVE",
"500 -35 OFFCURVE",
"547 0 CURVE"
);
},
{
closed = 1;
nodes = (
"392 622 LINE",
"450 272 LINE",
"192 272 LINE",
"385 679 LINE"
);
}
);
width = 655;
},
{
layerId = "809C3DC2-6073-4494-AA7C-C910FAB1DD5E";
paths = (
{
closed = 1;
nodes = (
"678 0 LINE",
"681 52 LINE",
"603 67 LINE",
"482 743 LINE",
"313 743 LINE",
"-7 66 LINE",
"-75 52 LINE",
"-79 0 LINE",
"194 0 LINE",
"198 52 LINE",
"106 66 LINE",
"164 203 LINE",
"401 203 LINE",
"421 66 LINE",
"344 52 LINE",
"342 0 LINE",
"458 0 LINE",
"425 -17 OFFCURVE",
"389 -40 OFFCURVE",
"355 -89 CURVE SMOOTH",
"343 -107 OFFCURVE",
"333 -133 OFFCURVE",
"333 -149 CURVE SMOOTH",
"333 -201 OFFCURVE",
"365 -234 OFFCURVE",
"428 -234 CURVE SMOOTH",
"499 -234 OFFCURVE",
"556 -200 OFFCURVE",
"596 -159 CURVE",
"578 -104 LINE",
"551 -125 OFFCURVE",
"530 -140 OFFCURVE",
"503 -140 CURVE SMOOTH",
"484 -140 OFFCURVE",
"471 -133 OFFCURVE",
"471 -105 CURVE SMOOTH",
"471 -74 OFFCURVE",
"512 -36 OFFCURVE",
"565 0 CURVE"
);
},
{
closed = 1;
nodes = (
"353 545 LINE",
"391 277 LINE",
"195 277 LINE",
"349 639 LINE"
);
}
);
width = 660;
}
);
unicode = 0104;
},
{
glyphname = Aring;
layers = (
{
anchors = (
{
name = mark0;
position = "{289, -83}";
},
{
name = top;
position = "{432, 1045}";
}
);
background = {
components = (
{
name = A;
},
{
name = ringcomb.case;
}
);
};
layerId = UUID0;
paths = (
{
closed = 1;
nodes = (
"13 45 LINE",
"-55 34 LINE",
"-59 0 LINE",
"171 0 LINE",
"174 34 LINE",
"84 46 LINE",
"169 225 LINE",
"458 225 LINE",
"488 45 LINE",
"398 34 LINE",
"396 0 LINE",
"642 0 LINE",
"644 34 LINE",
"562 47 LINE",
"435 738 LINE",
"499 750 OFFCURVE",
"561 794 OFFCURVE",
"561 871 CURVE SMOOTH",
"561 931 OFFCURVE",
"511 975 OFFCURVE",
"432 975 CURVE SMOOTH",
"358 975 OFFCURVE",
"267 928 OFFCURVE",
"267 845 CURVE SMOOTH",
"267 792 OFFCURVE",
"298 752 OFFCURVE",
"356 739 CURVE"
);
},
{
closed = 1;
nodes = (
"392 622 LINE",
"450 272 LINE",
"192 272 LINE",
"385 679 LINE"
);
},
{
closed = 1;
nodes = (
"477 943 OFFCURVE",
"511 910 OFFCURVE",
"511 867 CURVE SMOOTH",
"511 797 OFFCURVE",
"457 766 OFFCURVE",
"404 766 CURVE SMOOTH",
"349 766 OFFCURVE",
"316 803 OFFCURVE",
"316 850 CURVE SMOOTH",
"316 909 OFFCURVE",
"374 943 OFFCURVE",
"426 943 CURVE SMOOTH"
);
}
);
width = 655;
},
{
anchors = (
{
name = mark0;
position = "{280, -83}";
},
{
name = top;
position = "{432, 1075}";
}
);
background = {
components = (
{
name = A;
},
{
name = ringcomb.case;
}
);
};
layerId = "809C3DC2-6073-4494-AA7C-C910FAB1DD5E";
paths = (
{
closed = 1;
nodes = (
"-7 66 LINE",
"-75 52 LINE",
"-79 0 LINE",
"194 0 LINE",
"198 52 LINE",
"106 66 LINE",
"164 203 LINE",
"401 203 LINE",
"421 66 LINE",
"344 52 LINE",
"342 0 LINE",
"678 0 LINE",
"681 52 LINE",
"603 67 LINE",
"481 743 LINE",
"536 764 OFFCURVE",
"579 805 OFFCURVE",
"579 875 CURVE SMOOTH",
"579 947 OFFCURVE",
"511 983 OFFCURVE",
"426 983 CURVE SMOOTH",
"350 983 OFFCURVE",
"232 955 OFFCURVE",
"232 840 CURVE SMOOTH",
"232 789 OFFCURVE",
"263 756 OFFCURVE",
"311 740 CURVE"
);
},
{
closed = 1;
nodes = (
"353 545 LINE",
"391 277 LINE",
"195 277 LINE",
"349 639 LINE"
);
},
{
closed = 1;
nodes = (
"447 917 OFFCURVE",
"484 896 OFFCURVE",
"484 861 CURVE SMOOTH",
"484 805 OFFCURVE",
"437 796 OFFCURVE",
"399 796 CURVE SMOOTH",
"366 796 OFFCURVE",
"327 817 OFFCURVE",
"327 852 CURVE SMOOTH",
"327 904 OFFCURVE",
"376 917 OFFCURVE",
"414 917 CURVE SMOOTH"
);
}
);
width = 660;
}
);
unicode = 00C5;
},
{
glyphname = AE;
layers = (
{
anchors = (
{
name = top;
position = "{588, 830}";
}
);
layerId = UUID0;
paths = (
{
closed = 1;
nodes = (
"204 704 LINE",
"356 695 LINE",
"8 45 LINE",
"-73 34 LINE",
"-79 0 LINE",
"192 0 LINE",
"195 34 LINE",
"84 46 LINE",
"185 244 LINE",
"432 244 LINE",
"408 45 LINE",
"344 34 LINE",
"340 0 LINE",
"823 0 LINE",
"858 146 LINE",
"819 158 LINE",
"772 55 LINE",
"483 46 LINE",
"521 358 LINE",
"738 352 LINE",
"743 417 LINE",
"525 407 LINE",
"563 700 LINE",
"798 695 LINE",
"814 600 LINE",
"854 600 LINE",
"858 743 LINE",
"209 743 LINE"
);
},
{
closed = 1;
nodes = (
"485 691 LINE",
"437 292 LINE",
"209 292 LINE",
"414 694 LINE"
);
}
);
width = 888;
},
{
anchors = (
{
name = top;
position = "{621, 830}";
}
);
layerId = "809C3DC2-6073-4494-AA7C-C910FAB1DD5E";
paths = (
{
closed = 1;
nodes = (
"192 685 LINE",
"335 672 LINE",
"-20 66 LINE",
"-97 52 LINE",
"-101 0 LINE",
"206 0 LINE",
"209 52 LINE",
"117 66 LINE",
"188 203 LINE",
"420 203 LINE",
"402 66 LINE",
"324 52 LINE",
"317 0 LINE",
"925 0 LINE",
"959 222 LINE",
"855 229 LINE",
"798 83 LINE",
"572 66 LINE",
"610 348 LINE",
"824 332 LINE",
"841 444 LINE",
"619 424 LINE",
"655 685 LINE",
"820 672 LINE",
"837 563 LINE",
"945 563 LINE",
"963 743 LINE",
"200 743 LINE"
);
},
{
closed = 1;
nodes = (
"483 685 LINE",
"430 277 LINE",
"227 277 LINE",
"441 685 LINE"
);
}
);
width = 982;
}
);
unicode = 00C6;
},
{
glyphname = B;
layers = (
{
anchors = (
{
name = btm;
position = "{338, -82}";
},
{
name = top;
position = "{338, 830}";
}
);
layerId = UUID0;
paths = (
{
closed = 1;
nodes = (
"109 743 LINE",
"105 704 LINE",
"171 694 LINE",
"90 46 LINE",
"17 34 LINE",
"13 0 LINE",
"119 0 LINE SMOOTH",
"153 0 OFFCURVE",
"211 -7 OFFCURVE",
"249 -7 CURVE SMOOTH",
"423 -7 OFFCURVE",
"578 62 OFFCURVE",
"575 239 CURVE SMOOTH",
"574 325 OFFCURVE",
"506 383 OFFCURVE",
"425 394 CURVE",
"521 421 OFFCURVE",
"581 488 OFFCURVE",
"579 595 CURVE SMOOTH",
"578 678 OFFCURVE",
"514 750 OFFCURVE",
"363 750 CURVE SMOOTH",
"314 750 OFFCURVE",
"270 744 OFFCURVE",
"226 743 CURVE"
);
},
{
closed = 1;
nodes = (
"202 358 LINE",
"228 359 OFFCURVE",
"270 360 OFFCURVE",
"338 360 CURVE SMOOTH",
"439 360 OFFCURVE",
"496 317 OFFCURVE",
"497 230 CURVE SMOOTH",
"499 90 OFFCURVE",
"396 41 OFFCURVE",
"266 41 CURVE SMOOTH",
"245 41 OFFCURVE",
"183 44 OFFCURVE",
"164 50 CURVE"
);
},
{
closed = 1;
nodes = (
"244 699 LINE",
"271 702 OFFCURVE",
"326 705 OFFCURVE",
"346 705 CURVE SMOOTH",
"459 705 OFFCURVE",
"505 664 OFFCURVE",
"506 585 CURVE SMOOTH",
"508 466 OFFCURVE",
"427 410 OFFCURVE",
"324 410 CURVE SMOOTH",
"288 410 OFFCURVE",
"243 409 OFFCURVE",
"208 410 CURVE"
);
}
);
width = 624;
},
{
anchors = (
{
name = btm;
position = "{380, -82}";
},
{
name = top;
position = "{380, 830}";
}
);
layerId = "809C3DC2-6073-4494-AA7C-C910FAB1DD5E";
paths = (
{
closed = 1;
nodes = (
"83 743 LINE",
"77 689 LINE",
"148 677 LINE",
"66 66 LINE",
"-2 52 LINE",
"-6 0 LINE",
"139 0 LINE SMOOTH",
"183 0 OFFCURVE",
"248 -10 OFFCURVE",
"295 -10 CURVE SMOOTH",
"529 -10 OFFCURVE",
"652 61 OFFCURVE",
"652 244 CURVE SMOOTH",
"652 323 OFFCURVE",
"585 395 OFFCURVE",
"473 392 CURVE",
"598 422 OFFCURVE",
"660 484 OFFCURVE",
"656 591 CURVE SMOOTH",
"653 671 OFFCURVE",
"614 751 OFFCURVE",
"423 751 CURVE SMOOTH",
"359 751 OFFCURVE",
"305 744 OFFCURVE",
"248 743 CURVE"
);
},
{
closed = 1;
nodes = (
"268 349 LINE",
"280 350 OFFCURVE",
"292 351 OFFCURVE",
"329 351 CURVE SMOOTH",
"430 351 OFFCURVE",
"470 311 OFFCURVE",
"473 228 CURVE SMOOTH",
"478 106 OFFCURVE",
"423 51 OFFCURVE",
"316 51 CURVE SMOOTH",
"295 51 OFFCURVE",
"255 56 OFFCURVE",
"229 63 CURVE"
);
},
{
closed = 1;
nodes = (
"313 683 LINE",
"335 688 OFFCURVE",
"369 689 OFFCURVE",
"384 689 CURVE SMOOTH",
"454 689 OFFCURVE",
"492 650 OFFCURVE",
"495 578 CURVE",
"499 462 OFFCURVE",
"423 418 OFFCURVE",
"338 418 CURVE SMOOTH",
"314 418 OFFCURVE",
"298 417 OFFCURVE",
"277 418 CURVE"
);
}
);
width = 686;
}
);
unicode = 0042;
},
{
glyphname = C;
layers = (
{
anchors = (
{
name = btm;
position = "{302, -82}";
},
{
name = top;
position = "{391, 830}";
}
);
layerId = UUID0;
paths = (
{
closed = 1;
nodes = (
"522 544 LINE",
"566 544 LINE",
"596 721 LINE",
"575 728 LINE",
"545 736 OFFCURVE",
"491 751 OFFCURVE",
"403 751 CURVE SMOOTH",
"209 751 OFFCURVE",
"39 574 OFFCURVE",
"44 306 CURVE SMOOTH",
"46 155 OFFCURVE",
"117 -8 OFFCURVE",
"298 -8 CURVE SMOOTH",
"398 -8 OFFCURVE",
"479 22 OFFCURVE",
"517 34 CURVE",
"537 196 LINE",
"491 196 LINE",
"481 160 OFFCURVE",
"470 123 OFFCURVE",
"460 87 CURVE",
"434 55 OFFCURVE",
"363 39 OFFCURVE",
"312 39 CURVE SMOOTH",
"175 39 OFFCURVE",
"124 182 OFFCURVE",
"122 314 CURVE SMOOTH",
"118 484 OFFCURVE",
"205 704 OFFCURVE",
"395 704 CURVE SMOOTH",
"466 704 OFFCURVE",
"497 691 OFFCURVE",
"519 678 CURVE"
);
}
);
width = 602;
},
{
anchors = (
{
name = btm;
position = "{352, -82}";
},
{
name = top;
position = "{450, 830}";
}
);
layerId = "809C3DC2-6073-4494-AA7C-C910FAB1DD5E";
paths = (
{
closed = 1;
nodes = (
"501 529 LINE",
"625 529 LINE",
"655 725 LINE",
"639 729 LINE",
"603 737 OFFCURVE",
"572 752 OFFCURVE",
"463 752 CURVE SMOOTH",
"201 752 OFFCURVE",
"29 590 OFFCURVE",
"29 311 CURVE SMOOTH",
"29 140 OFFCURVE",
"110 -8 OFFCURVE",
"331 -8 CURVE SMOOTH",
"476 -8 OFFCURVE",
"542 36 OFFCURVE",
"579 66 CURVE",
"600 205 LINE",
"502 205 LINE",
"492 167 OFFCURVE",
"480 127 OFFCURVE",
"463 107 CURVE",
"426 71 OFFCURVE",
"378 71 OFFCURVE",
"357 71 CURVE SMOOTH",
"264 71 OFFCURVE",
"225 156 OFFCURVE",
"220 321 CURVE SMOOTH",
"216 484 OFFCURVE",
"280 689 OFFCURVE",
"436 689 CURVE SMOOTH",
"453 689 OFFCURVE",
"468 686 OFFCURVE",
"482 681 CURVE"
);
}
);
width = 635;
}
);
unicode = 0043;
},
{
glyphname = D;
layers = (
{
anchors = (
{
name = btm;
position = "{400, -82}";
},
{
name = top;
position = "{388, 830}";
}
);
layerId = UUID0;
paths = (
{
closed = 1;
nodes = (
"109 743 LINE",
"105 704 LINE",
"171 694 LINE",
"89 46 LINE",
"16 34 LINE",
"13 0 LINE",
"122 0 LINE SMOOTH",
"149 0 OFFCURVE",
"203 -2 OFFCURVE",
"225 -4 CURVE SMOOTH",
"240 -6 OFFCURVE",
"266 -7 OFFCURVE",
"280 -8 CURVE SMOOTH",
"509 -14 OFFCURVE",
"664 192 OFFCURVE",
"660 450 CURVE",
"658 631 OFFCURVE",
"578 751 OFFCURVE",
"379 751 CURVE SMOOTH",
"330 751 OFFCURVE",
"284 744 OFFCURVE",
"238 743 CURVE"
);
},
{
closed = 1;
nodes = (
"245 696 LINE",
"276 700 OFFCURVE",
"324 705 OFFCURVE",
"358 705 CURVE SMOOTH",
"519 705 OFFCURVE",
"582 628 OFFCURVE",
"585 444 CURVE",
"587 246 OFFCURVE",
"496 49 OFFCURVE",
"300 39 CURVE",
"267 39 OFFCURVE",
"204 44 OFFCURVE",
"164 52 CURVE"
);
}
);
width = 694;
},
{
anchors = (
{
name = btm;
position = "{449, -82}";
},
{
name = top;
position = "{436, 830}";
}
);
layerId = "809C3DC2-6073-4494-AA7C-C910FAB1DD5E";
paths = (
{
closed = 1;
nodes = (
"83 743 LINE",
"78 689 LINE",
"148 677 LINE",
"66 66 LINE",
"-11 52 LINE",
"-17 0 LINE",
"163 0 LINE",
"193 0 OFFCURVE",
"235 -2 OFFCURVE",
"257 -4 CURVE",
"266 -6 OFFCURVE",
"284 -8 OFFCURVE",
"293 -8 CURVE SMOOTH",
"604 -8 OFFCURVE",
"731 181 OFFCURVE",
"731 450 CURVE SMOOTH",
"731 621 OFFCURVE",
"648 752 OFFCURVE",
"412 751 CURVE SMOOTH",
"354 751 OFFCURVE",
"293 744 OFFCURVE",
"238 743 CURVE"
);
},
{
closed = 1;
nodes = (
"318 677 LINE",
"328 682 OFFCURVE",
"357 689 OFFCURVE",
"396 689 CURVE SMOOTH",
"500 689 OFFCURVE",
"547 618 OFFCURVE",
"547 433 CURVE SMOOTH",
"547 267 OFFCURVE",
"484 54 OFFCURVE",
"304 54 CURVE SMOOTH",
"285 54 OFFCURVE",
"256 60 OFFCURVE",
"237 66 CURVE"
);
}
);
width = 736;
}
);
unicode = 0044;
},
{
glyphname = Eth;
layers = (
{
layerId = UUID0;
paths = (
{
closed = 1;
nodes = (
"106 744 LINE",
"102 705 LINE",
"168 695 LINE",
"132 408 LINE",
"53 408 LINE",
"47 357 LINE",
"125 357 LINE",
"86 47 LINE",
"13 35 LINE",
"9 1 LINE",
"119 1 LINE SMOOTH",
"146 1 OFFCURVE",
"199 -1 OFFCURVE",
"221 -3 CURVE SMOOTH",
"236 -5 OFFCURVE",
"263 -6 OFFCURVE",
"276 -7 CURVE SMOOTH",
"506 -13 OFFCURVE",
"660 193 OFFCURVE",
"657 451 CURVE",
"655 632 OFFCURVE",
"575 752 OFFCURVE",
"376 752 CURVE SMOOTH",
"326 752 OFFCURVE",
"281 745 OFFCURVE",
"235 744 CURVE"
);
},
{
closed = 1;
nodes = (
"198 357 LINE",
"408 357 LINE",
"414 408 LINE",
"205 408 LINE",
"241 697 LINE",
"272 701 OFFCURVE",
"320 706 OFFCURVE",
"354 706 CURVE SMOOTH",
"516 706 OFFCURVE",
"579 629 OFFCURVE",
"582 445 CURVE",
"583 247 OFFCURVE",
"492 50 OFFCURVE",
"297 40 CURVE",
"264 40 OFFCURVE",
"200 45 OFFCURVE",
"160 53 CURVE"
);
}
);
width = 692;
},
{
layerId = "809C3DC2-6073-4494-AA7C-C910FAB1DD5E";
paths = (
{
closed = 1;
nodes = (
"83 744 LINE",
"78 690 LINE",
"148 678 LINE",
"114 426 LINE",
"49 426 LINE",
"36 343 LINE",
"103 343 LINE",
"66 67 LINE",
"-11 53 LINE",
"-17 1 LINE",
"150 1 LINE SMOOTH",
"181 1 OFFCURVE",
"232 -1 OFFCURVE",
"257 -3 CURVE",
"266 -5 OFFCURVE",
"284 -7 OFFCURVE",
"293 -7 CURVE SMOOTH",
"604 -7 OFFCURVE",
"731 182 OFFCURVE",
"731 451 CURVE SMOOTH",
"731 622 OFFCURVE",
"648 753 OFFCURVE",
"412 752 CURVE SMOOTH",
"352 752 OFFCURVE",
"287 744 OFFCURVE",
"229 744 CURVE SMOOTH"
);
},
{
closed = 1;
nodes = (
"274 343 LINE",
"417 343 LINE",
"429 426 LINE",
"285 426 LINE",
"318 678 LINE",
"328 683 OFFCURVE",
"357 690 OFFCURVE",
"396 690 CURVE SMOOTH",
"500 690 OFFCURVE",
"547 619 OFFCURVE",
"547 434 CURVE SMOOTH",
"547 268 OFFCURVE",
"484 55 OFFCURVE",
"304 55 CURVE SMOOTH",
"285 55 OFFCURVE",
"256 61 OFFCURVE",
"237 67 CURVE"
);
}
);
width = 735;
}
);
unicode = 00D0;
},
{
glyphname = Dcroat;
layers = (
{
layerId = UUID0;
paths = (
{
closed = 1;
nodes = (
"106 744 LINE",
"102 705 LINE",
"168 695 LINE",
"132 408 LINE",
"53 408 LINE",
"48 357 LINE",
"125 357 LINE",
"86 47 LINE",
"13 35 LINE",
"9 1 LINE",
"119 1 LINE SMOOTH",
"146 1 OFFCURVE",
"199 -1 OFFCURVE",
"221 -3 CURVE SMOOTH",
"236 -5 OFFCURVE",
"263 -6 OFFCURVE",
"276 -7 CURVE SMOOTH",
"506 -13 OFFCURVE",
"660 193 OFFCURVE",
"657 451 CURVE",
"655 632 OFFCURVE",
"575 752 OFFCURVE",
"376 752 CURVE SMOOTH",
"326 752 OFFCURVE",
"281 745 OFFCURVE",
"235 744 CURVE"
);
},
{
closed = 1;
nodes = (
"198 357 LINE",
"409 357 LINE",
"414 408 LINE",
"205 408 LINE",
"241 697 LINE",
"272 701 OFFCURVE",
"320 706 OFFCURVE",
"354 706 CURVE SMOOTH",
"516 706 OFFCURVE",
"579 629 OFFCURVE",
"582 445 CURVE",
"583 247 OFFCURVE",
"492 50 OFFCURVE",
"297 40 CURVE",
"264 40 OFFCURVE",
"200 45 OFFCURVE",
"160 53 CURVE"
);
}
);
width = 692;
},
{
layerId = "809C3DC2-6073-4494-AA7C-C910FAB1DD5E";
paths = (
{
closed = 1;
nodes = (
"83 744 LINE",
"78 690 LINE",
"148 678 LINE",
"114 426 LINE",
"49 426 LINE",
"36 343 LINE",
"103 343 LINE",
"66 67 LINE",
"-11 53 LINE",
"-17 1 LINE",
"150 1 LINE SMOOTH",
"181 1 OFFCURVE",
"232 -1 OFFCURVE",
"257 -3 CURVE",
"266 -5 OFFCURVE",
"284 -7 OFFCURVE",
"293 -7 CURVE SMOOTH",
"604 -7 OFFCURVE",
"731 182 OFFCURVE",
"731 451 CURVE SMOOTH",
"731 622 OFFCURVE",
"648 753 OFFCURVE",
"412 752 CURVE SMOOTH",
"352 752 OFFCURVE",
"287 744 OFFCURVE",
"229 744 CURVE SMOOTH"
);
},
{
closed = 1;
nodes = (
"274 343 LINE",
"417 343 LINE",
"429 426 LINE",
"285 426 LINE",
"318 678 LINE",
"328 683 OFFCURVE",
"357 690 OFFCURVE",
"396 690 CURVE SMOOTH",
"500 690 OFFCURVE",
"547 619 OFFCURVE",
"547 434 CURVE SMOOTH",
"547 268 OFFCURVE",
"484 55 OFFCURVE",
"304 55 CURVE SMOOTH",
"285 55 OFFCURVE",
"256 61 OFFCURVE",
"237 67 CURVE"
);
}
);
width = 740;
}
);
unicode = 0110;
},
{
glyphname = E;
layers = (
{
anchors = (
{
name = bottom;
position = "{261, 0}";
},
{
name = btm;
position = "{325, -82}";
},
{
name = ogonek;
position = "{499, 10}";
},
{
name = top;
position = "{370, 830}";
},
{
name = topleft;
position = "{84, 743}";
}
);
layerId = UUID0;
paths = (
{
closed = 1;
nodes = (
"104 704 LINE",
"171 694 LINE",
"90 45 LINE",
"16 34 LINE",
"13 0 LINE",
"517 0 LINE",
"560 154 LINE",
"521 167 LINE",
"466 55 LINE",
"163 46 LINE",
"205 358 LINE",
"440 352 LINE",
"444 413 LINE",
"209 410 LINE",
"247 701 LINE",
"497 695 LINE",
"513 592 LINE",
"554 592 LINE",
"557 743 LINE",
"109 743 LINE"
);
}
);
width = 597;
},
{
anchors = (
{
name = bottom;
position = "{280, 0}";
},
{
name = btm;
position = "{366, -82}";
},
{
name = ogonek;
position = "{534, 10}";
},
{
name = top;
position = "{399, 830}";
},
{
name = topleft;
position = "{84, 743}";
}
);
layerId = "809C3DC2-6073-4494-AA7C-C910FAB1DD5E";
paths = (
{
closed = 1;
nodes = (
"76 689 LINE",
"147 677 LINE",
"67 66 LINE",
"-11 52 LINE",
"-18 0 LINE",
"589 0 LINE",
"624 222 LINE",
"520 229 LINE",
"462 83 LINE",
"236 66 LINE",
"274 348 LINE",
"490 333 LINE",
"508 446 LINE",
"284 424 LINE",
"319 685 LINE",
"485 672 LINE",
"501 563 LINE",
"610 563 LINE",
"627 743 LINE",
"82 743 LINE"
);
}
);
width = 637;
}
);
unicode = 0045;
},
{
glyphname = Eogonek;
layers = (
{
layerId = UUID0;
paths = (
{
closed = 1;
nodes = (
"517 0 LINE",
"560 154 LINE",
"521 167 LINE",
"466 55 LINE",
"163 46 LINE",
"205 358 LINE",
"440 352 LINE",
"444 413 LINE",
"209 410 LINE",
"247 701 LINE",
"497 695 LINE",
"513 592 LINE",
"554 592 LINE",
"557 743 LINE",
"109 743 LINE",
"104 704 LINE",
"171 694 LINE",
"90 45 LINE",
"16 34 LINE",
"13 0 LINE",
"432 0 LINE",
"397 -20 OFFCURVE",
"355 -42 OFFCURVE",
"324 -85 CURVE SMOOTH",
"314 -99 OFFCURVE",
"308 -121 OFFCURVE",
"307 -140 CURVE SMOOTH",
"306 -169 OFFCURVE",
"326 -203 OFFCURVE",
"378 -203 CURVE SMOOTH",
"435 -203 OFFCURVE",
"475 -180 OFFCURVE",
"500 -157 CURVE",
"490 -120 LINE",
"466 -140 OFFCURVE",
"439 -153 OFFCURVE",
"413 -153 CURVE SMOOTH",
"394 -153 OFFCURVE",
"378 -140 OFFCURVE",
"379 -110 CURVE",
"380 -72 OFFCURVE",
"430 -35 OFFCURVE",
"477 0 CURVE"
);
}
);
width = 594;
},
{
layerId = "809C3DC2-6073-4494-AA7C-C910FAB1DD5E";
paths = (
{
closed = 1;
nodes = (
"589 0 LINE",
"624 222 LINE",
"520 229 LINE",
"462 83 LINE",
"236 66 LINE",
"274 348 LINE",
"490 333 LINE",
"508 446 LINE",
"284 424 LINE",
"319 685 LINE",
"485 672 LINE",
"501 563 LINE",
"610 563 LINE",
"627 743 LINE",
"82 743 LINE",
"76 689 LINE",
"147 677 LINE",
"67 66 LINE",
"-11 52 LINE",
"-18 0 LINE",
"439 0 LINE",
"406 -17 OFFCURVE",
"370 -40 OFFCURVE",
"336 -89 CURVE SMOOTH",
"324 -107 OFFCURVE",
"314 -133 OFFCURVE",
"314 -149 CURVE SMOOTH",
"314 -201 OFFCURVE",
"346 -234 OFFCURVE",
"409 -234 CURVE SMOOTH",
"479 -234 OFFCURVE",
"537 -200 OFFCURVE",
"577 -159 CURVE",
"559 -104 LINE",
"532 -125 OFFCURVE",
"511 -140 OFFCURVE",
"484 -140 CURVE SMOOTH",
"465 -140 OFFCURVE",
"452 -133 OFFCURVE",
"452 -105 CURVE SMOOTH",
"452 -74 OFFCURVE",
"493 -36 OFFCURVE",
"546 0 CURVE"
);
}
);
width = 647;
}
);
unicode = 0118;
},
{
glyphname = F;
layers = (
{
anchors = (
{
name = btm;
position = "{285, -82}";
},
{
name = top;
position = "{360, 830}";
}
);
layerId = UUID0;
paths = (
{
closed = 1;
nodes = (
"104 704 LINE",
"171 694 LINE",
"90 46 LINE",
"16 34 LINE",
"13 0 LINE",
"276 0 LINE",
"280 34 LINE",
"163 47 LINE",
"205 357 LINE",
"452 351 LINE",
"457 413 LINE",
"209 409 LINE",
"245 700 LINE",
"511 693 LINE",
"521 592 LINE",
"567 592 LINE",
"576 743 LINE",
"109 743 LINE"
);
}
);
width = 562;
},
{
anchors = (
{
name = btm;
position = "{322, -82}";
},
{
name = top;
position = "{404, 830}";
}
);
layerId = "809C3DC2-6073-4494-AA7C-C910FAB1DD5E";
paths = (
{
closed = 1;
nodes = (
"76 689 LINE",
"147 677 LINE",
"67 66 LINE",
"0 52 LINE",
"-6 0 LINE",
"370 0 LINE",
"374 52 LINE",
"239 66 LINE",
"274 342 LINE",
"503 323 LINE",
"519 433 LINE",
"284 419 LINE",
"320 684 LINE",
"494 672 LINE",
"508 556 LINE",
"616 556 LINE",
"636 743 LINE",
"83 743 LINE"
);
}
);
width = 598;
}
);
unicode = 0046;
},
{
glyphname = G;
layers = (
{
anchors = (
{
name = btm;
position = "{317, -83}";
},
{
name = top;
position = "{407, 830}";
}
);
layerId = UUID0;
paths = (
{
closed = 1;
nodes = (
"600 353 LINE",
"385 353 LINE",
"380 308 LINE",
"517 301 LINE",
"487 87 LINE",
"450 54 OFFCURVE",
"375 38 OFFCURVE",
"318 38 CURVE SMOOTH",
"182 38 OFFCURVE",
"128 181 OFFCURVE",
"126 315 CURVE",
"125 488 OFFCURVE",
"214 705 OFFCURVE",
"400 705 CURVE SMOOTH",
"484 705 OFFCURVE",
"520 690 OFFCURVE",
"546 672 CURVE",
"548 574 LINE",
"595 574 LINE",
"623 718 LINE",
"604 724 LINE SMOOTH",
"569 734 OFFCURVE",
"508 751 OFFCURVE",
"409 751 CURVE SMOOTH",
"217 751 OFFCURVE",
"46 577 OFFCURVE",
"49 306 CURVE SMOOTH",
"51 155 OFFCURVE",
"122 -8 OFFCURVE",
"297 -8 CURVE SMOOTH",
"374 -8 OFFCURVE",
"446 15 OFFCURVE",
"494 30 CURVE SMOOTH",
"521 38 OFFCURVE",
"537 44 OFFCURVE",
"556 46 CURVE"
);
}
);
width = 655;
},
{
anchors = (
{
name = btm;
position = "{339, -83}";
},
{
name = top;
position = "{438, 830}";
}
);
layerId = "809C3DC2-6073-4494-AA7C-C910FAB1DD5E";
paths = (
{
closed = 1;
nodes = (
"660 368 LINE",
"388 368 LINE",
"379 296 LINE",
"478 288 LINE",
"452 80 LINE",
"423 69 OFFCURVE",
"389 66 OFFCURVE",
"344 66 CURVE SMOOTH",
"252 66 OFFCURVE",
"211 179 OFFCURVE",
"211 321 CURVE SMOOTH",
"211 520 OFFCURVE",
"260 689 OFFCURVE",
"441 689 CURVE SMOOTH",
"475 689 OFFCURVE",
"503 681 OFFCURVE",
"527 668 CURVE",
"532 556 LINE",
"649 556 LINE",
"681 718 LINE",
"651 724 LINE",
"608 734 OFFCURVE",
"561 752 OFFCURVE",
"439 752 CURVE SMOOTH",
"165 752 OFFCURVE",
"24 574 OFFCURVE",
"29 306 CURVE SMOOTH",
"32 140 OFFCURVE",
"112 -8 OFFCURVE",
"311 -8 CURVE SMOOTH",
"402 -8 OFFCURVE",
"466 10 OFFCURVE",
"523 25 CURVE",
"552 33 OFFCURVE",
"595 39 OFFCURVE",
"616 41 CURVE"
);
}
);
width = 691;
}
);
unicode = 0047;
},
{
glyphname = H;
layers = (
{
anchors = (
{
name = btm;
position = "{403, -82}";
},
{
name = top;
position = "{432, 830}";
}
);
layerId = UUID0;
paths = (
{
closed = 1;
nodes = (
"105 704 LINE",
"171 694 LINE",
"90 46 LINE",
"17 34 LINE",
"13 0 LINE",
"236 0 LINE",
"239 34 LINE",
"163 46 LINE",
"202 354 LINE",
"556 354 LINE",
"518 46 LINE",
"439 34 LINE",
"437 0 LINE",
"663 0 LINE",
"666 34 LINE",
"590 46 LINE",
"671 694 LINE",
"740 704 LINE",
"745 743 LINE",
"530 743 LINE",
"526 704 LINE",
"598 694 LINE",
"562 405 LINE",
"208 405 LINE",
"245 694 LINE",
"318 704 LINE",
"322 743 LINE",
"109 743 LINE"
);
}
);
width = 740;
},
{
anchors = (
{
name = btm;
position = "{446, -82}";
},
{
name = top;
position = "{478, 830}";
}
);
layerId = "809C3DC2-6073-4494-AA7C-C910FAB1DD5E";
paths = (
{
closed = 1;
nodes = (
"79 689 LINE",
"150 677 LINE",
"69 66 LINE",
"1 52 LINE",
"-4 0 LINE",
"322 0 LINE",
"326 52 LINE",
"241 66 LINE",
"277 344 LINE",
"547 344 LINE",
"510 66 LINE",
"417 52 LINE",
"410 0 LINE",
"753 0 LINE",
"759 52 LINE",
"683 66 LINE",
"763 677 LINE",
"838 689 LINE",
"844 743 LINE",
"511 743 LINE",
"505 689 LINE",
"591 677 LINE",
"556 412 LINE",
"287 412 LINE",
"322 677 LINE",
"410 689 LINE",
"416 743 LINE",
"86 743 LINE"
);
}
);
width = 809;
}
);
unicode = 0048;
},
{
glyphname = Hbar;
layers = (
{
anchors = (
{
name = btm;
position = "{399, -82}";
},
{
name = top;
position = "{428, 830}";
}
);
layerId = UUID0;
paths = (
{
closed = 1;
nodes = (
"101 704 LINE",
"167 694 LINE",
"149 552 LINE",
"47 552 LINE",
"42 501 LINE",
"143 501 LINE",
"86 46 LINE",
"13 34 LINE",
"10 0 LINE",
"232 0 LINE",
"235 34 LINE",
"160 46 LINE",
"194 320 LINE",
"548 320 LINE",
"514 46 LINE",
"436 34 LINE",
"433 0 LINE",
"659 0 LINE",
"662 34 LINE",
"587 46 LINE",
"644 501 LINE",
"749 501 LINE",
"754 552 LINE",
"650 552 LINE",
"668 694 LINE",
"736 704 LINE",
"741 743 LINE",
"526 743 LINE",
"522 704 LINE",
"595 694 LINE",
"577 552 LINE",
"223 552 LINE",
"241 694 LINE",
"314 704 LINE",
"318 743 LINE",
"106 743 LINE"
);
},
{
closed = 1;
nodes = (
"570 501 LINE",
"554 370 LINE",
"200 370 LINE",
"217 501 LINE"
);
}
);
width = 740;
},
{
anchors = (
{
name = btm;
position = "{411, -82}";
},
{
name = top;
position = "{440, 830}";
}
);
layerId = "809C3DC2-6073-4494-AA7C-C910FAB1DD5E";
paths = (
{
closed = 1;
nodes = (
"77 693 LINE",
"148 681 LINE",
"131 548 LINE",
"44 548 LINE",
"38 479 LINE",
"122 479 LINE",
"70 66 LINE",
"2 52 LINE",
"-3 0 LINE",
"323 0 LINE",
"327 52 LINE",
"242 66 LINE",
"272 304 LINE",
"542 304 LINE",
"511 66 LINE",
"418 52 LINE",
"411 0 LINE",
"754 0 LINE",
"760 52 LINE",
"684 66 LINE",
"736 479 LINE",
"824 479 LINE",
"831 548 LINE",
"744 548 LINE",
"761 681 LINE",
"836 693 LINE",
"842 747 LINE",
"509 747 LINE",
"503 693 LINE",
"589 681 LINE",
"572 548 LINE",
"303 548 LINE",
"320 681 LINE",
"408 693 LINE",
"414 747 LINE",
"84 747 LINE"
);
},
{
closed = 1;
nodes = (
"564 479 LINE",
"550 373 LINE",
"281 373 LINE",
"294 479 LINE"
);
}
);
width = 809;
}
);
unicode = 0126;
},
{
glyphname = I;
layers = (
{
anchors = (
{
name = bottom;
position = "{131, 0}";
},
{
name = btm;
position = "{193, -82}";
},
{
name = ogonek;
position = "{265, 10}";
},
{
name = top;
position = "{244, 830}";
},
{
name = topleft;
position = "{84, 743}";
}
);
layerId = UUID0;
paths = (
{
closed = 1;
nodes = (
"114 704 LINE",
"181 694 LINE",
"99 46 LINE",
"26 34 LINE",
"23 0 LINE",
"246 0 LINE",
"249 34 LINE",
"173 46 LINE",
"254 694 LINE",
"328 704 LINE",
"332 743 LINE",
"119 743 LINE"
);
}
);
width = 337;
},
{
anchors = (
{
name = bottom;
position = "{149, 0}";
},
{
name = btm;
position = "{240, -82}";
},
{
name = ogonek;
position = "{298, 10}";
},
{
name = top;
position = "{258, 830}";
},
{
name = topleft;
position = "{84, 743}";
}
);
layerId = "809C3DC2-6073-4494-AA7C-C910FAB1DD5E";
paths = (
{
closed = 1;
nodes = (
"80 689 LINE",
"151 677 LINE",
"71 66 LINE",
"-2 52 LINE",
"-9 0 LINE",
"325 0 LINE",
"328 52 LINE",
"243 66 LINE",
"323 677 LINE",
"407 689 LINE",
"413 743 LINE",
"85 743 LINE"
);
}
);
width = 375;
}
);
unicode = 0049;
},
{
color = (255,0,65,1);
glyphname = IJ_acutecomb;
layers = (
{
components = (
{
name = acutecomb.case;
transform = "{1, 0, 0, 1, 516, 0}";
}
);
layerId = UUID0;
paths = (
{
closed = 1;
nodes = (
"681 704 LINE",
"685 743 LINE",
"448 743 LINE",
"443 704 LINE",
"525 695 LINE",
"500 482 OFFCURVE",
"478 201 OFFCURVE",
"444 44 CURVE SMOOTH",
"426 -36 OFFCURVE",
"350 -111 OFFCURVE",
"261 -134 CURVE",
"275 -168 LINE",
"373 -151 OFFCURVE",
"476 -96 OFFCURVE",
"515 37 CURVE SMOOTH",
"529 83 OFFCURVE",
"560 367 OFFCURVE",
"596 695 CURVE"
);
},
{
closed = 1;
nodes = (
"114 704 LINE",
"181 694 LINE",
"99 46 LINE",
"26 34 LINE",
"23 0 LINE",
"246 0 LINE",
"249 34 LINE",
"173 46 LINE",
"254 694 LINE",
"328 704 LINE",
"332 743 LINE",
"119 743 LINE"
);
},
{
closed = 1;
nodes = (
"341 977 LINE",
"203 806 LINE",
"228 788 LINE",
"275 815 OFFCURVE",
"361 879 OFFCURVE",
"388 931 CURVE"
);
}
);
width = 682;
},
{
components = (
{
name = acutecomb.case;
transform = "{1, 0, 0, 1, 558, 1}";
}
);
layerId = "809C3DC2-6073-4494-AA7C-C910FAB1DD5E";
paths = (
{
closed = 1;
nodes = (
"769 689 LINE",
"774 743 LINE",
"463 743 LINE",
"456 689 LINE",
"528 676 LINE",
"504 464 OFFCURVE",
"475 232 OFFCURVE",
"439 42 CURVE SMOOTH",
"427 -22 OFFCURVE",
"389 -83 OFFCURVE",
"283 -116 CURVE",
"308 -168 LINE",
"444 -149 OFFCURVE",
"569 -78 OFFCURVE",
"609 37 CURVE SMOOTH",
"625 83 OFFCURVE",
"665 403 OFFCURVE",
"698 677 CURVE"
);
},
{
closed = 1;
nodes = (
"80 689 LINE",
"151 677 LINE",
"71 66 LINE",
"-2 52 LINE",
"-9 0 LINE",
"325 0 LINE",
"328 52 LINE",
"243 66 LINE",
"323 677 LINE",
"407 689 LINE",
"413 743 LINE",
"85 743 LINE"
);
},
{
closed = 1;
nodes = (
"350 983 LINE",
"215 816 LINE",
"271 767 LINE",
"318 784 OFFCURVE",
"416 844 OFFCURVE",
"441 893 CURVE"
);
}
);
width = 735;
}
);
},
{
glyphname = Iogonek;
layers = (
{
layerId = UUID0;
paths = (
{
closed = 1;
nodes = (
"246 0 LINE",
"249 34 LINE",
"173 46 LINE",
"254 694 LINE",
"328 704 LINE",
"332 743 LINE",
"119 743 LINE",
"114 704 LINE",
"181 694 LINE",
"99 46 LINE",
"26 34 LINE",
"23 0 LINE",
"110 0 LINE",
"75 -20 OFFCURVE",
"32 -42 OFFCURVE",
"2 -85 CURVE SMOOTH",
"-8 -99 OFFCURVE",
"-15 -121 OFFCURVE",
"-16 -140 CURVE SMOOTH",
"-17 -169 OFFCURVE",
"3 -203 OFFCURVE",
"56 -203 CURVE SMOOTH",
"112 -203 OFFCURVE",
"152 -180 OFFCURVE",
"178 -157 CURVE",
"167 -120 LINE",
"144 -140 OFFCURVE",
"117 -153 OFFCURVE",
"90 -153 CURVE SMOOTH",
"71 -153 OFFCURVE",
"56 -140 OFFCURVE",
"57 -110 CURVE",
"58 -72 OFFCURVE",
"107 -35 OFFCURVE",
"154 0 CURVE"
);
}
);
width = 337;
},
{
layerId = "809C3DC2-6073-4494-AA7C-C910FAB1DD5E";
paths = (
{
closed = 1;
nodes = (
"325 0 LINE",
"328 52 LINE",
"243 66 LINE",
"323 677 LINE",
"407 689 LINE",
"413 743 LINE",
"85 743 LINE",
"80 689 LINE",
"151 677 LINE",
"71 66 LINE",
"-2 52 LINE",
"-9 0 LINE",
"109 0 LINE",
"76 -17 OFFCURVE",
"40 -40 OFFCURVE",
"6 -89 CURVE SMOOTH",
"-7 -107 OFFCURVE",
"-16 -133 OFFCURVE",
"-16 -149 CURVE SMOOTH",
"-16 -201 OFFCURVE",
"15 -234 OFFCURVE",
"78 -234 CURVE SMOOTH",
"149 -234 OFFCURVE",
"207 -200 OFFCURVE",
"246 -159 CURVE",
"229 -104 LINE",
"201 -125 OFFCURVE",
"181 -140 OFFCURVE",
"154 -140 CURVE SMOOTH",
"135 -140 OFFCURVE",
"121 -133 OFFCURVE",
"121 -105 CURVE SMOOTH",
"121 -74 OFFCURVE",
"162 -36 OFFCURVE",
"216 0 CURVE"
);
}
);
width = 375;
}
);
unicode = 012E;
},
{
glyphname = J;
layers = (
{
anchors = (
{
name = btm;
position = "{131, -82}";
},
{
name = top;
position = "{240, 830}";
}
);
layerId = UUID0;
paths = (
{
closed = 1;
nodes = (
"344 704 LINE",
"348 743 LINE",
"111 743 LINE",
"106 704 LINE",
"188 695 LINE",
"164 482 OFFCURVE",
"141 201 OFFCURVE",
"107 44 CURVE SMOOTH",
"89 -36 OFFCURVE",
"13 -111 OFFCURVE",
"-76 -134 CURVE",
"-62 -168 LINE",
"36 -151 OFFCURVE",
"139 -96 OFFCURVE",
"178 37 CURVE SMOOTH",
"192 83 OFFCURVE",
"223 367 OFFCURVE",
"259 695 CURVE"
);
}
);
width = 345;
},
{
anchors = (
{
name = btm;
position = "{141, -82}";
},
{
name = top;
position = "{244, 830}";
}
);
layerId = "809C3DC2-6073-4494-AA7C-C910FAB1DD5E";
paths = (
{
closed = 1;
nodes = (
"394 689 LINE",
"399 743 LINE",
"89 743 LINE",
"82 689 LINE",
"153 676 LINE",
"130 464 OFFCURVE",
"100 232 OFFCURVE",
"64 42 CURVE SMOOTH",
"52 -22 OFFCURVE",
"15 -83 OFFCURVE",
"-92 -116 CURVE",
"-66 -168 LINE",
"70 -149 OFFCURVE",
"195 -78 OFFCURVE",
"235 37 CURVE SMOOTH",
"251 83 OFFCURVE",
"290 403 OFFCURVE",
"324 677 CURVE"
);
}
);
width = 361;
}
);
unicode = 004A;
},
{
glyphname = K;
layers = (
{
anchors = (
{
name = btm;
position = "{325, -82}";
},
{
name = top;
position = "{435, 831}";
}
);
layerId = UUID0;
paths = (
{
closed = 1;
nodes = (
"613 695 LINE",
"671 704 LINE",
"677 743 LINE",
"477 743 LINE",
"472 704 LINE",
"540 694 LINE",
"196 311 LINE",
"245 694 LINE",
"318 704 LINE",
"322 743 LINE",
"109 743 LINE",
"105 704 LINE",
"171 694 LINE",
"90 46 LINE",
"17 34 LINE",
"13 0 LINE",
"236 0 LINE",
"239 34 LINE",
"163 46 LINE",
"187 236 LINE",
"294 352 LINE",
"320 308 OFFCURVE",
"364 230 OFFCURVE",
"397 175 CURVE SMOOTH",
"438 106 OFFCURVE",
"487 2 OFFCURVE",
"510 0 CURVE",
"627 0 LINE",
"632 37 LINE",
"566 54 LINE",
"545 66 OFFCURVE",
"522 103 OFFCURVE",
"461 200 CURVE",
"426 253 OFFCURVE",
"371 349 OFFCURVE",
"339 400 CURVE"
);
}
);
width = 658;
},
{
anchors = (
{
name = btm;
position = "{366, -82}";
},
{
name = top;
position = "{487, 831}";
}
);
layerId = "809C3DC2-6073-4494-AA7C-C910FAB1DD5E";
paths = (
{
closed = 1;
nodes = (
"697 677 LINE",
"759 689 LINE",
"765 743 LINE",
"520 743 LINE",
"515 690 LINE",
"581 677 LINE",
"276 353 LINE",
"319 677 LINE",
"407 689 LINE",
"413 743 LINE",
"83 743 LINE",
"77 689 LINE",
"147 677 LINE",
"67 66 LINE",
"-4 52 LINE",
"-11 0 LINE",
"319 0 LINE",
"324 52 LINE",
"239 66 LINE",
"262 242 LINE",
"354 334 LINE",
"390 263 OFFCURVE",
"421 164 OFFCURVE",
"447 100 CURVE SMOOTH",
"478 22 OFFCURVE",
"487 3 OFFCURVE",
"516 0 CURVE",
"728 0 LINE",
"734 52 LINE",
"677 66 LINE",
"654 79 OFFCURVE",
"626 135 OFFCURVE",
"580 227 CURVE SMOOTH",
"553 279 OFFCURVE",
"499 405 OFFCURVE",
"470 450 CURVE"
);
}
);
width = 726;
}
);
unicode = 004B;
},
{
glyphname = L;
layers = (
{
anchors = (
{
name = btm;
position = "{280, -82}";
},
{
name = top;
position = "{240, 831}";
}
);
layerId = UUID0;
paths = (
{
closed = 1;
nodes = (
"105 704 LINE",
"171 694 LINE",
"90 46 LINE",
"17 34 LINE",
"14 0 LINE",
"487 0 LINE",
"534 210 LINE",
"490 219 LINE",
"429 50 LINE",
"163 46 LINE",
"245 694 LINE",
"331 704 LINE",
"334 743 LINE",
"109 743 LINE"
);
}
);
width = 570;
},
{
anchors = (
{
name = btm;
position = "{252, -82}";
},
{
name = top;
position = "{284, 831}";
}
);
layerId = "809C3DC2-6073-4494-AA7C-C910FAB1DD5E";
paths = (
{
closed = 1;
nodes = (
"76 689 LINE",
"147 677 LINE",
"67 66 LINE",
"0 52 LINE",
"-6 0 LINE",
"554 0 LINE",
"605 282 LINE",
"517 293 LINE",
"414 73 LINE",
"238 63 LINE",
"319 677 LINE",
"408 689 LINE",
"414 743 LINE",
"83 743 LINE"
);
}
);
width = 620;
}
);
unicode = 004C;
},
{
glyphname = Lslash;
layers = (
{
layerId = UUID0;
paths = (
{
closed = 1;
nodes = (
"105 705 LINE",
"171 695 LINE",
"126 338 LINE",
"29 296 LINE",
"43 250 LINE",
"119 282 LINE",
"90 47 LINE",
"17 35 LINE",
"14 1 LINE",
"487 1 LINE",
"534 211 LINE",
"490 220 LINE",
"429 51 LINE",
"163 47 LINE",
"197 315 LINE",
"437 417 LINE",
"423 467 LINE",
"204 372 LINE",
"245 695 LINE",
"331 705 LINE",
"334 744 LINE",
"109 744 LINE"
);
}
);
width = 570;
},
{
layerId = "809C3DC2-6073-4494-AA7C-C910FAB1DD5E";
paths = (
{
closed = 1;
nodes = (
"76 690 LINE",
"147 678 LINE",
"102 333 LINE",
"4 293 LINE",
"22 236 LINE",
"93 264 LINE",
"67 67 LINE",
"0 53 LINE",
"-6 1 LINE",
"554 1 LINE",
"605 283 LINE",
"517 294 LINE",
"414 74 LINE",
"238 64 LINE",
"274 336 LINE",
"449 405 LINE",
"432 467 LINE",
"283 407 LINE",
"319 678 LINE",
"408 690 LINE",
"414 744 LINE",
"83 744 LINE"
);
}
);
width = 620;
}
);
unicode = 0141;
},
{
glyphname = M;
layers = (
{
anchors = (
{
name = btm;
position = "{507, -82}";
},
{
name = top;
position = "{527, 830}";
}
);
layerId = UUID0;
paths = (
{
closed = 1;
nodes = (
"435 117 LINE",
"420 226 LINE",
"333 743 LINE",
"140 743 LINE",
"135 704 LINE",
"226 694 LINE",
"64 46 LINE",
"-20 34 LINE",
"-24 0 LINE",
"219 0 LINE",
"222 34 LINE",
"125 46 LINE",
"233 505 LINE",
"274 702 LINE",
"307 509 LINE",
"395 -9 LINE",
"437 -2 LINE",
"677 521 LINE",
"754 703 LINE",
"740 497 LINE",
"720 45 LINE",
"629 34 LINE",
"625 0 LINE",
"873 0 LINE",
"876 34 LINE",
"793 46 LINE",
"812 694 LINE",
"901 704 LINE",
"905 743 LINE",
"722 743 LINE",
"669 610 OFFCURVE",
"537 357 OFFCURVE",
"485 224 CURVE"
);
}
);
width = 915;
},
{
anchors = (
{
name = btm;
position = "{557, -82}";
},
{
name = top;
position = "{581, 830}";
}
);
layerId = "809C3DC2-6073-4494-AA7C-C910FAB1DD5E";
paths = (
{
closed = 1;
nodes = (
"510 249 LINE",
"500 332 LINE",
"451 743 LINE",
"114 743 LINE",
"106 689 LINE",
"201 677 LINE",
"42 66 LINE",
"-37 52 LINE",
"-43 0 LINE",
"257 0 LINE",
"262 52 LINE",
"152 66 LINE",
"254 489 LINE",
"296 677 LINE",
"323 494 LINE",
"389 -9 LINE",
"472 -1 LINE",
"686 506 LINE",
"756 677 LINE",
"746 482 LINE",
"718 66 LINE",
"626 53 LINE",
"622 0 LINE",
"970 0 LINE",
"974 52 LINE",
"886 66 LINE",
"905 677 LINE",
"991 689 LINE",
"998 743 LINE",
"700 743 LINE",
"646 606 OFFCURVE",
"591 469 OFFCURVE",
"537 332 CURVE"
);
}
);
width = 987;
}
);
unicode = 004D;
},
{
glyphname = N;
layers = (
{
anchors = (
{
name = btm;
position = "{336, -83}";
},
{
name = top;
position = "{427, 830}";
}
);
layerId = UUID0;
paths = (
{
closed = 1;
nodes = (
"100 704 LINE",
"171 694 LINE",
"86 45 LINE",
"18 34 LINE",
"15 0 LINE",
"229 0 LINE",
"232 34 LINE",
"149 46 LINE",
"218 667 LINE",
"257 556 LINE",
"507 0 LINE",
"578 0 LINE",
"673 694 LINE",
"749 704 LINE",
"752 743 LINE",
"541 743 LINE",
"536 704 LINE",
"615 695 LINE",
"541 72 LINE",
"502 183 LINE",
"250 743 LINE",
"106 743 LINE"
);
}
);
width = 737;
},
{
anchors = (
{
name = btm;
position = "{336, -83}";
},
{
name = top;
position = "{450, 830}";
}
);
layerId = "809C3DC2-6073-4494-AA7C-C910FAB1DD5E";
paths = (
{
closed = 1;
nodes = (
"75 689 LINE",
"158 677 LINE",
"67 66 LINE",
"-5 52 LINE",
"-9 0 LINE",
"261 0 LINE",
"266 52 LINE",
"173 66 LINE",
"234 622 LINE",
"272 498 LINE",
"463 0 LINE",
"638 0 LINE",
"742 677 LINE",
"802 689 LINE",
"807 743 LINE",
"562 743 LINE",
"557 689 LINE",
"641 677 LINE",
"574 149 LINE",
"536 261 LINE",
"355 743 LINE",
"83 743 LINE"
);
}
);
width = 759;
}
);
unicode = 004E;
},
{
glyphname = Eng;
layers = (
{
layerId = UUID0;
paths = (
{
closed = 1;
nodes = (
"672 695 LINE",
"747 705 LINE",
"750 744 LINE",
"541 744 LINE",
"536 705 LINE",
"611 695 LINE",
"540 86 LINE",
"505 183 LINE",
"250 744 LINE",
"105 744 LINE",
"99 705 LINE",
"172 695 LINE",
"86 45 LINE",
"18 34 LINE",
"14 0 LINE",
"229 0 LINE",
"232 34 LINE",
"151 46 LINE",
"218 646 LINE",
"255 549 LINE",
"508 -2 LINE",
"493 -75 OFFCURVE",
"417 -120 OFFCURVE",
"339 -144 CURVE",
"352 -178 LINE",
"443 -161 OFFCURVE",
"563 -117 OFFCURVE",
"578 0 CURVE SMOOTH"
);
}
);
width = 737;
},
{
layerId = "809C3DC2-6073-4494-AA7C-C910FAB1DD5E";
paths = (
{
closed = 1;
nodes = (
"738 681 LINE",
"798 693 LINE",
"803 747 LINE",
"558 747 LINE",
"553 693 LINE",
"637 681 LINE",
"577 181 LINE",
"542 303 LINE",
"351 747 LINE",
"79 747 LINE",
"71 693 LINE",
"154 681 LINE",
"66 66 LINE",
"-7 52 LINE",
"-11 0 LINE",
"259 0 LINE",
"265 52 LINE",
"172 66 LINE",
"230 626 LINE",
"269 502 LINE",
"497 0 LINE",
"503 -98 OFFCURVE",
"417 -167 OFFCURVE",
"354 -179 CURVE",
"377 -237 LINE",
"529 -228 OFFCURVE",
"620 -117 OFFCURVE",
"637 0 CURVE SMOOTH"
);
}
);
width = 759;
}
);
unicode = 014A;
},
{
glyphname = O;
layers = (
{
anchors = (
{
name = bottom;
position = "{300, 0}";
},
{
name = btm;
position = "{288, -83}";
},
{
name = center;
position = "{351, 372}";
},
{
name = ogonek;
position = "{388, 10}";
},
{
name = top;
position = "{407, 830}";
},
{
name = topleft;
position = "{84, 743}";
},
{
name = topright;
position = "{565, 743}";
}
);
background = {
paths = (
{
closed = 1;
nodes = (
"481 -7 OFFCURVE",
"633 143 OFFCURVE",
"656 378 CURVE SMOOTH",
"678 603 OFFCURVE",
"591 751 OFFCURVE",
"396 751 CURVE SMOOTH",
"215 751 OFFCURVE",
"62 602 OFFCURVE",
"39 366 CURVE SMOOTH",
"17 141 OFFCURVE",
"105 -15 OFFCURVE",
"301 -11 CURVE SMOOTH"
);
},
{
closed = 1;
nodes = (
"522 704 OFFCURVE",
"581 570 OFFCURVE",
"563 378 CURVE SMOOTH",
"541 151 OFFCURVE",
"444 36 OFFCURVE",
"311 36 CURVE SMOOTH",
"172 36 OFFCURVE",
"111 175 OFFCURVE",
"130 366 CURVE SMOOTH",
"153 593 OFFCURVE",
"249 704 OFFCURVE",
"382 704 CURVE SMOOTH"
);
}
);
};
layerId = UUID0;
paths = (
{
closed = 1;
nodes = (
"202 753 OFFCURVE",
"53 562 OFFCURVE",
"57 302 CURVE SMOOTH",
"59 128 OFFCURVE",
"143 -10 OFFCURVE",
"302 -10 CURVE SMOOTH",
"497 -10 OFFCURVE",
"642 185 OFFCURVE",
"638 443 CURVE SMOOTH",
"635 612 OFFCURVE",
"557 753 OFFCURVE",
"395 753 CURVE SMOOTH"
);
},
{
closed = 1;
nodes = (
"499 704 OFFCURVE",
"558 592 OFFCURVE",
"561 431 CURVE SMOOTH",
"565 203 OFFCURVE",
"456 37 OFFCURVE",
"313 37 CURVE SMOOTH",
"200 37 OFFCURVE",
"133 147 OFFCURVE",
"131 313 CURVE SMOOTH",
"128 542 OFFCURVE",
"239 704 OFFCURVE",
"383 704 CURVE SMOOTH"
);
}
);
width = 675;
},
{
anchors = (
{
name = bottom;
position = "{318, 0}";
},
{
name = btm;
position = "{301, -83}";
},
{
name = center;
position = "{369, 372}";
},
{
name = ogonek;
position = "{426, 10}";
},
{
name = top;
position = "{412, 830}";
},
{
name = topleft;
position = "{84, 743}";
},
{
name = topright;
position = "{627, 743}";
}
);
layerId = "809C3DC2-6073-4494-AA7C-C910FAB1DD5E";
paths = (
{
closed = 1;
nodes = (
"152 753 OFFCURVE",
"30 537 OFFCURVE",
"30 311 CURVE SMOOTH",
"30 129 OFFCURVE",
"110 -10 OFFCURVE",
"313 -10 CURVE SMOOTH",
"589 -10 OFFCURVE",
"699 215 OFFCURVE",
"699 436 CURVE SMOOTH",
"699 604 OFFCURVE",
"622 753 OFFCURVE",
"416 753 CURVE SMOOTH"
);
},
{
closed = 1;
nodes = (
"483 692 OFFCURVE",
"513 594 OFFCURVE",
"513 430 CURVE SMOOTH",
"513 220 OFFCURVE",
"454 50 OFFCURVE",
"327 50 CURVE SMOOTH",
"232 50 OFFCURVE",
"216 191 OFFCURVE",
"216 317 CURVE SMOOTH",
"216 506 OFFCURVE",
"281 692 OFFCURVE",
"402 692 CURVE SMOOTH"
);
}
);
width = 714;
}
);
unicode = 004F;
},
{
glyphname = Oslash;
layers = (
{
layerId = UUID0;
paths = (
{
closed = 1;
nodes = (
"611 810 LINE",
"577 827 LINE",
"514 722 LINE",
"481 742 OFFCURVE",
"441 754 OFFCURVE",
"395 754 CURVE SMOOTH",
"202 754 OFFCURVE",
"53 563 OFFCURVE",
"57 303 CURVE SMOOTH",
"58 205 OFFCURVE",
"85 118 OFFCURVE",
"137 62 CURVE",
"63 -63 LINE",
"98 -81 LINE",
"168 34 LINE",
"204 6 OFFCURVE",
"249 -9 OFFCURVE",
"302 -9 CURVE SMOOTH",
"497 -9 OFFCURVE",
"642 186 OFFCURVE",
"638 444 CURVE SMOOTH",
"636 548 OFFCURVE",
"606 641 OFFCURVE",
"545 697 CURVE"
);
},
{
closed = 1;
nodes = (
"177 119 LINE",
"148 167 OFFCURVE",
"132 234 OFFCURVE",
"131 314 CURVE SMOOTH",
"128 543 OFFCURVE",
"239 705 OFFCURVE",
"383 705 CURVE SMOOTH",
"423 705 OFFCURVE",
"457 691 OFFCURVE",
"483 666 CURVE"
);
},
{
closed = 1;
nodes = (
"507 639 LINE",
"541 591 OFFCURVE",
"560 519 OFFCURVE",
"561 432 CURVE SMOOTH",
"565 204 OFFCURVE",
"456 38 OFFCURVE",
"313 38 CURVE SMOOTH",
"267 38 OFFCURVE",
"229 56 OFFCURVE",
"200 88 CURVE"
);
}
);
width = 677;
},
{
layerId = "809C3DC2-6073-4494-AA7C-C910FAB1DD5E";
paths = (
{
closed = 1;
nodes = (
"669 792 LINE",
"625 820 LINE",
"559 723 LINE",
"521 743 OFFCURVE",
"474 754 OFFCURVE",
"417 754 CURVE SMOOTH",
"154 754 OFFCURVE",
"32 538 OFFCURVE",
"32 312 CURVE SMOOTH",
"32 205 OFFCURVE",
"60 114 OFFCURVE",
"123 56 CURVE",
"59 -36 LINE",
"102 -64 LINE",
"164 26 LINE",
"204 4 OFFCURVE",
"254 -9 OFFCURVE",
"315 -9 CURVE SMOOTH",
"591 -9 OFFCURVE",
"701 216 OFFCURVE",
"701 437 CURVE SMOOTH",
"701 541 OFFCURVE",
"671 637 OFFCURVE",
"601 695 CURVE"
);
},
{
closed = 1;
nodes = (
"226 189 LINE",
"220 229 OFFCURVE",
"218 274 OFFCURVE",
"218 318 CURVE SMOOTH",
"218 507 OFFCURVE",
"283 693 OFFCURVE",
"404 693 CURVE SMOOTH",
"445 693 OFFCURVE",
"474 667 OFFCURVE",
"491 620 CURVE"
);
},
{
closed = 1;
nodes = (
"505 564 LINE",
"512 527 OFFCURVE",
"515 482 OFFCURVE",
"515 431 CURVE SMOOTH",
"515 221 OFFCURVE",
"456 51 OFFCURVE",
"329 51 CURVE SMOOTH",
"284 51 OFFCURVE",
"256 83 OFFCURVE",
"240 130 CURVE"
);
}
);
width = 714;
}
);
unicode = 00D8;
},
{
glyphname = OE;
layers = (
{
layerId = UUID0;
paths = (
{
closed = 1;
nodes = (
"541 0 LINE",
"961 0 LINE",
"996 146 LINE",
"957 158 LINE",
"911 55 LINE",
"621 46 LINE",
"660 358 LINE",
"876 352 LINE",
"881 417 LINE",
"664 407 LINE",
"702 701 LINE",
"937 695 LINE",
"954 600 LINE",
"994 600 LINE",
"997 743 LINE",
"630 743 LINE",
"609 571 LINE",
"578 678 OFFCURVE",
"505 752 OFFCURVE",
"393 752 CURVE SMOOTH",
"202 752 OFFCURVE",
"45 564 OFFCURVE",
"50 303 CURVE SMOOTH",
"53 107 OFFCURVE",
"153 -10 OFFCURVE",
"302 -10 CURVE SMOOTH",
"409 -10 OFFCURVE",
"500 53 OFFCURVE",
"559 153 CURVE"
);
},
{
closed = 1;
nodes = (
"498 703 OFFCURVE",
"558 611 OFFCURVE",
"561 426 CURVE SMOOTH",
"564 203 OFFCURVE",
"456 37 OFFCURVE",
"313 37 CURVE",
"186 38 OFFCURVE",
"128 151 OFFCURVE",
"125 338 CURVE SMOOTH",
"123 546 OFFCURVE",
"238 703 OFFCURVE",
"381 703 CURVE SMOOTH"
);
}
);
width = 1030;
},
{
layerId = "809C3DC2-6073-4494-AA7C-C910FAB1DD5E";
paths = (
{
closed = 1;
nodes = (
"550 0 LINE",
"1078 0 LINE",
"1112 222 LINE",
"1008 229 LINE",
"951 83 LINE",
"725 66 LINE",
"763 348 LINE",
"977 330 LINE",
"996 445 LINE",
"772 424 LINE",
"808 685 LINE",
"974 672 LINE",
"990 563 LINE",
"1099 563 LINE",
"1116 743 LINE",
"644 743 LINE",
"632 647 LINE",
"595 711 OFFCURVE",
"531 753 OFFCURVE",
"420 753 CURVE SMOOTH",
"150 753 OFFCURVE",
"30 537 OFFCURVE",
"30 311 CURVE SMOOTH",
"30 129 OFFCURVE",
"113 -10 OFFCURVE",
"318 -10 CURVE SMOOTH",
"427 -10 OFFCURVE",
"505 25 OFFCURVE",
"560 81 CURVE"
);
},
{
closed = 1;
nodes = (
"495 692 OFFCURVE",
"527 594 OFFCURVE",
"527 430 CURVE SMOOTH",
"527 220 OFFCURVE",
"466 50 OFFCURVE",
"332 50 CURVE SMOOTH",
"228 50 OFFCURVE",
"211 191 OFFCURVE",
"211 317 CURVE SMOOTH",
"211 506 OFFCURVE",
"280 692 OFFCURVE",
"407 692 CURVE SMOOTH"
);
}
);
width = 1126;
}
);
unicode = 0152;
},
{
glyphname = P;
layers = (
{
anchors = (
{
name = btm;
position = "{117, -83}";
},
{
name = top;
position = "{401, 830}";
}
);
layerId = UUID0;
paths = (
{
closed = 1;
nodes = (
"109 743 LINE",
"105 704 LINE",
"171 694 LINE",
"90 46 LINE",
"17 34 LINE",
"13 0 LINE",
"250 0 LINE",
"253 34 LINE",
"164 46 LINE",
"190 270 LINE",
"208 269 OFFCURVE",
"247 266 OFFCURVE",
"291 266 CURVE SMOOTH",
"454 266 OFFCURVE",
"594 370 OFFCURVE",
"591 562 CURVE SMOOTH",
"589 691 OFFCURVE",
"509 751 OFFCURVE",
"368 751 CURVE SMOOTH",
"316 751 OFFCURVE",
"273 743 OFFCURVE",
"220 743 CURVE SMOOTH"
);
},
{
closed = 1;
nodes = (
"245 695 LINE",
"278 700 OFFCURVE",
"325 704 OFFCURVE",
"356 705 CURVE SMOOTH",
"474 708 OFFCURVE",
"514 653 OFFCURVE",
"513 555 CURVE SMOOTH",
"511 397 OFFCURVE",
"441 314 OFFCURVE",
"294 313 CURVE SMOOTH",
"265 313 OFFCURVE",
"226 316 OFFCURVE",
"196 321 CURVE"
);
}
);
width = 597;
},
{
anchors = (
{
name = btm;
position = "{135, -83}";
},
{
name = top;
position = "{419, 830}";
}
);
layerId = "809C3DC2-6073-4494-AA7C-C910FAB1DD5E";
paths = (
{
closed = 1;
nodes = (
"83 743 LINE",
"76 689 LINE",
"148 677 LINE",
"66 66 LINE",
"-1 52 LINE",
"-6 0 LINE",
"374 0 LINE",
"377 52 LINE",
"242 66 LINE",
"264 253 LINE",
"277 251 OFFCURVE",
"292 251 OFFCURVE",
"321 251 CURVE SMOOTH",
"539 251 OFFCURVE",
"676 360 OFFCURVE",
"670 552 CURVE SMOOTH",
"666 681 OFFCURVE",
"595 751 OFFCURVE",
"397 751 CURVE SMOOTH",
"347 751 OFFCURVE",
"296 743 OFFCURVE",
"237 743 CURVE SMOOTH"
);
},
{
closed = 1;
nodes = (
"322 685 LINE",
"338 688 OFFCURVE",
"352 689 OFFCURVE",
"365 689 CURVE SMOOTH",
"442 689 OFFCURVE",
"494 649 OFFCURVE",
"494 549 CURVE SMOOTH",
"493 410 OFFCURVE",
"430 317 OFFCURVE",
"326 315 CURVE SMOOTH",
"310 315 OFFCURVE",
"292 314 OFFCURVE",
"272 319 CURVE"
);
}
);
width = 655;
}
);
unicode = 0050;
},
{
glyphname = Thorn;
layers = (
{
layerId = UUID0;
paths = (
{
closed = 1;
nodes = (
"245 698 LINE",
"318 708 LINE",
"322 747 LINE",
"109 747 LINE",
"105 708 LINE",
"171 698 LINE",
"90 46 LINE",
"17 34 LINE",
"13 0 LINE",
"242 0 LINE",
"245 34 LINE",
"163 46 LINE",
"177 157 LINE",
"196 155 OFFCURVE",
"232 153 OFFCURVE",
"290 153 CURVE SMOOTH",
"448 153 OFFCURVE",
"577 250 OFFCURVE",
"577 405 CURVE SMOOTH",
"577 524 OFFCURVE",
"499 592 OFFCURVE",
"352 592 CURVE SMOOTH",
"315 592 OFFCURVE",
"266 589 OFFCURVE",
"230 583 CURVE"
);
},
{
closed = 1;
nodes = (
"224 536 LINE",
"250 541 OFFCURVE",
"302 545 OFFCURVE",
"333 545 CURVE SMOOTH",
"464 545 OFFCURVE",
"502 491 OFFCURVE",
"504 388 CURVE",
"505 278 OFFCURVE",
"427 198 OFFCURVE",
"289 198 CURVE SMOOTH",
"248 198 OFFCURVE",
"213 200 OFFCURVE",
"183 204 CURVE"
);
}
);
width = 599;
},
{
layerId = "809C3DC2-6073-4494-AA7C-C910FAB1DD5E";
paths = (
{
closed = 1;
nodes = (
"322 677 LINE",
"410 689 LINE",
"416 743 LINE",
"86 743 LINE",
"79 689 LINE",
"150 677 LINE",
"69 66 LINE",
"1 52 LINE",
"-4 0 LINE",
"322 0 LINE",
"326 52 LINE",
"241 66 LINE",
"256 181 LINE",
"266 180 OFFCURVE",
"281 179 OFFCURVE",
"310 179 CURVE SMOOTH",
"603 179 OFFCURVE",
"658 316 OFFCURVE",
"654 423 CURVE SMOOTH",
"651 503 OFFCURVE",
"614 583 OFFCURVE",
"411 583 CURVE SMOOTH",
"376 583 OFFCURVE",
"342 581 OFFCURVE",
"309 579 CURVE"
);
},
{
closed = 1;
nodes = (
"300 513 LINE",
"320 517 OFFCURVE",
"344 520 OFFCURVE",
"357 520 CURVE SMOOTH",
"427 520 OFFCURVE",
"471 482 OFFCURVE",
"473 410 CURVE SMOOTH",
"478 294 OFFCURVE",
"404 246 OFFCURVE",
"319 246 CURVE SMOOTH",
"297 246 OFFCURVE",
"282 246 OFFCURVE",
"264 246 CURVE"
);
}
);
width = 639;
}
);
unicode = 00DE;
},
{
glyphname = Q;
layers = (
{
anchors = (
{
name = btm;
position = "{323, -82}";
},
{
name = top;
position = "{431, 830}";
}
);
layerId = UUID0;
paths = (
{
closed = 1;
nodes = (
"586 -81 LINE",
"558 -95 OFFCURVE",
"511 -106 OFFCURVE",
"477 -106 CURVE SMOOTH",
"403 -106 OFFCURVE",
"333 -91 OFFCURVE",
"332 -7 CURVE",
"510 12 OFFCURVE",
"640 199 OFFCURVE",
"636 444 CURVE SMOOTH",
"633 612 OFFCURVE",
"556 753 OFFCURVE",
"394 753 CURVE SMOOTH",
"200 753 OFFCURVE",
"52 563 OFFCURVE",
"55 303 CURVE SMOOTH",
"58 135 OFFCURVE",
"135 1 OFFCURVE",
"283 -9 CURVE",
"265 -121 OFFCURVE",
"355 -175 OFFCURVE",
"452 -175 CURVE SMOOTH",
"506 -175 OFFCURVE",
"563 -153 OFFCURVE",
"587 -134 CURVE"
);
},
{
closed = 1;
nodes = (
"497 704 OFFCURVE",
"557 592 OFFCURVE",
"560 431 CURVE SMOOTH",
"564 204 OFFCURVE",
"455 38 OFFCURVE",
"311 38 CURVE SMOOTH",
"198 38 OFFCURVE",
"132 147 OFFCURVE",
"130 314 CURVE SMOOTH",
"127 543 OFFCURVE",
"238 704 OFFCURVE",
"381 704 CURVE SMOOTH"
);
}
);
width = 677;
},
{
anchors = (
{
name = btm;
position = "{343, -82}";
},
{
name = top;
position = "{461, 830}";
}
);
layerId = "809C3DC2-6073-4494-AA7C-C910FAB1DD5E";
paths = (
{
closed = 1;
nodes = (
"682 -69 LINE",
"640 -83 OFFCURVE",
"570 -88 OFFCURVE",
"541 -88 CURVE SMOOTH",
"461 -88 OFFCURVE",
"398 -81 OFFCURVE",
"399 -2 CURVE",
"612 40 OFFCURVE",
"699 239 OFFCURVE",
"699 436 CURVE SMOOTH",
"699 604 OFFCURVE",
"623 752 OFFCURVE",
"416 752 CURVE SMOOTH",
"152 752 OFFCURVE",
"30 536 OFFCURVE",
"30 311 CURVE SMOOTH",
"30 114 OFFCURVE",
"120 -10 OFFCURVE",
"319 -10 CURVE",
"275 -140 OFFCURVE",
"326 -214 OFFCURVE",
"493 -214 CURVE SMOOTH",
"592 -214 OFFCURVE",
"657 -180 OFFCURVE",
"683 -160 CURVE"
);
},
{
closed = 1;
nodes = (
"483 692 OFFCURVE",
"513 594 OFFCURVE",
"513 430 CURVE SMOOTH",
"513 220 OFFCURVE",
"455 49 OFFCURVE",
"328 49 CURVE SMOOTH",
"232 49 OFFCURVE",
"216 191 OFFCURVE",
"216 316 CURVE SMOOTH",
"216 506 OFFCURVE",
"282 692 OFFCURVE",
"403 692 CURVE SMOOTH"
);
}
);
width = 715;
}
);
unicode = 0051;
},
{
glyphname = R;
layers = (
{
anchors = (
{
name = btm;
position = "{331, -83}";
},
{
name = top;
position = "{395, 830}";
}
);
layerId = UUID0;
paths = (
{
closed = 1;
nodes = (
"109 743 LINE",
"105 704 LINE",
"171 694 LINE",
"90 46 LINE",
"24 34 LINE",
"21 0 LINE",
"250 0 LINE",
"253 34 LINE",
"161 46 LINE",
"193 328 LINE",
"221 327 OFFCURVE",
"301 328 OFFCURVE",
"309 328 CURVE SMOOTH",
"354 329 OFFCURVE",
"402 215 OFFCURVE",
"442 122 CURVE",
"482 21 OFFCURVE",
"501 0 OFFCURVE",
"524 0 CURVE SMOOTH",
"617 0 LINE",
"618 39 LINE",
"550 39 OFFCURVE",
"553 51 OFFCURVE",
"500 165 CURVE",
"479 206 OFFCURVE",
"428 309 OFFCURVE",
"390 337 CURVE",
"510 368 OFFCURVE",
"587 463 OFFCURVE",
"585 585 CURVE SMOOTH",
"583 700 OFFCURVE",
"512 751 OFFCURVE",
"352 751 CURVE SMOOTH",
"311 751 OFFCURVE",
"267 743 OFFCURVE",
"226 743 CURVE SMOOTH"
);
},
{
closed = 1;
nodes = (
"242 697 LINE",
"269 701 OFFCURVE",
"324 705 OFFCURVE",
"339 705 CURVE SMOOTH",
"469 705 OFFCURVE",
"509 663 OFFCURVE",
"511 578 CURVE SMOOTH",
"513 468 OFFCURVE",
"441 380 OFFCURVE",
"325 373 CURVE SMOOTH",
"305 372 OFFCURVE",
"224 373 OFFCURVE",
"199 374 CURVE"
);
}
);
width = 649;
},
{
anchors = (
{
name = btm;
position = "{353, -83}";
},
{
name = top;
position = "{428, 830}";
}
);
layerId = "809C3DC2-6073-4494-AA7C-C910FAB1DD5E";
paths = (
{
closed = 1;
nodes = (
"83 743 LINE",
"77 689 LINE",
"147 677 LINE",
"67 66 LINE",
"-2 52 LINE",
"-6 0 LINE",
"324 0 LINE",
"327 52 LINE",
"237 66 LINE",
"269 323 LINE",
"302 323 OFFCURVE",
"358 323 OFFCURVE",
"358 323 CURVE",
"375 299 OFFCURVE",
"415 180 OFFCURVE",
"447 92 CURVE SMOOTH",
"463 46 OFFCURVE",
"478 0 OFFCURVE",
"491 0 CURVE",
"693 0 LINE",
"698 52 LINE",
"638 53 OFFCURVE",
"625 93 OFFCURVE",
"585 180 CURVE",
"570 220 OFFCURVE",
"537 313 OFFCURVE",
"511 343 CURVE",
"613 379 OFFCURVE",
"676 459 OFFCURVE",
"676 564 CURVE SMOOTH",
"676 681 OFFCURVE",
"616 751 OFFCURVE",
"414 751 CURVE SMOOTH",
"327 751 OFFCURVE",
"300 743 OFFCURVE",
"235 743 CURVE SMOOTH"
);
},
{
closed = 1;
nodes = (
"318 685 LINE",
"336 688 OFFCURVE",
"363 689 OFFCURVE",
"374 689 CURVE SMOOTH",
"447 689 OFFCURVE",
"493 652 OFFCURVE",
"496 575 CURVE SMOOTH",
"501 453 OFFCURVE",
"443 389 OFFCURVE",
"351 389 CURVE SMOOTH",
"338 389 OFFCURVE",
"295 389 OFFCURVE",
"278 391 CURVE"
);
}
);
width = 708;
}
);
unicode = 0052;
},
{
glyphname = S;
layers = (
{
anchors = (
{
name = btm;
position = "{216, -83}";
},
{
name = top;
position = "{344, 830}";
}
);
layerId = UUID0;
paths = (
{
closed = 1;
nodes = (
"443 584 LINE",
"483 584 LINE",
"505 711 LINE",
"479 729 OFFCURVE",
"420 753 OFFCURVE",
"327 753 CURVE SMOOTH",
"203 753 OFFCURVE",
"96 674 OFFCURVE",
"98 557 CURVE SMOOTH",
"100 447 OFFCURVE",
"195 390 OFFCURVE",
"271 342 CURVE SMOOTH",
"336 302 OFFCURVE",
"403 258 OFFCURVE",
"400 172 CURVE",
"396 76 OFFCURVE",
"303 35 OFFCURVE",
"226 35 CURVE SMOOTH",
"178 35 OFFCURVE",
"124 47 OFFCURVE",
"96 66 CURVE",
"90 168 LINE",
"46 168 LINE",
"26 32 LINE",
"50 14 OFFCURVE",
"135 -11 OFFCURVE",
"224 -11 CURVE SMOOTH",
"366 -11 OFFCURVE",
"476 71 OFFCURVE",
"474 208 CURVE SMOOTH",
"472 313 OFFCURVE",
"387 360 OFFCURVE",
"313 407 CURVE",
"245 449 OFFCURVE",
"171 497 OFFCURVE",
"171 585 CURVE SMOOTH",
"171 670 OFFCURVE",
"250 707 OFFCURVE",
"321 707 CURVE SMOOTH",
"375 707 OFFCURVE",
"417 694 OFFCURVE",
"438 679 CURVE"
);
}
);
width = 529;
},
{
anchors = (
{
name = btm;
position = "{219, -83}";
},
{
name = top;
position = "{342, 830}";
}
);
layerId = "809C3DC2-6073-4494-AA7C-C910FAB1DD5E";
paths = (
{
closed = 1;
nodes = (
"434 569 LINE",
"527 569 LINE",
"553 716 LINE",
"522 734 OFFCURVE",
"464 752 OFFCURVE",
"358 752 CURVE SMOOTH",
"198 752 OFFCURVE",
"81 676 OFFCURVE",
"81 534 CURVE SMOOTH",
"81 433 OFFCURVE",
"153 364 OFFCURVE",
"239 309 CURVE SMOOTH",
"330 251 OFFCURVE",
"366 213 OFFCURVE",
"366 151 CURVE SMOOTH",
"366 96 OFFCURVE",
"333 52 OFFCURVE",
"235 52 CURVE SMOOTH",
"194 52 OFFCURVE",
"164 64 OFFCURVE",
"142 82 CURVE",
"137 192 LINE",
"36 192 LINE",
"7 37 LINE",
"29 19 OFFCURVE",
"130 -11 OFFCURVE",
"239 -11 CURVE SMOOTH",
"435 -11 OFFCURVE",
"526 98 OFFCURVE",
"526 216 CURVE SMOOTH",
"526 314 OFFCURVE",
"456 382 OFFCURVE",
"374 434 CURVE SMOOTH",
"278 494 OFFCURVE",
"235 533 OFFCURVE",
"235 604 CURVE SMOOTH",
"235 655 OFFCURVE",
"275 691 OFFCURVE",
"346 691 CURVE SMOOTH",
"380 691 OFFCURVE",
"399 683 OFFCURVE",
"419 667 CURVE"
);
}
);
width = 565;
}
);
unicode = 0053;
},
{
glyphname = Germandbls;
layers = (
{
layerId = UUID0;
paths = (
{
closed = 1;
nodes = (
"83 44 LINE",
"22 33 LINE",
"19 -6 LINE",
"148 -6 LINE",
"203 460 LINE SMOOTH",
"221 614 OFFCURVE",
"306 703 OFFCURVE",
"421 702 CURVE",
"510 701 OFFCURVE",
"548 663 OFFCURVE",
"561 646 CURVE",
"403 419 LINE",
"401 407 LINE",
"465 386 OFFCURVE",
"606 312 OFFCURVE",
"606 200 CURVE SMOOTH",
"606 118 OFFCURVE",
"553 34 OFFCURVE",
"451 34 CURVE SMOOTH",
"400 34 OFFCURVE",
"351 52 OFFCURVE",
"338 72 CURVE",
"334 190 LINE",
"289 190 LINE",
"267 30 LINE",
"293 27 OFFCURVE",
"347 -11 OFFCURVE",
"442 -11 CURVE SMOOTH",
"575 -11 OFFCURVE",
"675 91 OFFCURVE",
"675 221 CURVE SMOOTH",
"675 352 OFFCURVE",
"551 410 OFFCURVE",
"472 448 CURVE",
"630 667 LINE",
"633 690 LINE",
"593 719 OFFCURVE",
"544 746 OFFCURVE",
"436 746 CURVE SMOOTH",
"267 746 OFFCURVE",
"151 612 OFFCURVE",
"131 445 CURVE SMOOTH"
);
}
);
width = 714;
},
{
layerId = "809C3DC2-6073-4494-AA7C-C910FAB1DD5E";
paths = (
{
closed = 1;
nodes = (
"33 66 LINE",
"-29 52 LINE",
"-34 0 LINE",
"196 0 LINE",
"261 473 LINE SMOOTH",
"280 613 OFFCURVE",
"329 695 OFFCURVE",
"439 695 CURVE SMOOTH",
"500 695 OFFCURVE",
"544 661 OFFCURVE",
"544 620 CURVE",
"396 425 LINE",
"390 390 LINE",
"443 358 OFFCURVE",
"533 296 OFFCURVE",
"533 204 CURVE SMOOTH",
"533 98 OFFCURVE",
"500 52 OFFCURVE",
"456 52 CURVE SMOOTH",
"424 52 OFFCURVE",
"401 64 OFFCURVE",
"392 90 CURVE",
"384 191 LINE",
"305 191 LINE",
"280 27 LINE",
"316 24 OFFCURVE",
"375 -3 OFFCURVE",
"448 -3 CURVE SMOOTH",
"585 -3 OFFCURVE",
"706 81 OFFCURVE",
"706 234 CURVE SMOOTH",
"706 364 OFFCURVE",
"614 425 OFFCURVE",
"521 450 CURVE",
"674 644 LINE",
"679 683 LINE",
"657 713 OFFCURVE",
"595 755 OFFCURVE",
"456 755 CURVE SMOOTH",
"251 755 OFFCURVE",
"106 620 OFFCURVE",
"86 453 CURVE"
);
}
);
width = 714;
}
);
unicode = 1E9E;
},
{
glyphname = Schwa;
layers = (
{
layerId = UUID0;
paths = (
{
closed = 1;
nodes = (
"89 571 LINE",
"129 571 LINE",
"158 656 LINE",
"186 678 OFFCURVE",
"248 707 OFFCURVE",
"339 707 CURVE SMOOTH",
"445 707 OFFCURVE",
"528 618 OFFCURVE",
"528 448 CURVE SMOOTH",
"528 423 OFFCURVE",
"527 399 OFFCURVE",
"525 376 CURVE",
"55 375 LINE",
"44 347 OFFCURVE",
"36 291 OFFCURVE",
"36 234 CURVE SMOOTH",
"36 78 OFFCURVE",
"111 -11 OFFCURVE",
"241 -11 CURVE SMOOTH",
"435 -11 OFFCURVE",
"599 184 OFFCURVE",
"599 452 CURVE SMOOTH",
"599 631 OFFCURVE",
"512 751 OFFCURVE",
"359 751 CURVE SMOOTH",
"225 751 OFFCURVE",
"167 715 OFFCURVE",
"112 712 CURVE"
);
},
{
closed = 1;
nodes = (
"520 333 LINE",
"491 136 OFFCURVE",
"386 34 OFFCURVE",
"265 34 CURVE SMOOTH",
"160 34 OFFCURVE",
"106 126 OFFCURVE",
"106 221 CURVE SMOOTH",
"106 261 OFFCURVE",
"113 299 OFFCURVE",
"121 333 CURVE"
);
}
);
width = 634;
},
{
layerId = "809C3DC2-6073-4494-AA7C-C910FAB1DD5E";
paths = (
{
closed = 1;
nodes = (
"97 544 LINE",
"188 544 LINE",
"235 645 LINE SMOOTH",
"251 679 OFFCURVE",
"282 695 OFFCURVE",
"336 695 CURVE SMOOTH",
"443 695 OFFCURVE",
"483 569 OFFCURVE",
"475 394 CURVE",
"475 389 OFFCURVE",
"474 385 OFFCURVE",
"474 380 CURVE",
"64 380 LINE",
"54 353 OFFCURVE",
"41 291 OFFCURVE",
"41 234 CURVE SMOOTH",
"41 78 OFFCURVE",
"134 -11 OFFCURVE",
"287 -11 CURVE SMOOTH",
"480 -11 OFFCURVE",
"645 184 OFFCURVE",
"645 452 CURVE SMOOTH",
"645 632 OFFCURVE",
"542 751 OFFCURVE",
"390 751 CURVE SMOOTH",
"207 751 OFFCURVE",
"171 707 OFFCURVE",
"119 707 CURVE"
);
},
{
closed = 1;
nodes = (
"468 313 LINE",
"445 117 OFFCURVE",
"378 54 OFFCURVE",
"309 54 CURVE SMOOTH",
"232 54 OFFCURVE",
"198 117 OFFCURVE",
"198 217 CURVE SMOOTH",
"198 251 OFFCURVE",
"204 277 OFFCURVE",
"212 313 CURVE"
);
}
);
width = 658;
}
);
unicode = 018F;
},
{
glyphname = T;
layers = (
{
anchors = (
{
name = btm;
position = "{263, -83}";
},
{
name = top;
position = "{364, 830}";
}
);
layerId = UUID0;
paths = (
{
closed = 1;
nodes = (
"41 525 LINE",
"84 526 LINE",
"125 693 LINE",
"309 701 LINE",
"225 46 LINE",
"105 37 LINE",
"103 0 LINE",
"417 0 LINE",
"420 37 LINE",
"298 46 LINE",
"383 701 LINE",
"569 693 LINE",
"561 524 LINE",
"602 525 LINE",
"631 743 LINE",
"76 743 LINE"
);
}
);
width = 598;
},
{
anchors = (
{
name = btm;
position = "{320, -83}";
},
{
name = top;
position = "{425, 830}";
}
);
layerId = "809C3DC2-6073-4494-AA7C-C910FAB1DD5E";
paths = (
{
closed = 1;
nodes = (
"35 458 LINE",
"126 458 LINE",
"207 672 LINE",
"324 685 LINE",
"242 66 LINE",
"120 52 LINE",
"113 0 LINE",
"547 0 LINE",
"552 52 LINE",
"414 66 LINE",
"496 685 LINE",
"613 672 LINE",
"622 458 LINE",
"710 458 LINE",
"752 743 LINE",
"83 743 LINE"
);
}
);
width = 707;
}
);
unicode = 0054;
},
{
glyphname = Tbar;
layers = (
{
anchors = (
{
name = btm;
position = "{265, -83}";
},
{
name = top;
position = "{368, 830}";
}
);
layerId = UUID0;
paths = (
{
closed = 1;
nodes = (
"41 525 LINE",
"84 526 LINE",
"125 693 LINE",
"309 701 LINE",
"271 408 LINE",
"141 408 LINE",
"134 357 LINE",
"264 357 LINE",
"225 46 LINE",
"105 37 LINE",
"103 0 LINE",
"417 0 LINE",
"420 37 LINE",
"298 46 LINE",
"338 357 LINE",
"497 357 LINE",
"503 408 LINE",
"345 408 LINE",
"383 701 LINE",
"569 693 LINE",
"561 524 LINE",
"602 525 LINE",
"631 743 LINE",
"76 743 LINE"
);
}
);
width = 598;
},
{
anchors = (
{
name = btm;
position = "{319, -83}";
},
{
name = top;
position = "{422, 830}";
}
);
layerId = "809C3DC2-6073-4494-AA7C-C910FAB1DD5E";
paths = (
{
closed = 1;
nodes = (
"35 458 LINE",
"126 458 LINE",
"207 672 LINE",
"324 685 LINE",
"287 405 LINE",
"176 405 LINE",
"168 332 LINE",
"277 332 LINE",
"242 66 LINE",
"120 52 LINE",
"113 0 LINE",
"547 0 LINE",
"552 52 LINE",
"414 66 LINE",
"449 332 LINE",
"566 332 LINE",
"574 405 LINE",
"458 405 LINE",
"496 685 LINE",
"613 672 LINE",
"622 458 LINE",
"710 458 LINE",
"752 743 LINE",
"83 743 LINE"
);
}
);
width = 708;
}
);
unicode = 0166;
},
{
glyphname = U;
layers = (
{
anchors = (
{
name = bottom;
position = "{299, 0}";
},
{
name = btm;
position = "{280, -83}";
},
{
name = ogonek;
position = "{568, 10}";
},
{
name = top;
position = "{398, 830}";
},
{
name = topright;
position = "{717, 743}";
}
);
layerId = UUID0;
paths = (
{
closed = 1;
nodes = (
"635 695 LINE",
"699 704 LINE",
"703 743 LINE",
"508 743 LINE",
"504 704 LINE",
"570 694 LINE",
"519 306 LINE SMOOTH",
"497 122 OFFCURVE",
"428 34 OFFCURVE",
"303 34 CURVE SMOOTH",
"200 34 OFFCURVE",
"151 99 OFFCURVE",
"149 204 CURVE SMOOTH",
"148 232 OFFCURVE",
"149 261 OFFCURVE",
"154 296 CURVE SMOOTH",
"207 694 LINE",
"282 704 LINE",
"286 743 LINE",
"68 743 LINE",
"64 704 LINE",
"132 695 LINE",
"79 290 LINE SMOOTH",
"75 261 OFFCURVE",
"74 233 OFFCURVE",
"75 208 CURVE SMOOTH",
"77 73 OFFCURVE",
"153 -10 OFFCURVE",
"292 -10 CURVE SMOOTH",
"459 -10 OFFCURVE",
"554 76 OFFCURVE",
"584 306 CURVE SMOOTH"
);
}
);
width = 673;
},
{
anchors = (
{
name = bottom;
position = "{319, 0}";
},
{
name = btm;
position = "{331, -83}";
},
{
name = ogonek;
position = "{604, 10}";
},
{
name = top;
position = "{460, 830}";
},
{
name = topright;
position = "{759, 743}";
}
);
layerId = "809C3DC2-6073-4494-AA7C-C910FAB1DD5E";
paths = (
{
closed = 1;
nodes = (
"701 677 LINE",
"764 690 LINE",
"771 743 LINE",
"544 743 LINE",
"539 690 LINE",
"611 677 LINE",
"561 306 LINE SMOOTH",
"538 143 OFFCURVE",
"492 51 OFFCURVE",
"372 51 CURVE SMOOTH",
"289 51 OFFCURVE",
"245 113 OFFCURVE",
"245 206 CURVE SMOOTH",
"245 229 OFFCURVE",
"249 265 OFFCURVE",
"253 304 CURVE SMOOTH",
"302 677 LINE",
"399 690 LINE",
"404 743 LINE",
"66 743 LINE",
"60 689 LINE",
"130 677 LINE",
"80 290 LINE SMOOTH",
"77 261 OFFCURVE",
"77 234 OFFCURVE",
"77 209 CURVE SMOOTH",
"77 87 OFFCURVE",
"150 -10 OFFCURVE",
"341 -10 CURVE SMOOTH",
"521 -10 OFFCURVE",
"624 76 OFFCURVE",
"653 306 CURVE SMOOTH"
);
}
);
width = 715;
}
);
unicode = 0055;
},
{
glyphname = Uogonek;
layers = (
{
layerId = UUID0;
paths = (
{
closed = 1;
nodes = (
"635 695 LINE",
"699 704 LINE",
"703 743 LINE",
"508 743 LINE",
"504 704 LINE",
"570 694 LINE",
"519 306 LINE",
"497 122 OFFCURVE",
"428 34 OFFCURVE",
"303 34 CURVE SMOOTH",
"200 34 OFFCURVE",
"151 99 OFFCURVE",
"149 204 CURVE SMOOTH",
"148 232 OFFCURVE",
"149 261 OFFCURVE",
"154 296 CURVE",
"207 694 LINE",
"282 704 LINE",
"286 743 LINE",
"68 743 LINE",
"64 704 LINE",
"132 695 LINE",
"79 290 LINE",
"75 261 OFFCURVE",
"74 233 OFFCURVE",
"75 208 CURVE SMOOTH",
"77 73 OFFCURVE",
"153 -10 OFFCURVE",
"292 -10 CURVE SMOOTH",
"301 -10 OFFCURVE",
"310 -9 OFFCURVE",
"318 -9 CURVE",
"287 -27 OFFCURVE",
"253 -48 OFFCURVE",
"228 -85 CURVE SMOOTH",
"217 -99 OFFCURVE",
"211 -121 OFFCURVE",
"210 -140 CURVE SMOOTH",
"209 -169 OFFCURVE",
"229 -203 OFFCURVE",
"281 -203 CURVE SMOOTH",
"338 -203 OFFCURVE",
"378 -180 OFFCURVE",
"403 -157 CURVE",
"393 -120 LINE",
"369 -140 OFFCURVE",
"342 -153 OFFCURVE",
"315 -153 CURVE SMOOTH",
"296 -153 OFFCURVE",
"281 -140 OFFCURVE",
"283 -110 CURVE",
"283 -82 OFFCURVE",
"319 -41 OFFCURVE",
"358 -4 CURVE",
"485 17 OFFCURVE",
"558 108 OFFCURVE",
"584 306 CURVE SMOOTH"
);
}
);
width = 673;
},
{
layerId = "809C3DC2-6073-4494-AA7C-C910FAB1DD5E";
paths = (
{
closed = 1;
nodes = (
"701 677 LINE",
"764 690 LINE",
"771 743 LINE",
"544 743 LINE",
"539 690 LINE",
"611 677 LINE",
"561 306 LINE SMOOTH",
"538 143 OFFCURVE",
"492 51 OFFCURVE",
"372 51 CURVE SMOOTH",
"289 51 OFFCURVE",
"245 113 OFFCURVE",
"245 206 CURVE SMOOTH",
"245 229 OFFCURVE",
"249 265 OFFCURVE",
"253 304 CURVE",
"302 677 LINE",
"399 690 LINE",
"404 743 LINE",
"66 743 LINE",
"60 689 LINE",
"130 677 LINE",
"80 290 LINE",
"77 261 OFFCURVE",
"77 234 OFFCURVE",
"77 209 CURVE SMOOTH",
"77 87 OFFCURVE",
"150 -10 OFFCURVE",
"341 -10 CURVE SMOOTH",
"343 -10 OFFCURVE",
"345 -10 OFFCURVE",
"347 -10 CURVE",
"321 -32 OFFCURVE",
"295 -59 OFFCURVE",
"274 -94 CURVE SMOOTH",
"263 -110 OFFCURVE",
"257 -135 OFFCURVE",
"257 -149 CURVE SMOOTH",
"257 -201 OFFCURVE",
"288 -234 OFFCURVE",
"351 -234 CURVE SMOOTH",
"422 -234 OFFCURVE",
"482 -200 OFFCURVE",
"519 -159 CURVE",
"501 -104 LINE",
"476 -125 OFFCURVE",
"454 -140 OFFCURVE",
"427 -140 CURVE SMOOTH",
"408 -140 OFFCURVE",
"394 -128 OFFCURVE",
"394 -100 CURVE SMOOTH",
"394 -70 OFFCURVE",
"424 -29 OFFCURVE",
"462 7 CURVE",
"568 42 OFFCURVE",
"631 134 OFFCURVE",
"653 306 CURVE SMOOTH"
);
}
);
width = 715;
}
);
unicode = 0172;
},
{
glyphname = V;
layers = (
{
anchors = (
{
name = btm;
position = "{272, -83}";
},
{
name = top;
position = "{382, 830}";
}
);
layerId = UUID0;
paths = (
{
closed = 1;
nodes = (
"30 704 LINE",
"99 694 LINE",
"217 -10 LINE",
"282 -5 LINE",
"600 695 LINE",
"656 704 LINE",
"660 743 LINE",
"467 743 LINE",
"463 704 LINE",
"536 694 LINE",
"327 219 LINE",
"267 65 LINE",
"248 219 LINE",
"176 694 LINE",
"265 704 LINE",
"269 743 LINE",
"34 743 LINE"
);
}
);
width = 590;
},
{
anchors = (
{
name = btm;
position = "{345, -83}";
},
{
name = top;
position = "{465, 830}";
}
);
layerId = "809C3DC2-6073-4494-AA7C-C910FAB1DD5E";
paths = (
{
closed = 1;
nodes = (
"-12 690 LINE",
"56 677 LINE",
"166 -5 LINE",
"313 -5 LINE",
"633 677 LINE",
"708 689 LINE",
"717 743 LINE",
"454 743 LINE",
"449 689 LINE",
"536 677 LINE",
"339 249 LINE",
"298 147 LINE",
"289 249 LINE",
"235 677 LINE",
"314 689 LINE",
"319 743 LINE",
"-5 743 LINE"
);
}
);
width = 608;
}
);
unicode = 0056;
},
{
glyphname = W;
layers = (
{
anchors = (
{
name = btm;
position = "{401, -83}";
},
{
name = top;
position = "{509, 830}";
}
);
layerId = UUID0;
paths = (
{
closed = 1;
nodes = (
"17 704 LINE",
"88 694 LINE",
"187 -5 LINE",
"261 -5 LINE",
"469 520 LINE",
"523 -5 LINE",
"599 -5 LINE",
"901 694 LINE",
"969 704 LINE",
"975 743 LINE",
"769 743 LINE",
"765 704 LINE",
"839 694 LINE",
"629 194 LINE",
"580 66 LINE",
"569 212 LINE",
"521 695 LINE",
"608 704 LINE",
"616 743 LINE",
"383 743 LINE",
"379 704 LINE",
"446 695 LINE",
"454 625 LINE",
"282 183 LINE",
"241 66 LINE",
"221 212 LINE",
"158 696 LINE",
"248 704 LINE",
"251 743 LINE",
"21 743 LINE"
);
}
);
width = 875;
},
{
anchors = (
{
name = btm;
position = "{488, -83}";
},
{
name = top;
position = "{554, 830}";
}
);
layerId = "809C3DC2-6073-4494-AA7C-C910FAB1DD5E";
paths = (
{
closed = 1;
nodes = (
"-11 690 LINE",
"56 676 LINE",
"157 -5 LINE",
"307 -5 LINE",
"497 451 LINE",
"541 -5 LINE",
"692 -5 LINE",
"1011 677 LINE",
"1089 690 LINE",
"1094 743 LINE",
"804 743 LINE",
"799 689 LINE",
"910 676 LINE",
"727 249 LINE",
"685 147 LINE",
"682 249 LINE",
"641 676 LINE",
"714 689 LINE",
"718 743 LINE",
"398 743 LINE",
"393 690 LINE",
"471 676 LINE",
"478 606 LINE",
"329 249 LINE",
"290 147 LINE",
"279 249 LINE",
"233 675 LINE",
"300 689 LINE",
"304 743 LINE",
"-4 743 LINE"
);
}
);
width = 954;
}
);
unicode = 0057;
},
{
glyphname = X;
layers = (
{
anchors = (
{
name = btm;
position = "{270, -83}";
},
{
name = top;
position = "{396, 830}";
}
);
layerId = UUID0;
paths = (
{
closed = 1;
nodes = (
"64 704 LINE",
"138 693 LINE",
"288 376 LINE",
"40 45 LINE",
"-27 34 LINE",
"-31 0 LINE",
"197 0 LINE",
"201 34 LINE",
"113 46 LINE",
"311 327 LINE",
"439 45 LINE",
"352 34 LINE",
"349 0 LINE",
"604 0 LINE",
"606 34 LINE",
"525 46 LINE",
"360 378 LINE",
"597 695 LINE",
"668 704 LINE",
"671 743 LINE",
"445 743 LINE",
"441 704 LINE",
"525 694 LINE",
"337 425 LINE",
"223 695 LINE",
"308 704 LINE",
"312 743 LINE",
"68 743 LINE"
);
}
);
width = 632;
},
{
anchors = (
{
name = btm;
position = "{340, -83}";
},
{
name = top;
position = "{480, 830}";
}
);
layerId = "809C3DC2-6073-4494-AA7C-C910FAB1DD5E";
paths = (
{
closed = 1;
nodes = (
"60 689 LINE",
"118 677 LINE",
"266 362 LINE",
"24 66 LINE",
"-31 52 LINE",
"-37 0 LINE",
"219 0 LINE",
"224 52 LINE",
"150 66 LINE",
"301 285 LINE",
"386 66 LINE",
"315 52 LINE",
"311 0 LINE",
"648 0 LINE",
"653 52 LINE",
"592 66 LINE",
"430 388 LINE",
"661 677 LINE",
"728 689 LINE",
"732 743 LINE",
"478 743 LINE",
"475 689 LINE",
"540 677 LINE",
"394 461 LINE",
"313 677 LINE",
"384 690 LINE",
"388 743 LINE",
"65 743 LINE"
);
}
);
width = 674;
}
);
unicode = 0058;
},
{
glyphname = Y;
layers = (
{
anchors = (
{
name = bottom;
position = "{249, 0}";
},
{
name = btm;
position = "{256, -83}";
},
{
name = top;
position = "{366, 830}";
},
{
name = topleft;
position = "{84, 743}";
}
);
layerId = UUID0;
paths = (
{
closed = 1;
nodes = (
"29 704 LINE",
"86 694 LINE",
"266 286 LINE",
"235 46 LINE",
"121 34 LINE",
"118 0 LINE",
"409 0 LINE",
"413 34 LINE",
"305 46 LINE",
"336 286 LINE",
"595 695 LINE",
"649 704 LINE",
"653 743 LINE",
"458 743 LINE",
"453 704 LINE",
"530 694 LINE",
"351 401 LINE",
"312 334 LINE",
"289 401 LINE",
"169 694 LINE",
"260 704 LINE",
"265 743 LINE",
"32 743 LINE"
);
}
);
width = 573;
},
{
anchors = (
{
name = bottom;
position = "{279, 0}";
},
{
name = btm;
position = "{274, -83}";
},
{
name = top;
position = "{405, 830}";
},
{
name = topleft;
position = "{84, 743}";
}
);
layerId = "809C3DC2-6073-4494-AA7C-C910FAB1DD5E";
paths = (
{
closed = 1;
nodes = (
"10 689 LINE",
"74 677 LINE",
"236 295 LINE",
"208 66 LINE",
"95 52 LINE",
"89 0 LINE",
"494 0 LINE",
"499 52 LINE",
"379 66 LINE",
"409 295 LINE",
"660 677 LINE",
"724 689 LINE",
"731 743 LINE",
"471 743 LINE",
"466 689 LINE",
"546 677 LINE",
"400 430 LINE",
"370 371 LINE",
"347 443 LINE",
"268 677 LINE",
"352 689 LINE",
"360 743 LINE",
"16 743 LINE"
);
}
);
width = 635;
}
);
unicode = 0059;
},
{
glyphname = Z;
layers = (
{
anchors = (
{
name = btm;
position = "{265, -83}";
},
{
name = top;
position = "{356, 830}";
}
);
layerId = UUID0;
paths = (
{
closed = 1;
nodes = (
"92 575 LINE",
"137 566 LINE",
"178 695 LINE",
"502 698 LINE",
"415 594 LINE",
"3 36 LINE",
"13 0 LINE",
"506 0 LINE",
"551 172 LINE",
"506 185 LINE",
"449 52 LINE",
"93 42 LINE",
"164 134 LINE",
"587 709 LINE",
"578 743 LINE",
"120 743 LINE"
);
}
);
width = 584;
},
{
anchors = (
{
name = btm;
position = "{289, -83}";
},
{
name = top;
position = "{374, 830}";
}
);
layerId = "809C3DC2-6073-4494-AA7C-C910FAB1DD5E";
paths = (
{
closed = 1;
nodes = (
"83 551 LINE",
"168 540 LINE",
"238 672 LINE",
"454 681 LINE",
"394 633 LINE",
"-27 43 LINE",
"-10 0 LINE",
"536 0 LINE",
"585 212 LINE",
"500 236 LINE",
"404 78 LINE",
"167 67 LINE",
"222 115 LINE",
"637 701 LINE",
"622 743 LINE",
"114 743 LINE"
);
}
);
width = 599;
}
);
unicode = 005A;
},
{
glyphname = a;
layers = (
{
anchors = (
{
name = bottom;
position = "{249, 0}";
},
{
name = caron;
position = "{524, 811}";
},
{
name = ogonek;
position = "{463, 10}";
},
{
name = top;
position = "{355, 613}";
}
);
layerId = UUID0;
paths = (
{
closed = 1;
nodes = (
"507 567 LINE",
"453 551 LINE",
"425 560 OFFCURVE",
"384 568 OFFCURVE",
"355 568 CURVE SMOOTH",
"156 568 OFFCURVE",
"43 352 OFFCURVE",
"43 201 CURVE SMOOTH",
"43 79 OFFCURVE",
"88 -10 OFFCURVE",
"198 -10 CURVE SMOOTH",
"270 -10 OFFCURVE",
"335 49 OFFCURVE",
"373 100 CURVE",
"367 57 LINE",
"364 8 OFFCURVE",
"387 -10 OFFCURVE",
"423 -10 CURVE SMOOTH",
"473 -10 OFFCURVE",
"513 38 OFFCURVE",
"519 49 CURVE",
"505 70 LINE",
"487 53 OFFCURVE",
"475 42 OFFCURVE",
"461 42 CURVE SMOOTH",
"452 42 OFFCURVE",
"437 51 OFFCURVE",
"442 84 CURVE SMOOTH"
);
},
{
closed = 1;
nodes = (
"382 166 LINE",
"350 119 OFFCURVE",
"281 46 OFFCURVE",
"211 46 CURVE SMOOTH",
"146 46 OFFCURVE",
"119 110 OFFCURVE",
"119 210 CURVE SMOOTH",
"119 343 OFFCURVE",
"197 520 OFFCURVE",
"344 520 CURVE SMOOTH",
"373 520 OFFCURVE",
"403 513 OFFCURVE",
"425 497 CURVE"
);
}
);
width = 573;
},
{
anchors = (
{
name = bottom;
position = "{258, 0}";
},
{
name = caron;
position = "{578, 811}";
},
{
name = ogonek;
position = "{477, 10}";
},
{
name = top;
position = "{373, 613}";
}
);
hints = (
{
place = "{247.715, 0}";
}
);
layerId = "809C3DC2-6073-4494-AA7C-C910FAB1DD5E";
paths = (
{
closed = 1;
nodes = (
"555 568 LINE",
"480 547 LINE",
"451 557 OFFCURVE",
"403 568 OFFCURVE",
"364 568 CURVE SMOOTH",
"143 568 OFFCURVE",
"29 386 OFFCURVE",
"29 196 CURVE SMOOTH",
"29 84 OFFCURVE",
"80 -10 OFFCURVE",
"202 -10 CURVE SMOOTH",
"270 -10 OFFCURVE",
"319 20 OFFCURVE",
"350 53 CURVE",
"350 48 LINE",
"354 10 OFFCURVE",
"386 -10 OFFCURVE",
"433 -10 CURVE SMOOTH",
"510 -10 OFFCURVE",
"558 43 OFFCURVE",
"570 61 CURVE",
"556 96 LINE",
"533 78 OFFCURVE",
"520 74 OFFCURVE",
"511 74 CURVE SMOOTH",
"496 74 OFFCURVE",
"489 84 OFFCURVE",
"492 111 CURVE SMOOTH"
);
},
{
closed = 1;
nodes = (
"332 102 LINE",
"314 86 OFFCURVE",
"293 75 OFFCURVE",
"271 75 CURVE SMOOTH",
"226 75 OFFCURVE",
"198 122 OFFCURVE",
"198 202 CURVE SMOOTH",
"198 332 OFFCURVE",
"234 500 OFFCURVE",
"353 500 CURVE SMOOTH",
"364 500 OFFCURVE",
"375 499 OFFCURVE",
"386 497 CURVE"
);
}
);
width = 593;
}
);
unicode = 0061;
},
{
glyphname = ae;
layers = (
{
anchors = (
{
name = top;
position = "{451, 613}";
}
);
layerId = UUID0;
paths = (
{
closed = 1;
nodes = (
"511 567 LINE",
"455 550 LINE",
"427 559 OFFCURVE",
"390 567 OFFCURVE",
"356 567 CURVE SMOOTH",
"157 567 OFFCURVE",
"43 351 OFFCURVE",
"43 200 CURVE SMOOTH",
"43 71 OFFCURVE",
"89 -10 OFFCURVE",
"190 -10 CURVE SMOOTH",
"278 -10 OFFCURVE",
"352 80 OFFCURVE",
"388 155 CURVE",
"400 57 OFFCURVE",
"454 -10 OFFCURVE",
"566 -10 CURVE SMOOTH",
"665 -10 OFFCURVE",
"748 52 OFFCURVE",
"776 91 CURVE",
"758 124 LINE",
"700 68 OFFCURVE",
"630 45 OFFCURVE",
"575 45 CURVE SMOOTH",
"474 45 OFFCURVE",
"457 138 OFFCURVE",
"462 228 CURVE",
"560 230 OFFCURVE",
"802 291 OFFCURVE",
"802 444 CURVE SMOOTH",
"802 513 OFFCURVE",
"759 570 OFFCURVE",
"666 567 CURVE SMOOTH",
"603 565 OFFCURVE",
"544 535 OFFCURVE",
"497 487 CURVE"
);
},
{
closed = 1;
nodes = (
"385 207 LINE",
"359 154 OFFCURVE",
"286 46 OFFCURVE",
"203 46 CURVE SMOOTH",
"150 46 OFFCURVE",
"119 96 OFFCURVE",
"119 209 CURVE SMOOTH",
"119 341 OFFCURVE",
"197 520 OFFCURVE",
"345 520 CURVE SMOOTH",
"378 520 OFFCURVE",
"410 512 OFFCURVE",
"432 493 CURVE"
);
},
{
closed = 1;
nodes = (
"699 522 OFFCURVE",
"726 494 OFFCURVE",
"726 439 CURVE SMOOTH",
"726 335 OFFCURVE",
"573 275 OFFCURVE",
"464 272 CURVE",
"475 376 OFFCURVE",
"542 522 OFFCURVE",
"649 522 CURVE SMOOTH"
);
}
);
width = 848;
},
{
anchors = (
{
name = top;
position = "{473, 613}";
}
);
layerId = "809C3DC2-6073-4494-AA7C-C910FAB1DD5E";
paths = (
{
closed = 1;
nodes = (
"541 568 LINE",
"497 553 LINE",
"467 561 OFFCURVE",
"429 568 OFFCURVE",
"398 568 CURVE SMOOTH",
"164 568 OFFCURVE",
"29 381 OFFCURVE",
"29 191 CURVE SMOOTH",
"29 89 OFFCURVE",
"60 -10 OFFCURVE",
"182 -10 CURVE SMOOTH",
"265 -10 OFFCURVE",
"332 62 OFFCURVE",
"371 120 CURVE",
"395 47 OFFCURVE",
"454 -10 OFFCURVE",
"567 -10 CURVE SMOOTH",
"692 -10 OFFCURVE",
"770 61 OFFCURVE",
"796 104 CURVE",
"765 154 LINE",
"739 120 OFFCURVE",
"697 78 OFFCURVE",
"620 78 CURVE SMOOTH",
"563 78 OFFCURVE",
"528 121 OFFCURVE",
"528 222 CURVE",
"651 225 OFFCURVE",
"835 285 OFFCURVE",
"831 446 CURVE",
"828 515 OFFCURVE",
"781 568 OFFCURVE",
"670 568 CURVE SMOOTH",
"622 568 OFFCURVE",
"577 557 OFFCURVE",
"537 537 CURVE"
);
},
{
closed = 1;
nodes = (
"340 164 LINE",
"312 125 OFFCURVE",
"275 88 OFFCURVE",
"241 88 CURVE SMOOTH",
"207 88 OFFCURVE",
"198 151 OFFCURVE",
"198 202 CURVE SMOOTH",
"198 326 OFFCURVE",
"255 485 OFFCURVE",
"376 499 CURVE SMOOTH",
"381 500 OFFCURVE",
"386 500 OFFCURVE",
"391 500 CURVE"
);
},
{
closed = 1;
nodes = (
"660 500 OFFCURVE",
"672 477 OFFCURVE",
"674 433 CURVE",
"677 336 OFFCURVE",
"585 284 OFFCURVE",
"528 281 CURVE",
"534 372 OFFCURVE",
"559 500 OFFCURVE",
"634 500 CURVE SMOOTH"
);
}
);
width = 851;
}
);
unicode = 00E6;
},
{
glyphname = b;
layers = (
{
anchors = (
{
name = top;
position = "{415, 613}";
}
);
layerId = UUID0;
paths = (
{
closed = 1;
nodes = (
"244 794 LINE",
"224 806 LINE",
"124 790 LINE",
"116 757 LINE",
"163 740 LINE",
"64 -2 LINE",
"102 16 LINE",
"129 3 OFFCURVE",
"180 -10 OFFCURVE",
"222 -10 CURVE SMOOTH",
"419 -10 OFFCURVE",
"531 206 OFFCURVE",
"531 356 CURVE SMOOTH",
"531 479 OFFCURVE",
"478 568 OFFCURVE",
"365 568 CURVE SMOOTH",
"292 568 OFFCURVE",
"232 520 OFFCURVE",
"201 475 CURVE"
);
},
{
closed = 1;
nodes = (
"191 407 LINE",
"216 449 OFFCURVE",
"280 512 OFFCURVE",
"353 512 CURVE SMOOTH",
"418 512 OFFCURVE",
"455 452 OFFCURVE",
"455 351 CURVE SMOOTH",
"455 225 OFFCURVE",
"383 38 OFFCURVE",
"233 38 CURVE SMOOTH",
"201 38 OFFCURVE",
"168 44 OFFCURVE",
"145 63 CURVE"
);
}
);
width = 574;
},
{
anchors = (
{
name = top;
position = "{423, 613}";
}
);
layerId = "809C3DC2-6073-4494-AA7C-C910FAB1DD5E";
paths = (
{
closed = 1;
nodes = (
"286 792 LINE",
"260 806 LINE",
"83 787 LINE",
"73 746 LINE",
"124 725 LINE",
"32 -10 LINE",
"104 11 LINE",
"135 1 OFFCURVE",
"182 -10 OFFCURVE",
"222 -10 CURVE SMOOTH",
"428 -10 OFFCURVE",
"555 151 OFFCURVE",
"555 356 CURVE SMOOTH",
"555 491 OFFCURVE",
"500 568 OFFCURVE",
"387 568 CURVE SMOOTH",
"328 568 OFFCURVE",
"282 544 OFFCURVE",
"250 517 CURVE"
);
},
{
closed = 1;
nodes = (
"240 439 LINE",
"260 463 OFFCURVE",
"286 482 OFFCURVE",
"318 482 CURVE SMOOTH",
"367 482 OFFCURVE",
"389 423 OFFCURVE",
"389 356 CURVE SMOOTH",
"389 208 OFFCURVE",
"347 58 OFFCURVE",
"235 58 CURVE SMOOTH",
"218 58 OFFCURVE",
"204 59 OFFCURVE",
"191 63 CURVE"
);
}
);
width = 587;
}
);
unicode = 0062;
},
{
glyphname = c;
layers = (
{
anchors = (
{
name = btm;
position = "{217, -83}";
},
{
name = top;
position = "{319, 613}";
}
);
layerId = UUID0;
paths = (
{
closed = 1;
nodes = (
"408 469 LINE",
"430 544 LINE",
"402 559 OFFCURVE",
"357 568 OFFCURVE",
"322 568 CURVE SMOOTH",
"137 568 OFFCURVE",
"37 361 OFFCURVE",
"37 210 CURVE SMOOTH",
"37 74 OFFCURVE",
"102 -10 OFFCURVE",
"213 -10 CURVE SMOOTH",
"306 -10 OFFCURVE",
"366 46 OFFCURVE",
"390 74 CURVE",
"375 106 LINE",
"329 70 OFFCURVE",
"292 45 OFFCURVE",
"233 45 CURVE SMOOTH",
"160 45 OFFCURVE",
"115 104 OFFCURVE",
"115 221 CURVE SMOOTH",
"115 392 OFFCURVE",
"188 510 OFFCURVE",
"305 510 CURVE SMOOTH",
"336 510 OFFCURVE",
"371 496 OFFCURVE",
"398 477 CURVE"
);
}
);
width = 435;
},
{
anchors = (
{
name = btm;
position = "{233, -83}";
},
{
name = top;
position = "{332, 613}";
}
);
layerId = "809C3DC2-6073-4494-AA7C-C910FAB1DD5E";
paths = (
{
closed = 1;
nodes = (
"429 392 LINE",
"469 549 LINE",
"437 562 OFFCURVE",
"384 568 OFFCURVE",
"344 568 CURVE SMOOTH",
"128 568 OFFCURVE",
"26 385 OFFCURVE",
"29 220 CURVE SMOOTH",
"31 68 OFFCURVE",
"104 -10 OFFCURVE",
"218 -10 CURVE SMOOTH",
"334 -10 OFFCURVE",
"409 52 OFFCURVE",
"436 95 CURVE",
"405 145 LINE",
"379 111 OFFCURVE",
"344 83 OFFCURVE",
"281 83 CURVE SMOOTH",
"224 83 OFFCURVE",
"198 122 OFFCURVE",
"195 225 CURVE SMOOTH",
"191 382 OFFCURVE",
"256 491 OFFCURVE",
"309 491 CURVE SMOOTH",
"331 491 OFFCURVE",
"371 427 OFFCURVE",
"393 392 CURVE"
);
}
);
width = 469;
}
);
unicode = 0063;
},
{
glyphname = d;
layers = (
{
anchors = (
{
name = caron;
position = "{520, 811}";
},
{
name = top;
position = "{231, 613}";
}
);
layerId = UUID0;
paths = (
{
closed = 1;
nodes = (
"548 794 LINE",
"527 806 LINE",
"413 789 LINE",
"405 756 LINE",
"468 740 LINE",
"439 554 LINE",
"413 562 OFFCURVE",
"381 568 OFFCURVE",
"354 568 CURVE SMOOTH",
"154 568 OFFCURVE",
"41 352 OFFCURVE",
"41 201 CURVE SMOOTH",
"41 79 OFFCURVE",
"93 -10 OFFCURVE",
"203 -10 CURVE SMOOTH",
"275 -10 OFFCURVE",
"334 35 OFFCURVE",
"367 78 CURVE",
"367 50 LINE",
"365 7 OFFCURVE",
"384 -10 OFFCURVE",
"416 -10 CURVE SMOOTH",
"466 -10 OFFCURVE",
"506 35 OFFCURVE",
"514 47 CURVE",
"501 68 LINE",
"482 51 OFFCURVE",
"468 42 OFFCURVE",
"454 42 CURVE SMOOTH",
"445 42 OFFCURVE",
"439 53 OFFCURVE",
"442 77 CURVE"
);
},
{
closed = 1;
nodes = (
"377 146 LINE",
"350 104 OFFCURVE",
"287 46 OFFCURVE",
"215 46 CURVE SMOOTH",
"152 46 OFFCURVE",
"117 106 OFFCURVE",
"117 207 CURVE SMOOTH",
"117 333 OFFCURVE",
"190 520 OFFCURVE",
"342 520 CURVE SMOOTH",
"373 520 OFFCURVE",
"407 513 OFFCURVE",
"430 493 CURVE"
);
}
);
width = 574;
},
{
anchors = (
{
name = caron;
position = "{571, 811}";
},
{
name = top;
position = "{216, 613}";
}
);
layerId = "809C3DC2-6073-4494-AA7C-C910FAB1DD5E";
paths = (
{
closed = 1;
nodes = (
"604 792 LINE",
"577 806 LINE",
"366 785 LINE",
"357 745 LINE",
"433 724 LINE",
"410 563 LINE",
"393 566 OFFCURVE",
"375 568 OFFCURVE",
"360 568 CURVE SMOOTH",
"134 568 OFFCURVE",
"29 386 OFFCURVE",
"29 196 CURVE SMOOTH",
"29 84 OFFCURVE",
"75 -10 OFFCURVE",
"197 -10 CURVE SMOOTH",
"279 -10 OFFCURVE",
"332 34 OFFCURVE",
"359 72 CURVE",
"360 63 LINE",
"366 16 OFFCURVE",
"390 -10 OFFCURVE",
"445 -10 CURVE SMOOTH",
"525 -10 OFFCURVE",
"570 47 OFFCURVE",
"582 61 CURVE",
"568 96 LINE",
"544 78 OFFCURVE",
"532 74 OFFCURVE",
"523 74 CURVE SMOOTH",
"507 74 OFFCURVE",
"502 88 OFFCURVE",
"506 112 CURVE SMOOTH"
);
},
{
closed = 1;
nodes = (
"345 125 LINE",
"327 99 OFFCURVE",
"299 75 OFFCURVE",
"266 75 CURVE SMOOTH",
"222 75 OFFCURVE",
"196 122 OFFCURVE",
"196 202 CURVE SMOOTH",
"196 332 OFFCURVE",
"229 500 OFFCURVE",
"348 500 CURVE SMOOTH",
"367 500 OFFCURVE",
"384 497 OFFCURVE",
"399 492 CURVE"
);
}
);
width = 613;
}
);
unicode = 0064;
},
{
glyphname = eth;
layers = (
{
layerId = UUID0;
paths = (
{
closed = 1;
nodes = (
"198 659 LINE",
"236 624 LINE",
"315 713 LINE",
"392 647 OFFCURVE",
"419 603 OFFCURVE",
"443 486 CURVE",
"419 524 OFFCURVE",
"365 542 OFFCURVE",
"312 542 CURVE SMOOTH",
"176 542 OFFCURVE",
"42 415 OFFCURVE",
"42 206 CURVE SMOOTH",
"42 101 OFFCURVE",
"105 -10 OFFCURVE",
"234 -10 CURVE SMOOTH",
"420 -10 OFFCURVE",
"519 177 OFFCURVE",
"519 401 CURVE SMOOTH",
"519 553 OFFCURVE",
"468 659 OFFCURVE",
"354 756 CURVE",
"427 839 LINE",
"390 875 LINE",
"390 875 OFFCURVE",
"342 816 OFFCURVE",
"313 783 CURVE",
"270 810 OFFCURVE",
"218 834 OFFCURVE",
"184 842 CURVE",
"167 795 LINE",
"199 788 OFFCURVE",
"239 767 OFFCURVE",
"275 742 CURVE"
);
},
{
closed = 1;
nodes = (
"401 498 OFFCURVE",
"435 413 OFFCURVE",
"438 382 CURVE SMOOTH",
"440 362 OFFCURVE",
"437 312 OFFCURVE",
"432 276 CURVE SMOOTH",
"412 141 OFFCURVE",
"340 33 OFFCURVE",
"243 33 CURVE SMOOTH",
"163 33 OFFCURVE",
"121 111 OFFCURVE",
"121 201 CURVE SMOOTH",
"121 347 OFFCURVE",
"190 498 OFFCURVE",
"311 498 CURVE SMOOTH"
);
}
);
width = 564;
},
{
layerId = "809C3DC2-6073-4494-AA7C-C910FAB1DD5E";
paths = (
{
closed = 1;
nodes = (
"208 656 LINE",
"265 608 LINE",
"330 683 LINE",
"372 626 OFFCURVE",
"390 565 OFFCURVE",
"389 528 CURVE",
"369 539 OFFCURVE",
"346 542 OFFCURVE",
"301 542 CURVE SMOOTH",
"145 542 OFFCURVE",
"29 423 OFFCURVE",
"29 226 CURVE SMOOTH",
"29 116 OFFCURVE",
"97 -10 OFFCURVE",
"242 -10 CURVE SMOOTH",
"440 -10 OFFCURVE",
"556 159 OFFCURVE",
"556 392 CURVE SMOOTH",
"556 522 OFFCURVE",
"508 662 OFFCURVE",
"404 762 CURVE",
"475 844 LINE",
"419 893 LINE",
"419 893 OFFCURVE",
"381 845 OFFCURVE",
"349 807 CURVE",
"299 841 OFFCURVE",
"245 865 OFFCURVE",
"206 876 CURVE",
"179 798 LINE",
"210 789 OFFCURVE",
"247 763 OFFCURVE",
"280 734 CURVE"
);
},
{
closed = 1;
nodes = (
"382 476 OFFCURVE",
"392 389 OFFCURVE",
"391 355 CURVE SMOOTH",
"390 335 OFFCURVE",
"382 276 OFFCURVE",
"381 269 CURVE SMOOTH",
"369 150 OFFCURVE",
"321 52 OFFCURVE",
"256 52 CURVE SMOOTH",
"208 52 OFFCURVE",
"194 120 OFFCURVE",
"194 195 CURVE SMOOTH",
"194 309 OFFCURVE",
"226 476 OFFCURVE",
"306 476 CURVE SMOOTH"
);
}
);
width = 583;
}
);
unicode = 00F0;
},
{
glyphname = dcroat;
layers = (
{
background = {
components = (
{
name = d;
}
);
};
components = (
{
name = d;
}
);
layerId = UUID0;
paths = (
{
closed = 1;
nodes = (
"310 628 LINE",
"594 628 LINE",
"601 680 LINE",
"317 680 LINE"
);
}
);
width = 574;
},
{
background = {
components = (
{
name = d;
}
);
};
components = (
{
name = d;
}
);
layerId = "809C3DC2-6073-4494-AA7C-C910FAB1DD5E";
paths = (
{
closed = 1;
nodes = (
"279 616 LINE",
"642 616 LINE",
"649 680 LINE",
"287 680 LINE"
);
}
);
width = 613;
}
);
unicode = 0111;
},
{
glyphname = e;
layers = (
{
anchors = (
{
name = bottom;
position = "{219, 0}";
},
{
name = btm;
position = "{378, 31}";
},
{
name = ogonek;
position = "{315, 10}";
},
{
name = top;
position = "{317, 613}";
}
);
layerId = UUID0;
paths = (
{
closed = 1;
nodes = (
"422 124 LINE",
"366 68 OFFCURVE",
"299 45 OFFCURVE",
"246 45 CURVE SMOOTH",
"143 45 OFFCURVE",
"116 152 OFFCURVE",
"123 228 CURVE",
"220 230 OFFCURVE",
"467 292 OFFCURVE",
"467 446 CURVE SMOOTH",
"467 515 OFFCURVE",
"423 568 OFFCURVE",
"330 568 CURVE SMOOTH",
"170 568 OFFCURVE",
"50 398 OFFCURVE",
"45 213 CURVE SMOOTH",
"42 103 OFFCURVE",
"96 -10 OFFCURVE",
"237 -10 CURVE SMOOTH",
"332 -10 OFFCURVE",
"412 52 OFFCURVE",
"440 91 CURVE"
);
},
{
closed = 1;
nodes = (
"361 522 OFFCURVE",
"392 494 OFFCURVE",
"392 439 CURVE SMOOTH",
"392 335 OFFCURVE",
"235 275 OFFCURVE",
"125 272 CURVE",
"135 376 OFFCURVE",
"203 522 OFFCURVE",
"313 522 CURVE SMOOTH"
);
}
);
width = 513;
},
{
anchors = (
{
name = bottom;
position = "{225, 0}";
},
{
name = btm;
position = "{410, 31}";
},
{
name = ogonek;
position = "{332, 10}";
},
{
name = top;
position = "{344, 613}";
}
);
layerId = "809C3DC2-6073-4494-AA7C-C910FAB1DD5E";
paths = (
{
closed = 1;
nodes = (
"442 154 LINE",
"416 120 OFFCURVE",
"374 73 OFFCURVE",
"296 73 CURVE SMOOTH",
"240 73 OFFCURVE",
"205 121 OFFCURVE",
"205 222 CURVE",
"328 225 OFFCURVE",
"512 285 OFFCURVE",
"507 446 CURVE SMOOTH",
"504 515 OFFCURVE",
"458 569 OFFCURVE",
"347 569 CURVE SMOOTH",
"167 569 OFFCURVE",
"29 418 OFFCURVE",
"30 210 CURVE SMOOTH",
"30 99 OFFCURVE",
"87 -14 OFFCURVE",
"244 -14 CURVE SMOOTH",
"369 -14 OFFCURVE",
"446 61 OFFCURVE",
"473 104 CURVE"
);
},
{
closed = 1;
nodes = (
"336 500 OFFCURVE",
"349 477 OFFCURVE",
"351 433 CURVE SMOOTH",
"354 336 OFFCURVE",
"262 284 OFFCURVE",
"205 281 CURVE",
"210 372 OFFCURVE",
"235 500 OFFCURVE",
"311 500 CURVE SMOOTH"
);
}
);
width = 527;
}
);
unicode = 0065;
},
{
glyphname = f;
layers = (
{
anchors = (
{
name = top;
position = "{218, 758}";
}
);
layerId = UUID0;
paths = (
{
closed = 1;
nodes = (
"152 562 LINE",
"81 538 LINE",
"74 508 LINE",
"143 508 LINE",
"71 -62 LINE",
"61 -139 OFFCURVE",
"43 -194 OFFCURVE",
"-2 -194 CURVE SMOOTH",
"-29 -195 OFFCURVE",
"-75 -181 OFFCURVE",
"-81 -178 CURVE",
"-101 -244 LINE",
"-87 -248 OFFCURVE",
"-53 -251 OFFCURVE",
"-21 -250 CURVE SMOOTH",
"72 -250 OFFCURVE",
"132 -165 OFFCURVE",
"148 -36 CURVE SMOOTH",
"218 508 LINE",
"348 508 LINE",
"354 564 LINE",
"225 564 LINE",
"231 617 LINE SMOOTH",
"242 701 OFFCURVE",
"280 758 OFFCURVE",
"338 758 CURVE SMOOTH",
"374 759 OFFCURVE",
"396 746 OFFCURVE",
"409 737 CURVE",
"431 803 LINE",
"406 813 OFFCURVE",
"380 815 OFFCURVE",
"354 815 CURVE SMOOTH",
"264 815 OFFCURVE",
"177 723 OFFCURVE",
"159 610 CURVE SMOOTH"
);
}
);
width = 342;
},
{
anchors = (
{
name = top;
position = "{222, 766}";
}
);
layerId = "809C3DC2-6073-4494-AA7C-C910FAB1DD5E";
paths = (
{
closed = 1;
nodes = (
"125 562 LINE",
"59 531 LINE",
"49 480 LINE",
"110 480 LINE",
"43 -76 LINE",
"34 -143 OFFCURVE",
"13 -170 OFFCURVE",
"-19 -170 CURVE SMOOTH",
"-42 -170 OFFCURVE",
"-88 -149 OFFCURVE",
"-95 -146 CURVE",
"-124 -239 LINE",
"-107 -243 OFFCURVE",
"-66 -250 OFFCURVE",
"-31 -250 CURVE SMOOTH",
"123 -250 OFFCURVE",
"199 -82 OFFCURVE",
"218 77 CURVE SMOOTH",
"266 480 LINE",
"363 480 LINE",
"378 564 LINE",
"278 564 LINE",
"289 637 LINE SMOOTH",
"298 698 OFFCURVE",
"302 739 OFFCURVE",
"353 739 CURVE SMOOTH",
"385 739 OFFCURVE",
"406 725 OFFCURVE",
"418 716 CURVE",
"449 803 LINE",
"422 813 OFFCURVE",
"389 815 OFFCURVE",
"362 815 CURVE SMOOTH",
"231 815 OFFCURVE",
"152 721 OFFCURVE",
"132 600 CURVE SMOOTH"
);
}
);
width = 336;
}
);
unicode = 0066;
},
{
glyphname = g;
layers = (
{
anchors = (
{
name = top;
position = "{351, 613}";
}
);
layerId = UUID0;
paths = (
{
closed = 1;
nodes = (
"515 568 LINE",
"459 547 LINE",
"432 558 OFFCURVE",
"392 568 OFFCURVE",
"354 568 CURVE SMOOTH",
"154 568 OFFCURVE",
"41 352 OFFCURVE",
"41 201 CURVE SMOOTH",
"41 79 OFFCURVE",
"93 -10 OFFCURVE",
"203 -10 CURVE SMOOTH",
"275 -10 OFFCURVE",
"333 35 OFFCURVE",
"367 78 CURVE",
"345 -64 LINE SMOOTH",
"331 -157 OFFCURVE",
"289 -186 OFFCURVE",
"199 -186 CURVE SMOOTH",
"149 -186 OFFCURVE",
"102 -171 OFFCURVE",
"75 -159 CURVE",
"56 -231 LINE",
"76 -239 OFFCURVE",
"120 -248 OFFCURVE",
"163 -248 CURVE SMOOTH",
"259 -248 OFFCURVE",
"399 -192 OFFCURVE",
"421 -38 CURVE"
);
},
{
closed = 1;
nodes = (
"377 146 LINE",
"350 104 OFFCURVE",
"287 46 OFFCURVE",
"215 46 CURVE SMOOTH",
"152 46 OFFCURVE",
"117 106 OFFCURVE",
"117 207 CURVE SMOOTH",
"117 333 OFFCURVE",
"190 520 OFFCURVE",
"342 520 CURVE SMOOTH",
"373 520 OFFCURVE",
"406 513 OFFCURVE",
"429 494 CURVE"
);
}
);
width = 561;
},
{
anchors = (
{
name = top;
position = "{391, 613}";
}
);
layerId = "809C3DC2-6073-4494-AA7C-C910FAB1DD5E";
paths = (
{
closed = 1;
nodes = (
"564 568 LINE",
"485 545 LINE",
"456 556 OFFCURVE",
"405 568 OFFCURVE",
"364 568 CURVE SMOOTH",
"143 568 OFFCURVE",
"29 386 OFFCURVE",
"29 196 CURVE SMOOTH",
"29 84 OFFCURVE",
"80 -10 OFFCURVE",
"202 -10 CURVE SMOOTH",
"258 -10 OFFCURVE",
"301 11 OFFCURVE",
"332 36 CURVE",
"320 -71 LINE SMOOTH",
"310 -157 OFFCURVE",
"278 -175 OFFCURVE",
"212 -175 CURVE SMOOTH",
"154 -175 OFFCURVE",
"84 -135 OFFCURVE",
"75 -126 CURVE",
"50 -231 LINE",
"69 -240 OFFCURVE",
"133 -253 OFFCURVE",
"181 -253 CURVE SMOOTH",
"312 -253 OFFCURVE",
"461 -209 OFFCURVE",
"483 -38 CURVE"
);
},
{
closed = 1;
nodes = (
"341 111 LINE",
"322 91 OFFCURVE",
"297 75 OFFCURVE",
"271 75 CURVE SMOOTH",
"226 75 OFFCURVE",
"198 122 OFFCURVE",
"198 202 CURVE SMOOTH",
"198 332 OFFCURVE",
"234 500 OFFCURVE",
"353 500 CURVE SMOOTH",
"369 500 OFFCURVE",
"384 498 OFFCURVE",
"397 494 CURVE"
);
}
);
width = 595;
}
);
unicode = 0067;
},
{
glyphname = gcommaaccent;
layers = (
{
layerId = UUID0;
paths = (
{
closed = 1;
nodes = (
"515 568 LINE",
"459 547 LINE",
"432 558 OFFCURVE",
"392 568 OFFCURVE",
"354 568 CURVE SMOOTH",
"154 568 OFFCURVE",
"41 352 OFFCURVE",
"41 201 CURVE SMOOTH",
"41 79 OFFCURVE",
"93 -10 OFFCURVE",
"203 -10 CURVE SMOOTH",
"275 -10 OFFCURVE",
"333 35 OFFCURVE",
"367 78 CURVE",
"345 -64 LINE SMOOTH",
"331 -157 OFFCURVE",
"289 -186 OFFCURVE",
"199 -186 CURVE SMOOTH",
"149 -186 OFFCURVE",
"102 -171 OFFCURVE",
"75 -159 CURVE",
"56 -231 LINE",
"76 -239 OFFCURVE",
"120 -248 OFFCURVE",
"163 -248 CURVE SMOOTH",
"259 -248 OFFCURVE",
"399 -192 OFFCURVE",
"421 -38 CURVE"
);
},
{
closed = 1;
nodes = (
"377 146 LINE",
"350 104 OFFCURVE",
"287 46 OFFCURVE",
"215 46 CURVE SMOOTH",
"152 46 OFFCURVE",
"117 106 OFFCURVE",
"117 207 CURVE SMOOTH",
"117 333 OFFCURVE",
"190 520 OFFCURVE",
"342 520 CURVE SMOOTH",
"373 520 OFFCURVE",
"406 513 OFFCURVE",
"429 494 CURVE"
);
},
{
closed = 1;
nodes = (
"411 865 LINE",
"396 882 LINE",
"357 873 OFFCURVE",
"291 816 OFFCURVE",
"283 743 CURVE SMOOTH",
"278 693 OFFCURVE",
"303 643 OFFCURVE",
"347 633 CURVE",
"393 680 LINE",
"396 701 LINE",
"369 707 OFFCURVE",
"350 740 OFFCURVE",
"354 768 CURVE SMOOTH",
"358 811 OFFCURVE",
"382 838 OFFCURVE",
"410 855 CURVE"
);
}
);
width = 561;
},
{
layerId = "809C3DC2-6073-4494-AA7C-C910FAB1DD5E";
paths = (
{
closed = 1;
nodes = (
"565 568 LINE",
"486 545 LINE",
"457 556 OFFCURVE",
"406 568 OFFCURVE",
"365 568 CURVE SMOOTH",
"144 568 OFFCURVE",
"30 386 OFFCURVE",
"30 196 CURVE SMOOTH",
"30 84 OFFCURVE",
"81 -10 OFFCURVE",
"203 -10 CURVE SMOOTH",
"259 -10 OFFCURVE",
"302 11 OFFCURVE",
"333 36 CURVE",
"321 -71 LINE SMOOTH",
"311 -157 OFFCURVE",
"279 -175 OFFCURVE",
"213 -175 CURVE SMOOTH",
"155 -175 OFFCURVE",
"85 -135 OFFCURVE",
"76 -126 CURVE",
"51 -231 LINE",
"70 -240 OFFCURVE",
"134 -253 OFFCURVE",
"182 -253 CURVE SMOOTH",
"313 -253 OFFCURVE",
"462 -209 OFFCURVE",
"484 -38 CURVE"
);
},
{
closed = 1;
nodes = (
"342 111 LINE",
"323 91 OFFCURVE",
"298 75 OFFCURVE",
"271 75 CURVE SMOOTH",
"227 75 OFFCURVE",
"199 122 OFFCURVE",
"199 202 CURVE SMOOTH",
"199 332 OFFCURVE",
"235 500 OFFCURVE",
"354 500 CURVE SMOOTH",
"370 500 OFFCURVE",
"385 498 OFFCURVE",
"398 494 CURVE"
);
},
{
closed = 1;
nodes = (
"444 832 LINE",
"396 866 LINE",
"345 857 OFFCURVE",
"285 798 OFFCURVE",
"285 714 CURVE SMOOTH",
"285 663 OFFCURVE",
"318 620 OFFCURVE",
"362 611 CURVE",
"437 662 LINE",
"442 707 LINE",
"423 709 OFFCURVE",
"410 732 OFFCURVE",
"410 756 CURVE SMOOTH",
"410 792 OFFCURVE",
"432 813 OFFCURVE",
"443 819 CURVE"
);
}
);
width = 596;
}
);
unicode = 0123;
},
{
glyphname = h;
layers = (
{
anchors = (
{
name = cap;
position = "{119, 907}";
},
{
name = top;
position = "{198, 879}";
}
);
layerId = UUID0;
paths = (
{
closed = 1;
nodes = (
"238 794 LINE",
"218 806 LINE",
"108 789 LINE",
"102 756 LINE",
"158 740 LINE",
"60 0 LINE",
"131 0 LINE",
"180 363 LINE",
"231 440 OFFCURVE",
"316 506 OFFCURVE",
"378 506 CURVE SMOOTH",
"423 506 OFFCURVE",
"445 486 OFFCURVE",
"445 419 CURVE SMOOTH",
"445 358 OFFCURVE",
"428 280 OFFCURVE",
"417 223 CURVE",
"408 168 OFFCURVE",
"392 93 OFFCURVE",
"390 47 CURVE",
"388 5 OFFCURVE",
"409 -10 OFFCURVE",
"442 -10 CURVE SMOOTH",
"496 -10 OFFCURVE",
"539 38 OFFCURVE",
"546 50 CURVE",
"534 72 LINE",
"510 51 OFFCURVE",
"497 41 OFFCURVE",
"481 41 CURVE SMOOTH",
"471 41 OFFCURVE",
"466 54 OFFCURVE",
"467 77 CURVE",
"471 127 OFFCURVE",
"485 197 OFFCURVE",
"494 247 CURVE SMOOTH",
"504 301 OFFCURVE",
"520 375 OFFCURVE",
"520 423 CURVE SMOOTH",
"520 532 OFFCURVE",
"478 568 OFFCURVE",
"409 568 CURVE SMOOTH",
"325 568 OFFCURVE",
"242 500 OFFCURVE",
"188 425 CURVE"
);
}
);
width = 605;
},
{
anchors = (
{
name = cap;
position = "{110, 907}";
},
{
name = top;
position = "{190, 871}";
}
);
layerId = "809C3DC2-6073-4494-AA7C-C910FAB1DD5E";
paths = (
{
closed = 1;
nodes = (
"294 792 LINE",
"268 806 LINE",
"68 785 LINE",
"60 745 LINE",
"122 724 LINE",
"35 0 LINE",
"197 0 LINE",
"239 344 LINE",
"270 412 OFFCURVE",
"321 471 OFFCURVE",
"361 471 CURVE SMOOTH",
"387 471 OFFCURVE",
"399 457 OFFCURVE",
"400 403 CURVE SMOOTH",
"401 346 OFFCURVE",
"387 269 OFFCURVE",
"378 216 CURVE SMOOTH",
"368 162 OFFCURVE",
"355 101 OFFCURVE",
"355 73 CURVE SMOOTH",
"355 31 OFFCURVE",
"367 -10 OFFCURVE",
"455 -10 CURVE SMOOTH",
"542 -10 OFFCURVE",
"590 46 OFFCURVE",
"601 61 CURVE",
"587 96 LINE",
"564 79 OFFCURVE",
"554 74 OFFCURVE",
"543 74 CURVE SMOOTH",
"534 74 OFFCURVE",
"524 77 OFFCURVE",
"524 101 CURVE SMOOTH",
"524 137 OFFCURVE",
"537 197 OFFCURVE",
"545 247 CURVE SMOOTH",
"554 301 OFFCURVE",
"569 391 OFFCURVE",
"569 420 CURVE SMOOTH",
"569 530 OFFCURVE",
"515 568 OFFCURVE",
"439 568 CURVE SMOOTH",
"360 568 OFFCURVE",
"295 519 OFFCURVE",
"252 447 CURVE"
);
}
);
width = 633;
}
);
unicode = 0068;
},
{
glyphname = hbar;
layers = (
{
layerId = UUID0;
paths = (
{
closed = 1;
nodes = (
"215 625 LINE",
"347 625 LINE",
"354 668 LINE",
"221 668 LINE",
"238 794 LINE",
"218 806 LINE",
"108 789 LINE",
"102 756 LINE",
"158 740 LINE",
"148 668 LINE",
"69 668 LINE",
"63 625 LINE",
"143 625 LINE",
"60 0 LINE",
"131 0 LINE",
"180 363 LINE",
"231 440 OFFCURVE",
"316 506 OFFCURVE",
"378 506 CURVE SMOOTH",
"423 506 OFFCURVE",
"445 486 OFFCURVE",
"445 419 CURVE SMOOTH",
"445 358 OFFCURVE",
"428 280 OFFCURVE",
"417 223 CURVE",
"408 168 OFFCURVE",
"392 93 OFFCURVE",
"390 47 CURVE",
"388 5 OFFCURVE",
"409 -10 OFFCURVE",
"442 -10 CURVE SMOOTH",
"496 -10 OFFCURVE",
"539 38 OFFCURVE",
"546 50 CURVE",
"534 72 LINE",
"510 51 OFFCURVE",
"497 41 OFFCURVE",
"481 41 CURVE SMOOTH",
"471 41 OFFCURVE",
"466 54 OFFCURVE",
"467 77 CURVE",
"471 127 OFFCURVE",
"485 197 OFFCURVE",
"494 247 CURVE SMOOTH",
"504 301 OFFCURVE",
"520 375 OFFCURVE",
"520 423 CURVE SMOOTH",
"520 532 OFFCURVE",
"478 568 OFFCURVE",
"409 568 CURVE SMOOTH",
"325 568 OFFCURVE",
"242 500 OFFCURVE",
"188 425 CURVE"
);
}
);
width = 605;
},
{
layerId = "809C3DC2-6073-4494-AA7C-C910FAB1DD5E";
paths = (
{
closed = 1;
nodes = (
"272 616 LINE",
"377 616 LINE",
"385 680 LINE",
"280 680 LINE",
"294 792 LINE",
"268 806 LINE",
"68 785 LINE",
"60 745 LINE",
"122 724 LINE",
"117 680 LINE",
"52 680 LINE",
"44 616 LINE",
"109 616 LINE",
"35 0 LINE",
"197 0 LINE",
"239 344 LINE",
"270 412 OFFCURVE",
"321 471 OFFCURVE",
"361 471 CURVE SMOOTH",
"387 471 OFFCURVE",
"399 457 OFFCURVE",
"400 403 CURVE SMOOTH",
"401 346 OFFCURVE",
"387 269 OFFCURVE",
"378 216 CURVE SMOOTH",
"368 162 OFFCURVE",
"355 101 OFFCURVE",
"355 73 CURVE SMOOTH",
"355 31 OFFCURVE",
"367 -10 OFFCURVE",
"455 -10 CURVE SMOOTH",
"542 -10 OFFCURVE",
"590 46 OFFCURVE",
"601 61 CURVE",
"587 96 LINE",
"564 79 OFFCURVE",
"554 74 OFFCURVE",
"543 74 CURVE SMOOTH",
"534 74 OFFCURVE",
"524 77 OFFCURVE",
"524 101 CURVE SMOOTH",
"524 137 OFFCURVE",
"537 197 OFFCURVE",
"545 247 CURVE SMOOTH",
"554 301 OFFCURVE",
"569 391 OFFCURVE",
"569 420 CURVE SMOOTH",
"569 530 OFFCURVE",
"515 568 OFFCURVE",
"439 568 CURVE SMOOTH",
"360 568 OFFCURVE",
"295 519 OFFCURVE",
"252 446 CURVE"
);
}
);
width = 633;
}
);
unicode = 0127;
},
{
glyphname = idotless;
layers = (
{
anchors = (
{
name = bottom;
position = "{233, 31}";
},
{
name = top;
position = "{206, 613}";
}
);
layerId = UUID0;
paths = (
{
closed = 1;
nodes = (
"230 556 LINE",
"210 566 LINE",
"88 545 LINE",
"82 514 LINE",
"147 494 LINE",
"128 348 OFFCURVE",
"89 110 OFFCURVE",
"84 48 CURVE SMOOTH",
"81 5 OFFCURVE",
"105 -10 OFFCURVE",
"137 -10 CURVE SMOOTH",
"190 -10 OFFCURVE",
"232 41 OFFCURVE",
"241 55 CURVE",
"228 76 LINE",
"205 51 OFFCURVE",
"190 42 OFFCURVE",
"175 42 CURVE SMOOTH",
"166 42 OFFCURVE",
"158 53 OFFCURVE",
"161 77 CURVE SMOOTH"
);
}
);
width = 309;
},
{
anchors = (
{
name = bottom;
position = "{239, 31}";
},
{
name = top;
position = "{204, 613}";
}
);
layerId = "809C3DC2-6073-4494-AA7C-C910FAB1DD5E";
paths = (
{
closed = 1;
nodes = (
"282 556 LINE",
"255 568 LINE",
"60 542 LINE",
"52 499 LINE",
"108 468 LINE",
"83 280 OFFCURVE",
"65 141 OFFCURVE",
"54 63 CURVE SMOOTH",
"47 21 OFFCURVE",
"82 -10 OFFCURVE",
"151 -10 CURVE SMOOTH",
"236 -10 OFFCURVE",
"284 46 OFFCURVE",
"295 61 CURVE",
"282 96 LINE",
"259 80 OFFCURVE",
"248 74 OFFCURVE",
"237 74 CURVE SMOOTH",
"222 74 OFFCURVE",
"216 87 OFFCURVE",
"220 111 CURVE SMOOTH"
);
}
);
width = 328;
}
);
unicode = 0131;
},
{
color = (255,0,65,1);
glyphname = ij_acutecomb;
layers = (
{
components = (
{
name = acute;
transform = "{1, 0, 0, 1, 420, 0}";
}
);
layerId = UUID0;
paths = (
{
closed = 1;
nodes = (
"546 556 LINE",
"527 566 LINE",
"402 545 LINE",
"396 514 LINE",
"464 494 LINE",
"411 28 LINE SMOOTH",
"396 -100 OFFCURVE",
"360 -211 OFFCURVE",
"262 -211 CURVE SMOOTH",
"248 -211 OFFCURVE",
"228 -207 OFFCURVE",
"219 -203 CURVE",
"206 -235 LINE",
"216 -247 OFFCURVE",
"243 -253 OFFCURVE",
"274 -253 CURVE SMOOTH",
"386 -253 OFFCURVE",
"461 -167 OFFCURVE",
"481 1 CURVE SMOOTH"
);
},
{
closed = 1;
nodes = (
"230 556 LINE",
"210 566 LINE",
"88 545 LINE",
"82 514 LINE",
"147 494 LINE",
"128 348 OFFCURVE",
"89 110 OFFCURVE",
"84 48 CURVE SMOOTH",
"81 5 OFFCURVE",
"105 -10 OFFCURVE",
"137 -10 CURVE SMOOTH",
"190 -10 OFFCURVE",
"232 41 OFFCURVE",
"241 55 CURVE",
"228 76 LINE",
"205 51 OFFCURVE",
"190 42 OFFCURVE",
"175 42 CURVE SMOOTH",
"166 42 OFFCURVE",
"158 53 OFFCURVE",
"161 77 CURVE SMOOTH"
);
},
{
closed = 1;
nodes = (
"312 844 LINE",
"154 637 LINE",
"178 613 LINE",
"237 646 OFFCURVE",
"346 759 OFFCURVE",
"364 791 CURVE"
);
}
);
width = 625;
},
{
components = (
{
name = acute;
transform = "{1, 0, 0, 1, 460, 0}";
}
);
layerId = "809C3DC2-6073-4494-AA7C-C910FAB1DD5E";
paths = (
{
closed = 1;
nodes = (
"611 556 LINE",
"585 568 LINE",
"365 543 LINE",
"355 503 LINE",
"436 479 LINE",
"385 32 LINE SMOOTH",
"372 -83 OFFCURVE",
"354 -187 OFFCURVE",
"261 -187 CURVE SMOOTH",
"256 -187 OFFCURVE",
"234 -184 OFFCURVE",
"225 -181 CURVE",
"207 -240 LINE",
"220 -252 OFFCURVE",
"251 -258 OFFCURVE",
"290 -258 CURVE SMOOTH",
"411 -258 OFFCURVE",
"522 -169 OFFCURVE",
"544 0 CURVE SMOOTH"
);
},
{
closed = 1;
nodes = (
"282 556 LINE",
"255 568 LINE",
"60 542 LINE",
"52 499 LINE",
"108 468 LINE",
"83 280 OFFCURVE",
"65 141 OFFCURVE",
"54 63 CURVE SMOOTH",
"47 21 OFFCURVE",
"82 -10 OFFCURVE",
"151 -10 CURVE SMOOTH",
"236 -10 OFFCURVE",
"284 46 OFFCURVE",
"295 61 CURVE",
"282 96 LINE",
"259 80 OFFCURVE",
"248 74 OFFCURVE",
"237 74 CURVE SMOOTH",
"222 74 OFFCURVE",
"216 87 OFFCURVE",
"220 111 CURVE SMOOTH"
);
},
{
closed = 1;
nodes = (
"303 851 LINE",
"148 641 LINE",
"198 601 LINE",
"256 624 OFFCURVE",
"379 727 OFFCURVE",
"396 760 CURVE"
);
}
);
width = 647;
}
);
},
{
glyphname = iogonek;
layers = (
{
layerId = UUID0;
paths = (
{
closed = 1;
nodes = (
"230 556 LINE",
"210 566 LINE",
"88 545 LINE",
"82 514 LINE",
"147 494 LINE",
"128 348 OFFCURVE",
"89 110 OFFCURVE",
"84 48 CURVE",
"82 14 OFFCURVE",
"96 -2 OFFCURVE",
"119 -8 CURVE",
"85 -26 OFFCURVE",
"50 -48 OFFCURVE",
"23 -85 CURVE SMOOTH",
"14 -100 OFFCURVE",
"7 -121 OFFCURVE",
"7 -140 CURVE",
"5 -169 OFFCURVE",
"25 -203 OFFCURVE",
"78 -203 CURVE SMOOTH",
"134 -203 OFFCURVE",
"174 -180 OFFCURVE",
"200 -157 CURVE",
"189 -120 LINE",
"166 -140 OFFCURVE",
"139 -153 OFFCURVE",
"112 -153 CURVE SMOOTH",
"93 -153 OFFCURVE",
"77 -140 OFFCURVE",
"79 -110 CURVE",
"80 -72 OFFCURVE",
"129 -35 OFFCURVE",
"177 0 CURVE",
"210 15 OFFCURVE",
"234 44 OFFCURVE",
"241 55 CURVE",
"228 76 LINE",
"205 51 OFFCURVE",
"190 42 OFFCURVE",
"175 42 CURVE SMOOTH",
"166 42 OFFCURVE",
"158 53 OFFCURVE",
"161 77 CURVE SMOOTH"
);
},
{
closed = 1;
nodes = (
"193 792 OFFCURVE",
"165 766 OFFCURVE",
"164 732 CURVE SMOOTH",
"163 704 OFFCURVE",
"182 684 OFFCURVE",
"206 684 CURVE SMOOTH",
"236 684 OFFCURVE",
"262 712 OFFCURVE",
"263 747 CURVE SMOOTH",
"263 773 OFFCURVE",
"246 792 OFFCURVE",
"218 792 CURVE SMOOTH"
);
}
);
width = 309;
},
{
layerId = "809C3DC2-6073-4494-AA7C-C910FAB1DD5E";
paths = (
{
closed = 1;
nodes = (
"282 556 LINE",
"255 568 LINE",
"60 542 LINE",
"52 499 LINE",
"108 468 LINE",
"83 280 OFFCURVE",
"65 141 OFFCURVE",
"54 63 CURVE SMOOTH",
"49 31 OFFCURVE",
"66 6 OFFCURVE",
"105 -4 CURVE",
"74 -21 OFFCURVE",
"42 -43 OFFCURVE",
"10 -89 CURVE SMOOTH",
"-2 -107 OFFCURVE",
"-12 -133 OFFCURVE",
"-12 -149 CURVE SMOOTH",
"-12 -201 OFFCURVE",
"20 -234 OFFCURVE",
"83 -234 CURVE SMOOTH",
"153 -234 OFFCURVE",
"211 -200 OFFCURVE",
"250 -159 CURVE",
"233 -104 LINE",
"206 -125 OFFCURVE",
"185 -140 OFFCURVE",
"158 -140 CURVE SMOOTH",
"139 -140 OFFCURVE",
"125 -133 OFFCURVE",
"125 -105 CURVE SMOOTH",
"125 -70 OFFCURVE",
"179 -26 OFFCURVE",
"243 15 CURVE",
"271 31 OFFCURVE",
"289 52 OFFCURVE",
"295 61 CURVE",
"282 96 LINE",
"259 80 OFFCURVE",
"248 74 OFFCURVE",
"237 74 CURVE SMOOTH",
"222 74 OFFCURVE",
"216 87 OFFCURVE",
"220 111 CURVE SMOOTH"
);
},
{
closed = 1;
nodes = (
"164 831 OFFCURVE",
"128 788 OFFCURVE",
"127 735 CURVE SMOOTH",
"126 694 OFFCURVE",
"163 653 OFFCURVE",
"206 653 CURVE SMOOTH",
"275 653 OFFCURVE",
"305 698 OFFCURVE",
"307 752 CURVE SMOOTH",
"308 791 OFFCURVE",
"275 831 OFFCURVE",
"224 831 CURVE SMOOTH"
);
}
);
width = 328;
}
);
unicode = 012F;
},
{
glyphname = jdotless;
layers = (
{
layerId = UUID0;
paths = (
{
closed = 1;
nodes = (
"237 556 LINE",
"218 566 LINE",
"93 545 LINE",
"87 514 LINE",
"155 494 LINE",
"102 28 LINE SMOOTH",
"87 -100 OFFCURVE",
"51 -211 OFFCURVE",
"-47 -211 CURVE SMOOTH",
"-61 -211 OFFCURVE",
"-81 -207 OFFCURVE",
"-90 -203 CURVE",
"-104 -235 LINE",
"-93 -247 OFFCURVE",
"-66 -253 OFFCURVE",
"-35 -253 CURVE SMOOTH",
"77 -253 OFFCURVE",
"152 -167 OFFCURVE",
"172 1 CURVE SMOOTH"
);
}
);
width = 316;
},
{
layerId = "809C3DC2-6073-4494-AA7C-C910FAB1DD5E";
paths = (
{
closed = 1;
nodes = (
"283 556 LINE",
"258 568 LINE",
"38 543 LINE",
"27 503 LINE",
"108 479 LINE",
"57 32 LINE SMOOTH",
"44 -83 OFFCURVE",
"26 -187 OFFCURVE",
"-66 -187 CURVE SMOOTH",
"-71 -187 OFFCURVE",
"-94 -184 OFFCURVE",
"-103 -181 CURVE",
"-121 -240 LINE",
"-108 -252 OFFCURVE",
"-77 -258 OFFCURVE",
"-38 -258 CURVE SMOOTH",
"83 -258 OFFCURVE",
"195 -169 OFFCURVE",
"216 0 CURVE SMOOTH"
);
}
);
width = 319;
}
);
unicode = 0237;
},
{
glyphname = k;
layers = (
{
anchors = (
{
name = btm;
position = "{238, -83}";
},
{
name = top;
position = "{282, 613}";
}
);
layerId = UUID0;
paths = (
{
closed = 1;
nodes = (
"333 43 LINE",
"355 6 OFFCURVE",
"382 -10 OFFCURVE",
"408 -10 CURVE SMOOTH",
"454 -10 OFFCURVE",
"498 23 OFFCURVE",
"513 49 CURVE",
"500 74 LINE",
"480 54 OFFCURVE",
"461 45 OFFCURVE",
"448 45 CURVE SMOOTH",
"431 45 OFFCURVE",
"408 66 OFFCURVE",
"390 92 CURVE SMOOTH",
"245 302 LINE",
"296 333 OFFCURVE",
"422 401 OFFCURVE",
"468 467 CURVE",
"484 490 OFFCURVE",
"490 512 OFFCURVE",
"489 528 CURVE SMOOTH",
"489 552 OFFCURVE",
"471 568 OFFCURVE",
"450 568 CURVE SMOOTH",
"428 568 OFFCURVE",
"405 553 OFFCURVE",
"400 523 CURVE",
"397 502 OFFCURVE",
"393 476 OFFCURVE",
"372 448 CURVE SMOOTH",
"325 384 OFFCURVE",
"246 347 OFFCURVE",
"179 298 CURVE"
);
},
{
closed = 1;
nodes = (
"103 789 LINE",
"97 756 LINE",
"153 740 LINE",
"55 0 LINE",
"126 0 LINE",
"233 794 LINE",
"213 806 LINE"
);
}
);
width = 519;
},
{
anchors = (
{
name = btm;
position = "{274, -83}";
},
{
name = top;
position = "{312, 613}";
}
);
layerId = "809C3DC2-6073-4494-AA7C-C910FAB1DD5E";
paths = (
{
closed = 1;
nodes = (
"324 49 LINE SMOOTH",
"337 15 OFFCURVE",
"363 -9 OFFCURVE",
"420 -9 CURVE SMOOTH",
"503 -9 OFFCURVE",
"569 53 OFFCURVE",
"588 77 CURVE",
"572 111 LINE",
"553 97 OFFCURVE",
"527 89 OFFCURVE",
"515 89 CURVE SMOOTH",
"499 89 OFFCURVE",
"479 104 OFFCURVE",
"463 134 CURVE",
"373 319 LINE",
"428 344 OFFCURVE",
"486 380 OFFCURVE",
"522 426 CURVE",
"536 444 OFFCURVE",
"550 469 OFFCURVE",
"550 505 CURVE SMOOTH",
"550 539 OFFCURVE",
"528 568 OFFCURVE",
"486 568 CURVE SMOOTH",
"453 568 OFFCURVE",
"406 555 OFFCURVE",
"406 502 CURVE SMOOTH",
"406 471 OFFCURVE",
"398 445 OFFCURVE",
"380 421 CURVE SMOOTH",
"322 345 OFFCURVE",
"282 324 OFFCURVE",
"233 298 CURVE"
);
},
{
closed = 1;
nodes = (
"72 785 LINE",
"63 745 LINE",
"126 724 LINE",
"31 0 LINE",
"193 0 LINE",
"298 792 LINE",
"271 806 LINE"
);
}
);
width = 565;
}
);
unicode = 006B;
},
{
glyphname = kgreenlandic;
layers = (
{
anchors = (
{
name = bottom;
position = "{287, -63}";
}
);
layerId = UUID0;
paths = (
{
closed = 1;
nodes = (
"260 287 LINE",
"530 552 LINE",
"444 552 LINE",
"189 285 LINE",
"334 43 LINE",
"355 5 OFFCURVE",
"378 -9 OFFCURVE",
"404 -9 CURVE SMOOTH",
"444 -9 OFFCURVE",
"482 15 OFFCURVE",
"496 34 CURVE",
"484 53 LINE",
"468 44 OFFCURVE",
"456 40 OFFCURVE",
"446 40 CURVE SMOOTH",
"429 40 OFFCURVE",
"408 62 OFFCURVE",
"392 88 CURVE"
);
},
{
closed = 1;
nodes = (
"86 544 LINE",
"78 511 LINE",
"132 496 LINE",
"69 0 LINE",
"140 0 LINE",
"212 550 LINE",
"192 562 LINE"
);
}
);
width = 518;
},
{
anchors = (
{
name = bottom;
position = "{287, -63}";
}
);
layerId = "809C3DC2-6073-4494-AA7C-C910FAB1DD5E";
paths = (
{
closed = 1;
nodes = (
"375 325 LINE",
"581 563 LINE",
"448 563 LINE",
"238 298 LINE",
"329 49 LINE SMOOTH",
"342 15 OFFCURVE",
"368 -9 OFFCURVE",
"425 -9 CURVE SMOOTH",
"508 -9 OFFCURVE",
"574 53 OFFCURVE",
"593 77 CURVE",
"577 111 LINE",
"558 97 OFFCURVE",
"532 89 OFFCURVE",
"520 89 CURVE SMOOTH",
"504 89 OFFCURVE",
"483 104 OFFCURVE",
"468 134 CURVE"
);
},
{
closed = 1;
nodes = (
"60 542 LINE",
"52 499 LINE",
"104 470 LINE",
"40 0 LINE",
"198 0 LINE",
"268 556 LINE",
"242 568 LINE"
);
}
);
width = 595;
}
);
unicode = 0138;
},
{
glyphname = l;
layers = (
{
anchors = (
{
name = btm;
position = "{99, -83}";
},
{
name = cap;
position = "{249, 918}";
},
{
name = caron;
position = "{289, 766}";
},
{
name = top;
position = "{153, 613}";
}
);
layerId = UUID0;
paths = (
{
closed = 1;
nodes = (
"248 794 LINE",
"229 806 LINE",
"120 789 LINE",
"112 756 LINE",
"170 740 LINE",
"77 83 LINE SMOOTH",
"76 73 OFFCURVE",
"74 57 OFFCURVE",
"74 50 CURVE SMOOTH",
"73 7 OFFCURVE",
"90 -10 OFFCURVE",
"123 -10 CURVE SMOOTH",
"176 -10 OFFCURVE",
"219 41 OFFCURVE",
"227 55 CURVE",
"214 76 LINE",
"190 50 OFFCURVE",
"174 42 OFFCURVE",
"160 42 CURVE SMOOTH",
"151 42 OFFCURVE",
"144 54 OFFCURVE",
"147 77 CURVE SMOOTH"
);
}
);
width = 296;
},
{
anchors = (
{
name = btm;
position = "{95, -83}";
},
{
name = cap;
position = "{253, 918}";
},
{
name = caron;
position = "{296, 766}";
},
{
name = top;
position = "{150, 613}";
}
);
layerId = "809C3DC2-6073-4494-AA7C-C910FAB1DD5E";
paths = (
{
closed = 1;
nodes = (
"298 792 LINE",
"273 806 LINE",
"75 785 LINE",
"65 745 LINE",
"130 724 LINE",
"46 94 LINE SMOOTH",
"45 86 OFFCURVE",
"42 68 OFFCURVE",
"42 56 CURVE SMOOTH",
"43 8 OFFCURVE",
"95 -10 OFFCURVE",
"147 -10 CURVE SMOOTH",
"228 -10 OFFCURVE",
"273 46 OFFCURVE",
"284 61 CURVE",
"271 96 LINE",
"245 77 OFFCURVE",
"236 74 OFFCURVE",
"226 74 CURVE SMOOTH",
"210 74 OFFCURVE",
"205 88 OFFCURVE",
"208 111 CURVE SMOOTH"
);
}
);
width = 310;
}
);
unicode = 006C;
},
{
glyphname = lacute;
layers = (
{
layerId = UUID0;
paths = (
{
closed = 1;
nodes = (
"239 732 LINE",
"220 743 LINE",
"113 727 LINE",
"105 694 LINE",
"162 677 LINE",
"77 83 LINE SMOOTH",
"76 76 OFFCURVE",
"74 57 OFFCURVE",
"74 50 CURVE SMOOTH",
"73 7 OFFCURVE",
"90 -10 OFFCURVE",
"123 -10 CURVE SMOOTH",
"176 -10 OFFCURVE",
"219 41 OFFCURVE",
"227 55 CURVE",
"214 76 LINE",
"190 50 OFFCURVE",
"174 42 OFFCURVE",
"160 42 CURVE SMOOTH",
"151 42 OFFCURVE",
"144 54 OFFCURVE",
"147 77 CURVE SMOOTH"
);
},
{
closed = 1;
nodes = (
"312 977 LINE",
"173 806 LINE",
"198 788 LINE",
"245 815 OFFCURVE",
"331 879 OFFCURVE",
"358 931 CURVE"
);
}
);
width = 296;
},
{
layerId = "809C3DC2-6073-4494-AA7C-C910FAB1DD5E";
paths = (
{
closed = 1;
nodes = (
"297 734 LINE",
"272 747 LINE",
"74 727 LINE",
"64 686 LINE",
"128 665 LINE",
"45 94 LINE SMOOTH",
"44 86 OFFCURVE",
"41 68 OFFCURVE",
"41 56 CURVE SMOOTH",
"42 8 OFFCURVE",
"93 -10 OFFCURVE",
"146 -10 CURVE SMOOTH",
"226 -10 OFFCURVE",
"272 46 OFFCURVE",
"283 61 CURVE",
"269 96 LINE",
"244 77 OFFCURVE",
"234 74 OFFCURVE",
"224 74 CURVE SMOOTH",
"208 74 OFFCURVE",
"204 88 OFFCURVE",
"207 111 CURVE SMOOTH"
);
},
{
closed = 1;
nodes = (
"306 983 LINE",
"171 816 LINE",
"228 767 LINE",
"275 784 OFFCURVE",
"372 844 OFFCURVE",
"397 893 CURVE"
);
}
);
width = 310;
}
);
unicode = 013A;
},
{
glyphname = lslash;
layers = (
{
layerId = UUID0;
paths = (
{
closed = 1;
nodes = (
"194 413 LINE",
"302 456 LINE",
"302 513 LINE",
"202 472 LINE",
"248 794 LINE",
"229 806 LINE",
"120 789 LINE",
"112 756 LINE",
"170 740 LINE",
"127 441 LINE",
"42 406 LINE",
"42 353 LINE",
"120 384 LINE",
"77 83 LINE SMOOTH",
"76 73 OFFCURVE",
"74 57 OFFCURVE",
"74 50 CURVE SMOOTH",
"73 7 OFFCURVE",
"90 -10 OFFCURVE",
"123 -10 CURVE SMOOTH",
"176 -10 OFFCURVE",
"219 41 OFFCURVE",
"227 55 CURVE",
"214 76 LINE",
"190 50 OFFCURVE",
"174 42 OFFCURVE",
"160 42 CURVE SMOOTH",
"151 42 OFFCURVE",
"144 54 OFFCURVE",
"147 77 CURVE SMOOTH"
);
}
);
width = 296;
},
{
layerId = "809C3DC2-6073-4494-AA7C-C910FAB1DD5E";
paths = (
{
closed = 1;
nodes = (
"250 425 LINE",
"331 457 LINE",
"331 528 LINE",
"259 499 LINE",
"298 792 LINE",
"273 806 LINE",
"75 785 LINE",
"65 745 LINE",
"130 724 LINE",
"91 431 LINE",
"13 399 LINE",
"13 332 LINE",
"82 359 LINE",
"46 94 LINE SMOOTH",
"45 86 OFFCURVE",
"42 68 OFFCURVE",
"42 56 CURVE SMOOTH",
"43 8 OFFCURVE",
"95 -10 OFFCURVE",
"147 -10 CURVE SMOOTH",
"228 -10 OFFCURVE",
"273 46 OFFCURVE",
"284 61 CURVE",
"271 96 LINE",
"245 77 OFFCURVE",
"236 74 OFFCURVE",
"226 74 CURVE SMOOTH",
"210 74 OFFCURVE",
"205 88 OFFCURVE",
"208 111 CURVE"
);
}
);
width = 310;
}
);
unicode = 0142;
},
{
glyphname = m;
layers = (
{
anchors = (
{
name = top;
position = "{506, 613}";
}
);
layerId = UUID0;
paths = (
{
closed = 1;
nodes = (
"209 558 LINE",
"191 568 LINE",
"91 547 LINE",
"84 512 LINE",
"132 489 LINE",
"67 0 LINE",
"139 0 LINE",
"188 364 LINE",
"239 441 OFFCURVE",
"323 506 OFFCURVE",
"383 506 CURVE SMOOTH",
"434 506 OFFCURVE",
"450 487 OFFCURVE",
"450 419 CURVE SMOOTH",
"450 360 OFFCURVE",
"437 280 OFFCURVE",
"428 223 CURVE",
"396 0 LINE",
"470 0 LINE",
"504 247 LINE",
"510 286 OFFCURVE",
"517 334 OFFCURVE",
"521 377 CURVE",
"570 447 OFFCURVE",
"640 505 OFFCURVE",
"693 505 CURVE SMOOTH",
"738 505 OFFCURVE",
"759 486 OFFCURVE",
"759 419 CURVE SMOOTH",
"759 358 OFFCURVE",
"743 281 OFFCURVE",
"734 226 CURVE",
"725 168 OFFCURVE",
"711 94 OFFCURVE",
"709 46 CURVE SMOOTH",
"708 6 OFFCURVE",
"725 -10 OFFCURVE",
"758 -10 CURVE SMOOTH",
"811 -10 OFFCURVE",
"854 41 OFFCURVE",
"863 55 CURVE",
"851 76 LINE",
"827 52 OFFCURVE",
"811 42 OFFCURVE",
"795 42 CURVE SMOOTH",
"785 42 OFFCURVE",
"782 55 OFFCURVE",
"784 77 CURVE SMOOTH",
"787 128 OFFCURVE",
"800 196 OFFCURVE",
"809 247 CURVE SMOOTH",
"818 304 OFFCURVE",
"833 376 OFFCURVE",
"833 423 CURVE SMOOTH",
"833 527 OFFCURVE",
"787 568 OFFCURVE",
"720 568 CURVE SMOOTH",
"647 568 OFFCURVE",
"573 508 OFFCURVE",
"523 439 CURVE",
"521 529 OFFCURVE",
"485 568 OFFCURVE",
"415 568 CURVE SMOOTH",
"335 568 OFFCURVE",
"251 504 OFFCURVE",
"196 431 CURVE"
);
}
);
width = 924;
},
{
anchors = (
{
name = top;
position = "{521, 613}";
}
);
layerId = "809C3DC2-6073-4494-AA7C-C910FAB1DD5E";
paths = (
{
closed = 1;
nodes = (
"268 556 LINE",
"242 568 LINE",
"60 542 LINE",
"52 499 LINE",
"104 470 LINE",
"40 0 LINE",
"198 0 LINE",
"248 362 LINE",
"278 422 OFFCURVE",
"328 471 OFFCURVE",
"362 471 CURVE SMOOTH",
"393 471 OFFCURVE",
"406 461 OFFCURVE",
"408 400 CURVE SMOOTH",
"409 344 OFFCURVE",
"400 270 OFFCURVE",
"393 216 CURVE SMOOTH",
"365 0 LINE",
"529 0 LINE",
"558 247 LINE",
"563 284 OFFCURVE",
"567 330 OFFCURVE",
"569 370 CURVE",
"600 431 OFFCURVE",
"647 471 OFFCURVE",
"685 471 CURVE SMOOTH",
"711 471 OFFCURVE",
"723 457 OFFCURVE",
"724 403 CURVE SMOOTH",
"725 346 OFFCURVE",
"711 269 OFFCURVE",
"702 216 CURVE SMOOTH",
"691 162 OFFCURVE",
"679 101 OFFCURVE",
"679 73 CURVE SMOOTH",
"679 36 OFFCURVE",
"690 -10 OFFCURVE",
"778 -10 CURVE SMOOTH",
"866 -10 OFFCURVE",
"914 46 OFFCURVE",
"925 61 CURVE",
"911 96 LINE",
"888 79 OFFCURVE",
"878 74 OFFCURVE",
"867 74 CURVE SMOOTH",
"857 74 OFFCURVE",
"848 77 OFFCURVE",
"848 101 CURVE SMOOTH",
"848 137 OFFCURVE",
"860 197 OFFCURVE",
"869 247 CURVE SMOOTH",
"878 301 OFFCURVE",
"893 391 OFFCURVE",
"893 420 CURVE SMOOTH",
"893 530 OFFCURVE",
"838 568 OFFCURVE",
"763 568 CURVE SMOOTH",
"679 568 OFFCURVE",
"612 524 OFFCURVE",
"569 447 CURVE",
"560 537 OFFCURVE",
"508 568 OFFCURVE",
"437 568 CURVE SMOOTH",
"362 568 OFFCURVE",
"300 518 OFFCURVE",
"260 453 CURVE"
);
}
);
width = 957;
}
);
unicode = 006D;
},
{
glyphname = n;
layers = (
{
anchors = (
{
name = btm;
position = "{264, -83}";
},
{
name = top;
position = "{347, 613}";
}
);
layerId = UUID0;
paths = (
{
closed = 1;
nodes = (
"210 558 LINE",
"191 568 LINE",
"91 547 LINE",
"84 512 LINE",
"132 489 LINE",
"67 0 LINE",
"139 0 LINE",
"188 364 LINE",
"239 440 OFFCURVE",
"323 506 OFFCURVE",
"383 506 CURVE SMOOTH",
"434 506 OFFCURVE",
"452 486 OFFCURVE",
"452 419 CURVE SMOOTH",
"452 358 OFFCURVE",
"435 280 OFFCURVE",
"424 223 CURVE SMOOTH",
"415 168 OFFCURVE",
"398 93 OFFCURVE",
"396 47 CURVE SMOOTH",
"395 5 OFFCURVE",
"415 -10 OFFCURVE",
"446 -10 CURVE SMOOTH",
"496 -10 OFFCURVE",
"539 35 OFFCURVE",
"545 46 CURVE",
"533 68 LINE",
"514 50 OFFCURVE",
"498 42 OFFCURVE",
"485 42 CURVE SMOOTH",
"476 42 OFFCURVE",
"473 55 OFFCURVE",
"474 77 CURVE SMOOTH",
"477 127 OFFCURVE",
"491 197 OFFCURVE",
"500 247 CURVE SMOOTH",
"510 301 OFFCURVE",
"526 375 OFFCURVE",
"526 424 CURVE SMOOTH",
"526 532 OFFCURVE",
"483 568 OFFCURVE",
"415 568 CURVE SMOOTH",
"335 568 OFFCURVE",
"251 504 OFFCURVE",
"196 431 CURVE"
);
}
);
width = 614;
},
{
anchors = (
{
name = btm;
position = "{268, -83}";
},
{
name = top;
position = "{371, 613}";
}
);
layerId = "809C3DC2-6073-4494-AA7C-C910FAB1DD5E";
paths = (
{
closed = 1;
nodes = (
"268 556 LINE",
"243 568 LINE",
"60 542 LINE",
"52 499 LINE",
"104 470 LINE",
"41 0 LINE",
"199 0 LINE",
"247 352 LINE",
"277 417 OFFCURVE",
"327 471 OFFCURVE",
"365 471 CURVE SMOOTH",
"391 471 OFFCURVE",
"403 457 OFFCURVE",
"404 403 CURVE SMOOTH",
"405 346 OFFCURVE",
"391 269 OFFCURVE",
"382 216 CURVE SMOOTH",
"372 162 OFFCURVE",
"359 101 OFFCURVE",
"359 73 CURVE SMOOTH",
"359 36 OFFCURVE",
"371 -10 OFFCURVE",
"458 -10 CURVE SMOOTH",
"546 -10 OFFCURVE",
"594 46 OFFCURVE",
"605 61 CURVE",
"591 96 LINE",
"568 79 OFFCURVE",
"558 74 OFFCURVE",
"547 74 CURVE SMOOTH",
"538 74 OFFCURVE",
"528 77 OFFCURVE",
"528 101 CURVE SMOOTH",
"528 137 OFFCURVE",
"541 197 OFFCURVE",
"549 247 CURVE SMOOTH",
"558 301 OFFCURVE",
"573 391 OFFCURVE",
"573 420 CURVE SMOOTH",
"573 530 OFFCURVE",
"519 568 OFFCURVE",
"443 568 CURVE SMOOTH",
"366 568 OFFCURVE",
"303 522 OFFCURVE",
"260 454 CURVE"
);
}
);
width = 637;
}
);
unicode = 006E;
},
{
glyphname = eng;
layers = (
{
layerId = UUID0;
paths = (
{
closed = 1;
nodes = (
"208 550 LINE",
"190 560 LINE",
"90 539 LINE",
"83 504 LINE",
"131 481 LINE",
"67 0 LINE",
"139 0 LINE",
"187 362 LINE",
"239 439 OFFCURVE",
"323 506 OFFCURVE",
"383 506 CURVE SMOOTH",
"434 506 OFFCURVE",
"453 483 OFFCURVE",
"452 417 CURVE",
"451 295 OFFCURVE",
"411 47 OFFCURVE",
"406 25 CURVE SMOOTH",
"384 -93 OFFCURVE",
"348 -211 OFFCURVE",
"247 -211 CURVE SMOOTH",
"236 -211 OFFCURVE",
"216 -209 OFFCURVE",
"204 -203 CURVE",
"191 -235 LINE",
"202 -247 OFFCURVE",
"229 -253 OFFCURVE",
"259 -253 CURVE SMOOTH",
"368 -253 OFFCURVE",
"440 -170 OFFCURVE",
"474 0 CURVE",
"500 129 OFFCURVE",
"521 298 OFFCURVE",
"526 420 CURVE",
"529 528 OFFCURVE",
"485 567 OFFCURVE",
"415 567 CURVE SMOOTH",
"335 567 OFFCURVE",
"250 503 OFFCURVE",
"196 431 CURVE"
);
}
);
width = 616;
},
{
layerId = "809C3DC2-6073-4494-AA7C-C910FAB1DD5E";
paths = (
{
closed = 1;
nodes = (
"268 556 LINE",
"243 568 LINE",
"60 542 LINE",
"52 499 LINE",
"104 470 LINE",
"41 0 LINE",
"199 0 LINE",
"247 351 LINE",
"287 435 OFFCURVE",
"335 471 OFFCURVE",
"366 471 CURVE SMOOTH",
"396 471 OFFCURVE",
"409 445 OFFCURVE",
"404 403 CURVE SMOOTH",
"383 231 OFFCURVE",
"375 97 OFFCURVE",
"361 0 CURVE SMOOTH",
"344 -124 OFFCURVE",
"317 -187 OFFCURVE",
"242 -187 CURVE SMOOTH",
"236 -187 OFFCURVE",
"214 -185 OFFCURVE",
"206 -181 CURVE",
"187 -240 LINE",
"198 -251 OFFCURVE",
"234 -258 OFFCURVE",
"270 -258 CURVE SMOOTH",
"416 -258 OFFCURVE",
"481 -210 OFFCURVE",
"523 0 CURVE SMOOTH",
"543 100 OFFCURVE",
"557 236 OFFCURVE",
"573 420 CURVE SMOOTH",
"582 535 OFFCURVE",
"516 567 OFFCURVE",
"443 567 CURVE SMOOTH",
"355 567 OFFCURVE",
"297 513 OFFCURVE",
"260 454 CURVE"
);
}
);
width = 630;
}
);
unicode = 014B;
},
{
glyphname = o;
layers = (
{
anchors = (
{
name = bottom;
position = "{236, -10}";
},
{
name = center;
position = "{279, 277}";
},
{
name = ogonek;
position = "{464, 10}";
},
{
name = top;
position = "{326, 613}";
},
{
name = topright;
position = "{490, 554}";
}
);
layerId = UUID0;
paths = (
{
closed = 1;
nodes = (
"154 568 OFFCURVE",
"41 392 OFFCURVE",
"42 214 CURVE SMOOTH",
"44 72 OFFCURVE",
"113 -10 OFFCURVE",
"236 -10 CURVE SMOOTH",
"401 -10 OFFCURVE",
"514 168 OFFCURVE",
"512 343 CURVE SMOOTH",
"510 485 OFFCURVE",
"442 568 OFFCURVE",
"319 568 CURVE SMOOTH"
);
},
{
closed = 1;
nodes = (
"391 520 OFFCURVE",
"434 453 OFFCURVE",
"435 342 CURVE SMOOTH",
"437 210 OFFCURVE",
"373 38 OFFCURVE",
"250 38 CURVE SMOOTH",
"166 38 OFFCURVE",
"120 103 OFFCURVE",
"119 215 CURVE SMOOTH",
"117 349 OFFCURVE",
"180 520 OFFCURVE",
"306 520 CURVE SMOOTH"
);
}
);
width = 558;
},
{
anchors = (
{
name = bottom;
position = "{246, -14}";
},
{
name = center;
position = "{292, 282}";
},
{
name = ogonek;
position = "{487, 10}";
},
{
name = top;
position = "{343, 613}";
},
{
name = topright;
position = "{520, 564}";
}
);
layerId = "809C3DC2-6073-4494-AA7C-C910FAB1DD5E";
paths = (
{
closed = 1;
nodes = (
"140 569 OFFCURVE",
"17 410 OFFCURVE",
"23 212 CURVE SMOOTH",
"29 66 OFFCURVE",
"103 -14 OFFCURVE",
"246 -14 CURVE SMOOTH",
"443 -14 OFFCURVE",
"567 148 OFFCURVE",
"561 345 CURVE SMOOTH",
"556 491 OFFCURVE",
"479 569 OFFCURVE",
"337 569 CURVE SMOOTH"
);
},
{
closed = 1;
nodes = (
"359 500 OFFCURVE",
"380 463 OFFCURVE",
"383 347 CURVE SMOOTH",
"387 216 OFFCURVE",
"359 49 OFFCURVE",
"269 49 CURVE SMOOTH",
"222 49 OFFCURVE",
"203 94 OFFCURVE",
"199 210 CURVE SMOOTH",
"195 337 OFFCURVE",
"229 500 OFFCURVE",
"319 500 CURVE SMOOTH"
);
}
);
width = 584;
}
);
unicode = 006F;
},
{
glyphname = oslash;
layers = (
{
layerId = UUID0;
paths = (
{
closed = 1;
nodes = (
"489 611 LINE",
"455 631 LINE",
"406 551 LINE",
"381 563 OFFCURVE",
"352 569 OFFCURVE",
"319 569 CURVE SMOOTH",
"154 569 OFFCURVE",
"41 393 OFFCURVE",
"42 215 CURVE SMOOTH",
"43 137 OFFCURVE",
"65 76 OFFCURVE",
"105 38 CURVE",
"52 -46 LINE",
"86 -65 LINE",
"137 14 LINE",
"165 -1 OFFCURVE",
"198 -9 OFFCURVE",
"236 -9 CURVE SMOOTH",
"401 -9 OFFCURVE",
"514 169 OFFCURVE",
"512 344 CURVE",
"511 429 OFFCURVE",
"486 493 OFFCURVE",
"440 530 CURVE"
);
},
{
closed = 1;
nodes = (
"146 96 LINE",
"129 125 OFFCURVE",
"120 166 OFFCURVE",
"119 216 CURVE SMOOTH",
"117 350 OFFCURVE",
"180 521 OFFCURVE",
"306 521 CURVE SMOOTH",
"334 521 OFFCURVE",
"358 513 OFFCURVE",
"377 499 CURVE"
);
},
{
closed = 1;
nodes = (
"401 474 LINE",
"423 443 OFFCURVE",
"434 398 OFFCURVE",
"435 343 CURVE SMOOTH",
"437 211 OFFCURVE",
"373 39 OFFCURVE",
"250 39 CURVE SMOOTH",
"216 39 OFFCURVE",
"189 49 OFFCURVE",
"168 68 CURVE"
);
}
);
width = 558;
},
{
layerId = "809C3DC2-6073-4494-AA7C-C910FAB1DD5E";
paths = (
{
closed = 1;
nodes = (
"547 612 LINE",
"503 636 LINE",
"443 551 LINE",
"413 563 OFFCURVE",
"378 570 OFFCURVE",
"337 570 CURVE SMOOTH",
"140 570 OFFCURVE",
"18 411 OFFCURVE",
"24 213 CURVE",
"27 134 OFFCURVE",
"50 74 OFFCURVE",
"93 36 CURVE",
"39 -41 LINE",
"82 -64 LINE",
"134 9 LINE",
"166 -5 OFFCURVE",
"203 -13 OFFCURVE",
"247 -13 CURVE SMOOTH",
"444 -13 OFFCURVE",
"567 149 OFFCURVE",
"561 346 CURVE SMOOTH",
"559 428 OFFCURVE",
"533 489 OFFCURVE",
"486 526 CURVE"
);
},
{
closed = 1;
nodes = (
"201 186 LINE",
"200 194 OFFCURVE",
"200 202 OFFCURVE",
"200 211 CURVE",
"196 338 OFFCURVE",
"229 500 OFFCURVE",
"320 500 CURVE SMOOTH",
"342 500 OFFCURVE",
"359 488 OFFCURVE",
"370 457 CURVE"
);
},
{
closed = 1;
nodes = (
"382 383 LINE",
"383 373 OFFCURVE",
"383 361 OFFCURVE",
"384 348 CURVE SMOOTH",
"387 217 OFFCURVE",
"359 50 OFFCURVE",
"270 50 CURVE SMOOTH",
"240 50 OFFCURVE",
"221 68 OFFCURVE",
"210 110 CURVE"
);
}
);
width = 585;
}
);
unicode = 00F8;
},
{
glyphname = oe;
layers = (
{
layerId = UUID0;
paths = (
{
closed = 1;
nodes = (
"786 124 LINE",
"729 68 OFFCURVE",
"663 45 OFFCURVE",
"609 45 CURVE SMOOTH",
"507 45 OFFCURVE",
"479 153 OFFCURVE",
"486 228 CURVE",
"584 230 OFFCURVE",
"831 292 OFFCURVE",
"831 446 CURVE SMOOTH",
"831 515 OFFCURVE",
"787 567 OFFCURVE",
"694 567 CURVE SMOOTH",
"613 567 OFFCURVE",
"542 524 OFFCURVE",
"492 458 CURVE",
"463 528 OFFCURVE",
"404 567 OFFCURVE",
"319 567 CURVE SMOOTH",
"155 567 OFFCURVE",
"40 392 OFFCURVE",
"42 214 CURVE SMOOTH",
"45 72 OFFCURVE",
"112 -10 OFFCURVE",
"236 -10 CURVE SMOOTH",
"315 -10 OFFCURVE",
"382 31 OFFCURVE",
"431 93 CURVE",
"459 34 OFFCURVE",
"513 -10 OFFCURVE",
"601 -10 CURVE SMOOTH",
"696 -10 OFFCURVE",
"775 52 OFFCURVE",
"803 91 CURVE"
);
},
{
closed = 1;
nodes = (
"401 520 OFFCURVE",
"427 419 OFFCURVE",
"431 340 CURVE",
"418 303 OFFCURVE",
"404 221 OFFCURVE",
"409 197 CURVE",
"380 111 OFFCURVE",
"327 38 OFFCURVE",
"249 38 CURVE SMOOTH",
"166 38 OFFCURVE",
"121 104 OFFCURVE",
"119 215 CURVE SMOOTH",
"117 348 OFFCURVE",
"181 520 OFFCURVE",
"306 520 CURVE SMOOTH"
);
},
{
closed = 1;
nodes = (
"727 522 OFFCURVE",
"755 494 OFFCURVE",
"755 439 CURVE SMOOTH",
"755 335 OFFCURVE",
"599 275 OFFCURVE",
"488 272 CURVE",
"499 376 OFFCURVE",
"567 522 OFFCURVE",
"677 522 CURVE SMOOTH"
);
}
);
width = 877;
},
{
layerId = "809C3DC2-6073-4494-AA7C-C910FAB1DD5E";
paths = (
{
closed = 1;
nodes = (
"782 154 LINE",
"756 120 OFFCURVE",
"714 78 OFFCURVE",
"636 78 CURVE SMOOTH",
"580 78 OFFCURVE",
"545 121 OFFCURVE",
"545 222 CURVE",
"668 225 OFFCURVE",
"853 285 OFFCURVE",
"847 446 CURVE SMOOTH",
"845 515 OFFCURVE",
"798 568 OFFCURVE",
"687 568 CURVE SMOOTH",
"615 568 OFFCURVE",
"550 544 OFFCURVE",
"498 502 CURVE",
"463 545 OFFCURVE",
"411 568 OFFCURVE",
"337 568 CURVE SMOOTH",
"141 568 OFFCURVE",
"23 406 OFFCURVE",
"30 214 CURVE SMOOTH",
"35 72 OFFCURVE",
"105 -10 OFFCURVE",
"244 -10 CURVE SMOOTH",
"314 -10 OFFCURVE",
"377 12 OFFCURVE",
"426 49 CURVE",
"460 13 OFFCURVE",
"511 -10 OFFCURVE",
"583 -10 CURVE SMOOTH",
"709 -10 OFFCURVE",
"786 61 OFFCURVE",
"813 104 CURVE"
);
},
{
closed = 1;
nodes = (
"368 500 OFFCURVE",
"379 419 OFFCURVE",
"377 292 CURVE",
"372 266 OFFCURVE",
"369 239 OFFCURVE",
"370 210 CURVE",
"356 120 OFFCURVE",
"324 52 OFFCURVE",
"266 52 CURVE SMOOTH",
"220 52 OFFCURVE",
"208 106 OFFCURVE",
"204 210 CURVE SMOOTH",
"200 334 OFFCURVE",
"229 500 OFFCURVE",
"317 500 CURVE SMOOTH"
);
},
{
closed = 1;
nodes = (
"676 500 OFFCURVE",
"689 477 OFFCURVE",
"690 433 CURVE SMOOTH",
"694 336 OFFCURVE",
"602 284 OFFCURVE",
"545 281 CURVE",
"550 372 OFFCURVE",
"575 500 OFFCURVE",
"650 500 CURVE SMOOTH"
);
}
);
width = 867;
}
);
unicode = 0153;
},
{
glyphname = p;
layers = (
{
anchors = (
{
name = top;
position = "{351, 613}";
}
);
layerId = UUID0;
paths = (
{
closed = 1;
nodes = (
"203 558 LINE",
"185 568 LINE",
"80 547 LINE",
"73 516 LINE",
"126 497 LINE",
"24 -254 LINE",
"95 -254 LINE",
"130 2 LINE",
"156 -4 OFFCURVE",
"186 -10 OFFCURVE",
"211 -10 CURVE SMOOTH",
"409 -10 OFFCURVE",
"521 204 OFFCURVE",
"521 356 CURVE SMOOTH",
"521 479 OFFCURVE",
"467 568 OFFCURVE",
"354 568 CURVE SMOOTH",
"282 568 OFFCURVE",
"225 521 OFFCURVE",
"193 476 CURVE"
);
},
{
closed = 1;
nodes = (
"187 413 LINE",
"214 455 OFFCURVE",
"274 512 OFFCURVE",
"343 512 CURVE SMOOTH",
"404 512 OFFCURVE",
"444 456 OFFCURVE",
"444 351 CURVE SMOOTH",
"444 219 OFFCURVE",
"368 38 OFFCURVE",
"223 38 CURVE SMOOTH",
"192 38 OFFCURVE",
"161 44 OFFCURVE",
"138 62 CURVE"
);
}
);
width = 564;
},
{
anchors = (
{
name = top;
position = "{360, 613}";
}
);
layerId = "809C3DC2-6073-4494-AA7C-C910FAB1DD5E";
paths = (
{
closed = 1;
nodes = (
"266 556 LINE",
"241 568 LINE",
"52 542 LINE",
"44 499 LINE",
"97 470 LINE",
"-1 -254 LINE",
"154 -254 LINE",
"189 -5 LINE",
"205 -8 OFFCURVE",
"222 -10 OFFCURVE",
"238 -10 CURVE SMOOTH",
"437 -10 OFFCURVE",
"567 151 OFFCURVE",
"567 356 CURVE SMOOTH",
"567 491 OFFCURVE",
"510 568 OFFCURVE",
"397 568 CURVE SMOOTH",
"336 568 OFFCURVE",
"292 543 OFFCURVE",
"261 515 CURVE"
);
},
{
closed = 1;
nodes = (
"251 435 LINE",
"270 460 OFFCURVE",
"294 482 OFFCURVE",
"328 482 CURVE SMOOTH",
"377 482 OFFCURVE",
"398 423 OFFCURVE",
"398 356 CURVE SMOOTH",
"398 208 OFFCURVE",
"360 58 OFFCURVE",
"251 58 CURVE SMOOTH",
"229 58 OFFCURVE",
"213 60 OFFCURVE",
"199 65 CURVE"
);
}
);
width = 597;
}
);
unicode = 0070;
},
{
glyphname = thorn;
layers = (
{
layerId = UUID0;
paths = (
{
closed = 1;
nodes = (
"244 794 LINE",
"224 806 LINE",
"124 790 LINE",
"116 757 LINE",
"163 740 LINE",
"64 -2 LINE",
"29 -254 LINE",
"99 -254 LINE",
"128 -53 LINE",
"134 4 LINE",
"160 -3 OFFCURVE",
"193 -10 OFFCURVE",
"222 -10 CURVE SMOOTH",
"419 -10 OFFCURVE",
"531 206 OFFCURVE",
"531 356 CURVE SMOOTH",
"531 479 OFFCURVE",
"478 568 OFFCURVE",
"365 568 CURVE SMOOTH",
"292 568 OFFCURVE",
"232 520 OFFCURVE",
"201 475 CURVE"
);
},
{
closed = 1;
nodes = (
"191 407 LINE",
"216 449 OFFCURVE",
"280 512 OFFCURVE",
"353 512 CURVE SMOOTH",
"418 512 OFFCURVE",
"455 452 OFFCURVE",
"455 351 CURVE SMOOTH",
"455 225 OFFCURVE",
"383 38 OFFCURVE",
"233 38 CURVE SMOOTH",
"201 38 OFFCURVE",
"168 44 OFFCURVE",
"145 63 CURVE"
);
}
);
width = 574;
},
{
layerId = "809C3DC2-6073-4494-AA7C-C910FAB1DD5E";
paths = (
{
closed = 1;
nodes = (
"286 792 LINE",
"260 806 LINE",
"83 787 LINE",
"73 746 LINE",
"124 725 LINE",
"32 -10 LINE",
"-2 -254 LINE",
"151 -254 LINE",
"174 -69 LINE",
"178 -6 LINE",
"193 -8 OFFCURVE",
"208 -10 OFFCURVE",
"222 -10 CURVE SMOOTH",
"428 -10 OFFCURVE",
"555 151 OFFCURVE",
"555 356 CURVE SMOOTH",
"555 491 OFFCURVE",
"500 568 OFFCURVE",
"387 568 CURVE SMOOTH",
"328 568 OFFCURVE",
"282 544 OFFCURVE",
"250 517 CURVE"
);
},
{
closed = 1;
nodes = (
"240 439 LINE",
"260 463 OFFCURVE",
"286 482 OFFCURVE",
"318 482 CURVE SMOOTH",
"367 482 OFFCURVE",
"389 423 OFFCURVE",
"389 356 CURVE SMOOTH",
"389 208 OFFCURVE",
"347 58 OFFCURVE",
"235 58 CURVE SMOOTH",
"218 58 OFFCURVE",
"204 59 OFFCURVE",
"191 63 CURVE"
);
}
);
width = 587;
}
);
unicode = 00FE;
},
{
glyphname = q;
layers = (
{
anchors = (
{
name = cr;
position = "{230, 790}";
},
{
name = top;
position = "{333, 613}";
}
);
layerId = UUID0;
paths = (
{
closed = 1;
nodes = (
"500 556 LINE",
"455 547 LINE",
"428 558 OFFCURVE",
"387 568 OFFCURVE",
"354 568 CURVE SMOOTH",
"154 568 OFFCURVE",
"41 352 OFFCURVE",
"41 201 CURVE SMOOTH",
"41 79 OFFCURVE",
"93 -10 OFFCURVE",
"203 -10 CURVE SMOOTH",
"273 -10 OFFCURVE",
"332 33 OFFCURVE",
"365 75 CURVE",
"330 -194 LINE",
"328 -236 OFFCURVE",
"345 -253 OFFCURVE",
"376 -253 CURVE SMOOTH",
"430 -253 OFFCURVE",
"476 -202 OFFCURVE",
"484 -189 CURVE",
"471 -167 LINE",
"448 -192 OFFCURVE",
"430 -202 OFFCURVE",
"416 -202 CURVE SMOOTH",
"409 -202 OFFCURVE",
"402 -185 OFFCURVE",
"404 -166 CURVE SMOOTH"
);
},
{
closed = 1;
nodes = (
"374 141 LINE",
"345 100 OFFCURVE",
"284 46 OFFCURVE",
"215 46 CURVE SMOOTH",
"156 46 OFFCURVE",
"117 102 OFFCURVE",
"117 207 CURVE SMOOTH",
"117 339 OFFCURVE",
"194 520 OFFCURVE",
"342 520 CURVE SMOOTH",
"370 520 OFFCURVE",
"398 514 OFFCURVE",
"420 498 CURVE"
);
}
);
width = 562;
},
{
anchors = (
{
name = cr;
position = "{248, 790}";
},
{
name = top;
position = "{358, 613}";
}
);
layerId = "809C3DC2-6073-4494-AA7C-C910FAB1DD5E";
paths = (
{
closed = 1;
nodes = (
"563 568 LINE",
"484 544 LINE",
"456 555 OFFCURVE",
"403 568 OFFCURVE",
"360 568 CURVE SMOOTH",
"134 568 OFFCURVE",
"30 386 OFFCURVE",
"30 196 CURVE SMOOTH",
"30 84 OFFCURVE",
"76 -10 OFFCURVE",
"198 -10 CURVE SMOOTH",
"258 -10 OFFCURVE",
"302 14 OFFCURVE",
"332 41 CURVE",
"301 -169 LINE",
"298 -209 OFFCURVE",
"323 -253 OFFCURVE",
"400 -253 CURVE SMOOTH",
"488 -253 OFFCURVE",
"536 -197 OFFCURVE",
"547 -182 CURVE",
"533 -146 LINE",
"512 -163 OFFCURVE",
"500 -169 OFFCURVE",
"489 -169 CURVE SMOOTH",
"473 -169 OFFCURVE",
"467 -151 OFFCURVE",
"470 -134 CURVE SMOOTH"
);
},
{
closed = 1;
nodes = (
"344 123 LINE",
"326 98 OFFCURVE",
"299 75 OFFCURVE",
"267 75 CURVE SMOOTH",
"222 75 OFFCURVE",
"196 122 OFFCURVE",
"196 202 CURVE SMOOTH",
"196 332 OFFCURVE",
"230 500 OFFCURVE",
"349 500 CURVE SMOOTH",
"367 500 OFFCURVE",
"383 498 OFFCURVE",
"398 492 CURVE"
);
}
);
width = 599;
}
);
unicode = 0071;
},
{
glyphname = r;
layers = (
{
anchors = (
{
name = btm;
position = "{105, -83}";
},
{
name = top;
position = "{203, 613}";
}
);
layerId = UUID0;
paths = (
{
closed = 1;
nodes = (
"199 469 LINE",
"206 557 LINE",
"188 566 LINE",
"87 545 LINE",
"80 510 LINE",
"130 487 LINE",
"67 0 LINE",
"140 0 LINE",
"183 347 LINE",
"220 441 OFFCURVE",
"295 487 OFFCURVE",
"353 487 CURVE SMOOTH",
"375 487 OFFCURVE",
"390 485 OFFCURVE",
"399 480 CURVE",
"416 561 LINE",
"409 566 OFFCURVE",
"394 567 OFFCURVE",
"384 567 CURVE SMOOTH",
"291 567 OFFCURVE",
"216 479 OFFCURVE",
"193 427 CURVE"
);
}
);
width = 408;
},
{
anchors = (
{
name = btm;
position = "{102, -83}";
},
{
name = top;
position = "{251, 613}";
}
);
layerId = "809C3DC2-6073-4494-AA7C-C910FAB1DD5E";
paths = (
{
closed = 1;
nodes = (
"244 459 LINE",
"249 551 LINE",
"223 568 LINE",
"61 542 LINE",
"53 499 LINE",
"105 470 LINE",
"42 0 LINE",
"199 0 LINE",
"251 380 LINE",
"270 395 OFFCURVE",
"308 401 OFFCURVE",
"347 401 CURVE SMOOTH",
"379 401 OFFCURVE",
"398 389 OFFCURVE",
"402 384 CURVE",
"436 558 LINE",
"431 562 OFFCURVE",
"419 568 OFFCURVE",
"402 568 CURVE SMOOTH",
"323 568 OFFCURVE",
"264 500 OFFCURVE",
"242 423 CURVE"
);
}
);
width = 416;
}
);
unicode = 0072;
},
{
glyphname = s;
layers = (
{
anchors = (
{
name = btm;
position = "{177, -83}";
},
{
name = top;
position = "{266, 613}";
}
);
layerId = UUID0;
paths = (
{
closed = 1;
nodes = (
"392 548 LINE",
"375 556 OFFCURVE",
"319 568 OFFCURVE",
"267 568 CURVE SMOOTH",
"167 568 OFFCURVE",
"81 510 OFFCURVE",
"81 415 CURVE SMOOTH",
"81 335 OFFCURVE",
"151 278 OFFCURVE",
"188 253 CURVE SMOOTH",
"229 224 OFFCURVE",
"286 187 OFFCURVE",
"286 128 CURVE SMOOTH",
"286 59 OFFCURVE",
"225 43 OFFCURVE",
"169 43 CURVE SMOOTH",
"108 43 OFFCURVE",
"55 65 OFFCURVE",
"34 80 CURVE",
"21 21 LINE",
"38 5 OFFCURVE",
"105 -10 OFFCURVE",
"165 -10 CURVE SMOOTH",
"267 -10 OFFCURVE",
"356 43 OFFCURVE",
"356 142 CURVE SMOOTH",
"356 225 OFFCURVE",
"284 274 OFFCURVE",
"238 310 CURVE SMOOTH",
"197 340 OFFCURVE",
"147 380 OFFCURVE",
"151 438 CURVE SMOOTH",
"156 492 OFFCURVE",
"200 517 OFFCURVE",
"263 517 CURVE SMOOTH",
"325 517 OFFCURVE",
"371 491 OFFCURVE",
"377 482 CURVE"
);
}
);
width = 425;
},
{
anchors = (
{
name = btm;
position = "{179, -83}";
},
{
name = top;
position = "{274, 613}";
}
);
layerId = "809C3DC2-6073-4494-AA7C-C910FAB1DD5E";
paths = (
{
closed = 1;
nodes = (
"403 550 LINE",
"387 557 OFFCURVE",
"330 568 OFFCURVE",
"276 568 CURVE SMOOTH",
"138 568 OFFCURVE",
"47 499 OFFCURVE",
"47 400 CURVE SMOOTH",
"47 314 OFFCURVE",
"96 267 OFFCURVE",
"142 235 CURVE SMOOTH",
"197 197 OFFCURVE",
"231 167 OFFCURVE",
"231 128 CURVE SMOOTH",
"231 83 OFFCURVE",
"189 65 OFFCURVE",
"154 65 CURVE SMOOTH",
"97 65 OFFCURVE",
"45 102 OFFCURVE",
"24 122 CURVE",
"0 24 LINE",
"19 9 OFFCURVE",
"94 -10 OFFCURVE",
"157 -10 CURVE SMOOTH",
"280 -10 OFFCURVE",
"391 48 OFFCURVE",
"391 170 CURVE SMOOTH",
"391 252 OFFCURVE",
"348 292 OFFCURVE",
"292 332 CURVE SMOOTH",
"233 375 OFFCURVE",
"205 401 OFFCURVE",
"205 440 CURVE SMOOTH",
"205 479 OFFCURVE",
"241 498 OFFCURVE",
"283 498 CURVE SMOOTH",
"335 498 OFFCURVE",
"370 463 OFFCURVE",
"382 449 CURVE"
);
}
);
width = 428;
}
);
unicode = 0073;
},
{
glyphname = germandbls;
layers = (
{
layerId = UUID0;
paths = (
{
closed = 1;
nodes = (
"41 0 LINE",
"113 0 LINE",
"178 477 LINE SMOOTH",
"209 704 OFFCURVE",
"273 735 OFFCURVE",
"360 735 CURVE SMOOTH",
"428 735 OFFCURVE",
"455 683 OFFCURVE",
"455 631 CURVE SMOOTH",
"455 571 OFFCURVE",
"422 527 OFFCURVE",
"374 485 CURVE SMOOTH",
"349 458 OFFCURVE",
"329 438 OFFCURVE",
"329 396 CURVE SMOOTH",
"329 356 OFFCURVE",
"373 301 OFFCURVE",
"401 265 CURVE SMOOTH",
"422 234 OFFCURVE",
"444 191 OFFCURVE",
"444 146 CURVE SMOOTH",
"444 69 OFFCURVE",
"396 44 OFFCURVE",
"329 43 CURVE SMOOTH",
"284 43 OFFCURVE",
"230 74 OFFCURVE",
"214 93 CURVE",
"205 20 LINE",
"225 7 OFFCURVE",
"272 -8 OFFCURVE",
"317 -8 CURVE SMOOTH",
"423 -8 OFFCURVE",
"521 66 OFFCURVE",
"521 158 CURVE SMOOTH",
"521 222 OFFCURVE",
"490 267 OFFCURVE",
"464 306 CURVE SMOOTH",
"423 358 OFFCURVE",
"396 390 OFFCURVE",
"396 415 CURVE SMOOTH",
"396 482 OFFCURVE",
"529 531 OFFCURVE",
"529 642 CURVE SMOOTH",
"529 731 OFFCURVE",
"464 774 OFFCURVE",
"377 774 CURVE SMOOTH",
"271 774 OFFCURVE",
"143 745 OFFCURVE",
"104 453 CURVE SMOOTH"
);
}
);
width = 579;
},
{
layerId = "809C3DC2-6073-4494-AA7C-C910FAB1DD5E";
paths = (
{
closed = 1;
nodes = (
"19 0 LINE",
"182 0 LINE",
"234 423 LINE SMOOTH",
"257 636 OFFCURVE",
"303 715 OFFCURVE",
"371 715 CURVE SMOOTH",
"416 715 OFFCURVE",
"438 676 OFFCURVE",
"438 628 CURVE SMOOTH",
"438 573 OFFCURVE",
"410 528 OFFCURVE",
"370 488 CURVE SMOOTH",
"339 456 OFFCURVE",
"317 434 OFFCURVE",
"317 387 CURVE SMOOTH",
"317 345 OFFCURVE",
"346 290 OFFCURVE",
"371 255 CURVE SMOOTH",
"391 224 OFFCURVE",
"416 178 OFFCURVE",
"416 139 CURVE SMOOTH",
"416 64 OFFCURVE",
"378 57 OFFCURVE",
"336 57 CURVE SMOOTH",
"301 56 OFFCURVE",
"258 87 OFFCURVE",
"245 106 CURVE",
"232 15 LINE",
"255 3 OFFCURVE",
"294 -8 OFFCURVE",
"373 -8 CURVE SMOOTH",
"498 -8 OFFCURVE",
"581 56 OFFCURVE",
"581 167 CURVE SMOOTH",
"581 240 OFFCURVE",
"531 285 OFFCURVE",
"498 325 CURVE SMOOTH",
"465 369 OFFCURVE",
"449 389 OFFCURVE",
"449 411 CURVE SMOOTH",
"449 491 OFFCURVE",
"599 473 OFFCURVE",
"599 626 CURVE SMOOTH",
"599 721 OFFCURVE",
"503 774 OFFCURVE",
"400 774 CURVE SMOOTH",
"276 774 OFFCURVE",
"116 746 OFFCURVE",
"74 453 CURVE SMOOTH"
);
}
);
width = 606;
}
);
unicode = 00DF;
},
{
glyphname = schwa;
layers = (
{
layerId = UUID0;
paths = (
{
closed = 1;
nodes = (
"77 434 LINE",
"133 490 OFFCURVE",
"200 513 OFFCURVE",
"253 513 CURVE SMOOTH",
"356 513 OFFCURVE",
"383 405 OFFCURVE",
"376 330 CURVE",
"278 328 OFFCURVE",
"32 266 OFFCURVE",
"32 112 CURVE SMOOTH",
"32 43 OFFCURVE",
"76 -10 OFFCURVE",
"169 -10 CURVE SMOOTH",
"329 -10 OFFCURVE",
"449 160 OFFCURVE",
"454 345 CURVE SMOOTH",
"457 455 OFFCURVE",
"403 568 OFFCURVE",
"262 568 CURVE SMOOTH",
"167 568 OFFCURVE",
"87 506 OFFCURVE",
"59 467 CURVE"
);
},
{
closed = 1;
nodes = (
"364 182 OFFCURVE",
"296 36 OFFCURVE",
"186 36 CURVE SMOOTH",
"138 36 OFFCURVE",
"108 64 OFFCURVE",
"108 119 CURVE SMOOTH",
"108 223 OFFCURVE",
"264 283 OFFCURVE",
"375 286 CURVE"
);
}
);
width = 501;
},
{
layerId = "809C3DC2-6073-4494-AA7C-C910FAB1DD5E";
paths = (
{
closed = 1;
nodes = (
"69 402 LINE",
"95 436 OFFCURVE",
"137 483 OFFCURVE",
"214 483 CURVE SMOOTH",
"271 483 OFFCURVE",
"306 436 OFFCURVE",
"306 334 CURVE",
"183 331 OFFCURVE",
"-1 271 OFFCURVE",
"3 110 CURVE SMOOTH",
"6 42 OFFCURVE",
"53 -13 OFFCURVE",
"164 -13 CURVE SMOOTH",
"343 -13 OFFCURVE",
"482 138 OFFCURVE",
"481 346 CURVE SMOOTH",
"480 458 OFFCURVE",
"424 570 OFFCURVE",
"267 570 CURVE SMOOTH",
"142 570 OFFCURVE",
"64 496 OFFCURVE",
"38 453 CURVE"
);
},
{
closed = 1;
nodes = (
"300 185 OFFCURVE",
"275 56 OFFCURVE",
"200 56 CURVE SMOOTH",
"174 56 OFFCURVE",
"162 79 OFFCURVE",
"160 124 CURVE SMOOTH",
"157 220 OFFCURVE",
"249 272 OFFCURVE",
"306 275 CURVE"
);
}
);
width = 512;
}
);
unicode = 0259;
},
{
glyphname = t;
layers = (
{
anchors = (
{
name = btm;
position = "{141, -83}";
},
{
name = tbarbar;
position = "{195, 229}";
},
{
name = top;
position = "{210, 664}";
}
);
layerId = UUID0;
paths = (
{
closed = 1;
nodes = (
"208 509 LINE",
"346 509 LINE",
"353 563 LINE",
"214 563 LINE",
"231 691 LINE",
"195 691 LINE",
"182 650 OFFCURVE",
"159 585 OFFCURVE",
"142 562 CURVE",
"80 543 LINE",
"72 509 LINE",
"133 509 LINE",
"84 131 LINE SMOOTH",
"80 90 OFFCURVE",
"80 79 OFFCURVE",
"80 72 CURVE SMOOTH",
"80 15 OFFCURVE",
"111 -10 OFFCURVE",
"165 -10 CURVE SMOOTH",
"220 -10 OFFCURVE",
"290 32 OFFCURVE",
"311 57 CURVE",
"303 88 LINE",
"285 73 OFFCURVE",
"234 45 OFFCURVE",
"203 45 CURVE SMOOTH",
"165 45 OFFCURVE",
"155 57 OFFCURVE",
"155 92 CURVE SMOOTH",
"155 108 OFFCURVE",
"158 134 OFFCURVE",
"162 168 CURVE SMOOTH"
);
}
);
width = 357;
},
{
anchors = (
{
name = btm;
position = "{146, -83}";
},
{
name = tbarbar;
position = "{205, 229}";
},
{
name = top;
position = "{244, 681}";
}
);
layerId = "809C3DC2-6073-4494-AA7C-C910FAB1DD5E";
paths = (
{
closed = 1;
nodes = (
"260 485 LINE",
"361 485 LINE",
"372 564 LINE",
"271 564 LINE",
"287 691 LINE",
"194 691 LINE",
"174 643 OFFCURVE",
"145 586 OFFCURVE",
"116 562 CURVE",
"56 539 LINE",
"44 485 LINE",
"103 485 LINE",
"63 194 LINE SMOOTH",
"50 97 OFFCURVE",
"50 85 OFFCURVE",
"50 78 CURVE SMOOTH",
"50 11 OFFCURVE",
"96 -10 OFFCURVE",
"144 -10 CURVE SMOOTH",
"250 -10 OFFCURVE",
"314 40 OFFCURVE",
"343 72 CURVE",
"331 111 LINE",
"306 90 OFFCURVE",
"273 83 OFFCURVE",
"248 83 CURVE SMOOTH",
"224 83 OFFCURVE",
"212 96 OFFCURVE",
"212 123 CURVE SMOOTH",
"212 139 OFFCURVE",
"215 158 OFFCURVE",
"220 190 CURVE SMOOTH"
);
}
);
width = 354;
}
);
unicode = 0074;
},
{
glyphname = tbar;
layers = (
{
layerId = UUID0;
paths = (
{
closed = 1;
nodes = (
"181 310 LINE",
"324 310 LINE",
"330 361 LINE",
"188 361 LINE",
"208 509 LINE",
"346 509 LINE",
"353 563 LINE",
"214 563 LINE",
"231 691 LINE",
"195 691 LINE",
"182 650 OFFCURVE",
"159 585 OFFCURVE",
"142 562 CURVE",
"80 543 LINE",
"72 509 LINE",
"133 509 LINE",
"114 361 LINE",
"45 361 LINE",
"40 310 LINE",
"107 310 LINE",
"84 131 LINE",
"80 90 OFFCURVE",
"80 79 OFFCURVE",
"80 72 CURVE SMOOTH",
"80 15 OFFCURVE",
"111 -10 OFFCURVE",
"165 -10 CURVE SMOOTH",
"220 -10 OFFCURVE",
"290 32 OFFCURVE",
"311 57 CURVE",
"303 88 LINE",
"285 73 OFFCURVE",
"234 45 OFFCURVE",
"203 45 CURVE SMOOTH",
"165 45 OFFCURVE",
"155 57 OFFCURVE",
"155 92 CURVE SMOOTH",
"155 108 OFFCURVE",
"158 134 OFFCURVE",
"162 168 CURVE SMOOTH"
);
}
);
width = 357;
},
{
layerId = "809C3DC2-6073-4494-AA7C-C910FAB1DD5E";
paths = (
{
closed = 1;
nodes = (
"235 303 LINE",
"318 303 LINE",
"326 367 LINE",
"244 367 LINE",
"260 485 LINE",
"361 485 LINE",
"372 564 LINE",
"271 564 LINE",
"287 691 LINE",
"194 691 LINE",
"174 643 OFFCURVE",
"145 586 OFFCURVE",
"116 562 CURVE",
"56 539 LINE",
"44 485 LINE",
"103 485 LINE",
"86 367 LINE",
"42 367 LINE",
"34 303 LINE",
"78 303 LINE",
"63 194 LINE SMOOTH",
"50 97 OFFCURVE",
"50 85 OFFCURVE",
"50 78 CURVE SMOOTH",
"50 11 OFFCURVE",
"96 -10 OFFCURVE",
"144 -10 CURVE SMOOTH",
"250 -10 OFFCURVE",
"314 40 OFFCURVE",
"343 72 CURVE",
"331 111 LINE",
"306 90 OFFCURVE",
"273 83 OFFCURVE",
"248 83 CURVE SMOOTH",
"224 83 OFFCURVE",
"212 96 OFFCURVE",
"212 123 CURVE SMOOTH",
"212 139 OFFCURVE",
"215 158 OFFCURVE",
"220 190 CURVE SMOOTH"
);
}
);
width = 354;
}
);
unicode = 0167;
},
{
glyphname = u;
layers = (
{
anchors = (
{
name = bottom;
position = "{250, 0}";
},
{
name = ogonek;
position = "{469, 10}";
},
{
name = top;
position = "{330, 613}";
},
{
name = topright;
position = "{571, 554}";
}
);
layerId = UUID0;
paths = (
{
closed = 1;
nodes = (
"203 556 LINE",
"184 566 LINE",
"83 545 LINE",
"77 510 LINE",
"125 487 LINE",
"98 296 LINE SMOOTH",
"90 238 OFFCURVE",
"81 169 OFFCURVE",
"81 124 CURVE SMOOTH",
"81 21 OFFCURVE",
"127 -10 OFFCURVE",
"200 -10 CURVE SMOOTH",
"279 -10 OFFCURVE",
"344 44 OFFCURVE",
"386 96 CURVE",
"387 95 LINE",
"386 82 OFFCURVE",
"383 62 OFFCURVE",
"382 58 CURVE SMOOTH",
"375 17 OFFCURVE",
"392 -9 OFFCURVE",
"427 -9 CURVE SMOOTH",
"480 -9 OFFCURVE",
"526 42 OFFCURVE",
"534 55 CURVE",
"522 77 LINE",
"498 52 OFFCURVE",
"481 42 OFFCURVE",
"467 42 CURVE SMOOTH",
"458 42 OFFCURVE",
"452 53 OFFCURVE",
"455 78 CURVE SMOOTH",
"519 562 LINE",
"447 562 LINE",
"394 153 LINE",
"357 100 OFFCURVE",
"288 44 OFFCURVE",
"230 44 CURVE SMOOTH",
"184 44 OFFCURVE",
"153 60 OFFCURVE",
"153 136 CURVE SMOOTH",
"153 188 OFFCURVE",
"162 234 OFFCURVE",
"169 292 CURVE"
);
}
);
width = 587;
},
{
anchors = (
{
name = bottom;
position = "{275, 0}";
},
{
name = ogonek;
position = "{503, 10}";
},
{
name = top;
position = "{350, 613}";
},
{
name = topright;
position = "{638, 564}";
}
);
layerId = "809C3DC2-6073-4494-AA7C-C910FAB1DD5E";
paths = (
{
closed = 1;
nodes = (
"272 556 LINE",
"247 568 LINE",
"50 552 LINE",
"42 509 LINE",
"104 470 LINE",
"78 292 LINE SMOOTH",
"69 231 OFFCURVE",
"57 161 OFFCURVE",
"57 115 CURVE SMOOTH",
"59 21 OFFCURVE",
"141 -10 OFFCURVE",
"200 -10 CURVE SMOOTH",
"286 -10 OFFCURVE",
"336 33 OFFCURVE",
"369 71 CURVE",
"371 70 LINE",
"369 60 OFFCURVE",
"369 50 OFFCURVE",
"371 41 CURVE SMOOTH",
"378 10 OFFCURVE",
"406 -10 OFFCURVE",
"460 -10 CURVE SMOOTH",
"538 -10 OFFCURVE",
"587 44 OFFCURVE",
"597 61 CURVE",
"583 96 LINE",
"558 78 OFFCURVE",
"550 74 OFFCURVE",
"539 74 CURVE SMOOTH",
"524 74 OFFCURVE",
"516 85 OFFCURVE",
"519 111 CURVE SMOOTH",
"582 564 LINE",
"422 564 LINE",
"362 121 LINE",
"339 95 OFFCURVE",
"306 72 OFFCURVE",
"267 72 CURVE SMOOTH",
"235 72 OFFCURVE",
"221 91 OFFCURVE",
"221 138 CURVE SMOOTH",
"221 166 OFFCURVE",
"231 230 OFFCURVE",
"239 288 CURVE SMOOTH"
);
}
);
width = 625;
}
);
unicode = 0075;
},
{
glyphname = v;
layers = (
{
anchors = (
{
name = top;
position = "{298, 613}";
}
);
layerId = UUID0;
paths = (
{
closed = 1;
nodes = (
"137 172 LINE",
"166 -10 LINE",
"223 -4 LINE",
"341 153 LINE SMOOTH",
"407 245 OFFCURVE",
"485 380 OFFCURVE",
"485 475 CURVE SMOOTH",
"485 530 OFFCURVE",
"466 567 OFFCURVE",
"433 567 CURVE SMOOTH",
"413 567 OFFCURVE",
"398 554 OFFCURVE",
"398 525 CURVE SMOOTH",
"398 506 OFFCURVE",
"417 484 OFFCURVE",
"413 450 CURVE SMOOTH",
"396 337 OFFCURVE",
"347 247 OFFCURVE",
"286 160 CURVE SMOOTH",
"211 64 LINE",
"200 172 LINE",
"162 500 LINE SMOOTH",
"157 539 OFFCURVE",
"148 567 OFFCURVE",
"103 567 CURVE SMOOTH",
"57 567 OFFCURVE",
"22 526 OFFCURVE",
"16 516 CURVE",
"27 491 LINE",
"36 499 OFFCURVE",
"49 511 OFFCURVE",
"64 511 CURVE SMOOTH",
"78 511 OFFCURVE",
"85 497 OFFCURVE",
"88 477 CURVE SMOOTH"
);
}
);
width = 517;
},
{
anchors = (
{
name = top;
position = "{320, 613}";
}
);
layerId = "809C3DC2-6073-4494-AA7C-C910FAB1DD5E";
paths = (
{
closed = 1;
nodes = (
"120 173 LINE",
"158 -10 LINE",
"252 -4 LINE",
"317 66 LINE SMOOTH",
"451 209 OFFCURVE",
"537 362 OFFCURVE",
"535 462 CURVE SMOOTH",
"534 515 OFFCURVE",
"510 568 OFFCURVE",
"446 568 CURVE SMOOTH",
"395 568 OFFCURVE",
"369 539 OFFCURVE",
"369 500 CURVE SMOOTH",
"369 465 OFFCURVE",
"385 425 OFFCURVE",
"385 392 CURVE SMOOTH",
"385 311 OFFCURVE",
"362 242 OFFCURVE",
"307 155 CURVE SMOOTH",
"282 117 LINE",
"267 222 LINE",
"221 501 LINE SMOOTH",
"214 544 OFFCURVE",
"187 568 OFFCURVE",
"128 568 CURVE SMOOTH",
"61 568 OFFCURVE",
"9 521 OFFCURVE",
"0 511 CURVE",
"15 473 LINE",
"22 477 OFFCURVE",
"28 480 OFFCURVE",
"39 480 CURVE SMOOTH",
"49 479 OFFCURVE",
"56 473 OFFCURVE",
"60 453 CURVE SMOOTH"
);
}
);
width = 529;
}
);
unicode = 0076;
},
{
glyphname = w;
layers = (
{
anchors = (
{
name = top;
position = "{492, 613}";
}
);
layerId = UUID0;
paths = (
{
closed = 1;
nodes = (
"140 158 LINE",
"167 -10 LINE",
"231 -4 LINE",
"301 141 LINE",
"421 392 LINE",
"443 458 LINE",
"447 393 LINE",
"471 157 LINE",
"488 -9 LINE",
"559 -4 LINE",
"659 153 LINE",
"723 249 OFFCURVE",
"795 381 OFFCURVE",
"795 471 CURVE SMOOTH",
"795 534 OFFCURVE",
"779 567 OFFCURVE",
"745 567 CURVE SMOOTH",
"724 567 OFFCURVE",
"709 553 OFFCURVE",
"709 525 CURVE SMOOTH",
"709 507 OFFCURVE",
"725 485 OFFCURVE",
"724 451 CURVE SMOOTH",
"719 342 OFFCURVE",
"640 199 OFFCURVE",
"608 154 CURVE",
"542 59 LINE",
"534 152 LINE",
"498 563 LINE",
"432 563 LINE",
"250 142 LINE",
"212 59 LINE",
"203 152 LINE",
"165 500 LINE",
"159 543 OFFCURVE",
"149 567 OFFCURVE",
"104 567 CURVE SMOOTH",
"58 567 OFFCURVE",
"22 526 OFFCURVE",
"16 516 CURVE",
"27 491 LINE",
"38 500 OFFCURVE",
"50 512 OFFCURVE",
"65 511 CURVE SMOOTH",
"78 511 OFFCURVE",
"84 501 OFFCURVE",
"89 477 CURVE"
);
}
);
width = 828;
},
{
anchors = (
{
name = top;
position = "{495, 613}";
}
);
layerId = "809C3DC2-6073-4494-AA7C-C910FAB1DD5E";
paths = (
{
closed = 1;
nodes = (
"123 173 LINE",
"163 -10 LINE",
"294 -2 LINE",
"375 201 LINE",
"411 304 LINE",
"431 379 LINE",
"438 304 LINE",
"454 173 LINE",
"484 -9 LINE",
"592 -4 LINE",
"652 66 LINE",
"724 148 OFFCURVE",
"870 362 OFFCURVE",
"869 462 CURVE SMOOTH",
"868 515 OFFCURVE",
"844 568 OFFCURVE",
"779 568 CURVE SMOOTH",
"729 568 OFFCURVE",
"702 539 OFFCURVE",
"702 500 CURVE SMOOTH",
"702 465 OFFCURVE",
"718 425 OFFCURVE",
"718 392 CURVE SMOOTH",
"718 311 OFFCURVE",
"691 242 OFFCURVE",
"636 155 CURVE",
"613 117 LINE",
"605 198 LINE",
"562 564 LINE",
"407 564 LINE",
"315 249 LINE",
"272 111 LINE",
"260 214 LINE",
"221 501 LINE",
"214 544 OFFCURVE",
"187 568 OFFCURVE",
"128 568 CURVE SMOOTH",
"63 568 OFFCURVE",
"9 523 OFFCURVE",
"0 511 CURVE",
"15 473 LINE",
"23 477 OFFCURVE",
"27 480 OFFCURVE",
"39 480 CURVE SMOOTH",
"49 480 OFFCURVE",
"55 473 OFFCURVE",
"60 453 CURVE SMOOTH"
);
}
);
width = 862;
}
);
unicode = 0077;
},
{
glyphname = x;
layers = (
{
anchors = (
{
name = top;
position = "{260, 613}";
}
);
layerId = UUID0;
paths = (
{
closed = 1;
nodes = (
"213 292 LINE",
"-10 0 LINE",
"68 0 LINE",
"235 232 LINE",
"299 42 LINE SMOOTH",
"310 11 OFFCURVE",
"322 -10 OFFCURVE",
"364 -10 CURVE SMOOTH",
"416 -10 OFFCURVE",
"464 43 OFFCURVE",
"470 56 CURVE",
"456 78 LINE",
"435 55 OFFCURVE",
"414 42 OFFCURVE",
"398 42 CURVE SMOOTH",
"382 42 OFFCURVE",
"375 53 OFFCURVE",
"367 72 CURVE",
"275 276 LINE",
"495 562 LINE",
"416 562 LINE",
"253 336 LINE",
"200 515 LINE SMOOTH",
"190 547 OFFCURVE",
"175 566 OFFCURVE",
"131 566 CURVE SMOOTH",
"81 566 OFFCURVE",
"41 521 OFFCURVE",
"34 509 CURVE",
"49 487 LINE",
"56 498 OFFCURVE",
"78 514 OFFCURVE",
"98 514 CURVE SMOOTH",
"118 514 OFFCURVE",
"125 502 OFFCURVE",
"133 484 CURVE SMOOTH"
);
}
);
width = 496;
},
{
anchors = (
{
name = top;
position = "{266, 613}";
}
);
layerId = "809C3DC2-6073-4494-AA7C-C910FAB1DD5E";
paths = (
{
closed = 1;
nodes = (
"179 278 LINE",
"-48 0 LINE",
"110 0 LINE",
"221 183 LINE",
"268 42 LINE",
"279 11 OFFCURVE",
"304 -10 OFFCURVE",
"354 -10 CURVE SMOOTH",
"456 -10 OFFCURVE",
"509 51 OFFCURVE",
"518 65 CURVE",
"496 106 LINE",
"471 88 OFFCURVE",
"459 87 OFFCURVE",
"449 87 CURVE SMOOTH",
"432 87 OFFCURVE",
"408 127 OFFCURVE",
"399 146 CURVE SMOOTH",
"327 290 LINE",
"544 564 LINE",
"396 564 LINE",
"287 387 LINE",
"246 517 LINE SMOOTH",
"235 549 OFFCURVE",
"202 568 OFFCURVE",
"150 568 CURVE SMOOTH",
"65 568 OFFCURVE",
"10 524 OFFCURVE",
"1 512 CURVE",
"20 471 LINE",
"33 479 OFFCURVE",
"41 480 OFFCURVE",
"59 480 CURVE SMOOTH",
"75 480 OFFCURVE",
"88 458 OFFCURVE",
"97 440 CURVE SMOOTH"
);
}
);
width = 503;
}
);
unicode = 0078;
},
{
glyphname = y;
layers = (
{
anchors = (
{
name = bottom;
position = "{359, 0}";
},
{
name = top;
position = "{306, 613}";
}
);
layerId = UUID0;
paths = (
{
closed = 1;
nodes = (
"184 -39 LINE",
"218 -39 LINE",
"163 -150 OFFCURVE",
"89 -189 OFFCURVE",
"40 -189 CURVE SMOOTH",
"-7 -189 OFFCURVE",
"-32 -175 OFFCURVE",
"-42 -170 CURVE",
"-60 -232 LINE",
"-40 -239 OFFCURVE",
"-3 -247 OFFCURVE",
"25 -247 CURVE SMOOTH",
"115 -247 OFFCURVE",
"170 -195 OFFCURVE",
"194 -161 CURVE",
"234 -113 OFFCURVE",
"294 -18 OFFCURVE",
"372 142 CURVE",
"421 233 OFFCURVE",
"500 367 OFFCURVE",
"500 478 CURVE SMOOTH",
"500 534 OFFCURVE",
"481 565 OFFCURVE",
"448 565 CURVE SMOOTH",
"428 565 OFFCURVE",
"412 554 OFFCURVE",
"412 525 CURVE SMOOTH",
"412 505 OFFCURVE",
"429 489 OFFCURVE",
"429 463 CURVE SMOOTH",
"429 352 OFFCURVE",
"370 258 OFFCURVE",
"317 148 CURVE",
"233 -13 LINE",
"219 126 LINE",
"202 250 OFFCURVE",
"185 375 OFFCURVE",
"168 499 CURVE",
"163 540 OFFCURVE",
"153 566 OFFCURVE",
"109 566 CURVE SMOOTH",
"63 566 OFFCURVE",
"22 519 OFFCURVE",
"15 507 CURVE",
"27 482 LINE",
"46 501 OFFCURVE",
"58 510 OFFCURVE",
"71 510 CURVE SMOOTH",
"82 510 OFFCURVE",
"90 504 OFFCURVE",
"95 476 CURVE"
);
}
);
width = 523;
},
{
anchors = (
{
name = bottom;
position = "{447, 0}";
},
{
name = top;
position = "{303, 613}";
}
);
layerId = "809C3DC2-6073-4494-AA7C-C910FAB1DD5E";
paths = (
{
closed = 1;
nodes = (
"167 -35 LINE",
"265 -35 LINE",
"209 -125 OFFCURVE",
"163 -161 OFFCURVE",
"101 -161 CURVE SMOOTH",
"69 -161 OFFCURVE",
"25 -147 OFFCURVE",
"10 -132 CURVE",
"-28 -231 LINE",
"-16 -241 OFFCURVE",
"34 -253 OFFCURVE",
"74 -253 CURVE SMOOTH",
"145 -253 OFFCURVE",
"219 -226 OFFCURVE",
"289 -112 CURVE SMOOTH",
"330 -45 OFFCURVE",
"429 114 OFFCURVE",
"466 197 CURVE",
"512 292 OFFCURVE",
"543 362 OFFCURVE",
"543 467 CURVE SMOOTH",
"543 515 OFFCURVE",
"513 568 OFFCURVE",
"454 568 CURVE SMOOTH",
"402 568 OFFCURVE",
"376 538 OFFCURVE",
"376 500 CURVE SMOOTH",
"376 439 OFFCURVE",
"403 429 OFFCURVE",
"403 360 CURVE SMOOTH",
"403 279 OFFCURVE",
"371 182 OFFCURVE",
"326 85 CURVE SMOOTH",
"296 21 LINE",
"282 117 LINE",
"262 245 OFFCURVE",
"241 372 OFFCURVE",
"221 501 CURVE SMOOTH",
"214 544 OFFCURVE",
"187 568 OFFCURVE",
"128 568 CURVE SMOOTH",
"63 568 OFFCURVE",
"10 523 OFFCURVE",
"0 511 CURVE",
"15 473 LINE",
"23 478 OFFCURVE",
"31 480 OFFCURVE",
"39 480 CURVE SMOOTH",
"49 480 OFFCURVE",
"55 473 OFFCURVE",
"60 453 CURVE SMOOTH"
);
}
);
width = 539;
}
);
unicode = 0079;
},
{
glyphname = z;
layers = (
{
anchors = (
{
name = top;
position = "{300, 613}";
}
);
layerId = UUID0;
paths = (
{
closed = 1;
nodes = (
"334 412 LINE",
"7 14 LINE",
"32 -11 LINE",
"47 1 OFFCURVE",
"62 6 OFFCURVE",
"80 6 CURVE SMOOTH",
"138 6 OFFCURVE",
"284 -11 OFFCURVE",
"356 -11 CURVE SMOOTH",
"380 -11 OFFCURVE",
"396 -6 OFFCURVE",
"405 -1 CURVE SMOOTH",
"433 18 OFFCURVE",
"445 95 OFFCURVE",
"449 154 CURVE",
"417 154 LINE",
"408 92 OFFCURVE",
"384 58 OFFCURVE",
"332 58 CURVE SMOOTH",
"315 58 OFFCURVE",
"164 61 OFFCURVE",
"109 62 CURVE",
"266 234 LINE",
"500 543 LINE",
"479 565 LINE",
"463 553 OFFCURVE",
"448 551 OFFCURVE",
"433 551 CURVE SMOOTH",
"374 551 OFFCURVE",
"224 566 OFFCURVE",
"154 566 CURVE SMOOTH",
"129 566 OFFCURVE",
"118 562 OFFCURVE",
"110 556 CURVE SMOOTH",
"82 537 OFFCURVE",
"72 439 OFFCURVE",
"73 397 CURVE",
"105 397 LINE",
"108 445 OFFCURVE",
"130 494 OFFCURVE",
"163 496 CURVE",
"170 500 OFFCURVE",
"367 494 OFFCURVE",
"406 493 CURVE"
);
}
);
width = 505;
},
{
anchors = (
{
name = top;
position = "{318, 613}";
}
);
layerId = "809C3DC2-6073-4494-AA7C-C910FAB1DD5E";
paths = (
{
closed = 1;
nodes = (
"297 406 LINE",
"-19 19 LINE",
"12 -11 LINE",
"24 1 OFFCURVE",
"50 5 OFFCURVE",
"64 5 CURVE SMOOTH",
"125 5 OFFCURVE",
"295 -11 OFFCURVE",
"372 -11 CURVE SMOOTH",
"397 -11 OFFCURVE",
"415 -7 OFFCURVE",
"423 -1 CURVE SMOOTH",
"465 27 OFFCURVE",
"462 159 OFFCURVE",
"456 205 CURVE",
"414 205 LINE",
"410 161 OFFCURVE",
"380 125 OFFCURVE",
"325 125 CURVE SMOOTH",
"272 125 OFFCURVE",
"218 125 OFFCURVE",
"165 125 CURVE",
"200 146 LINE",
"517 538 LINE",
"491 568 LINE",
"478 556 OFFCURVE",
"460 551 OFFCURVE",
"435 551 CURVE SMOOTH",
"373 551 OFFCURVE",
"225 568 OFFCURVE",
"148 568 CURVE SMOOTH",
"124 568 OFFCURVE",
"106 561 OFFCURVE",
"99 557 CURVE SMOOTH",
"55 539 OFFCURVE",
"58 403 OFFCURVE",
"66 358 CURVE",
"109 358 LINE",
"112 399 OFFCURVE",
"142 432 OFFCURVE",
"194 432 CURVE SMOOTH",
"243 432 OFFCURVE",
"293 431 OFFCURVE",
"342 431 CURVE"
);
}
);
width = 494;
}
);
unicode = 007A;
},
{
glyphname = f_f;
layers = (
{
layerId = UUID0;
paths = (
{
closed = 1;
nodes = (
"496 562 LINE",
"424 538 LINE",
"418 508 LINE",
"486 508 LINE",
"415 -62 LINE",
"405 -139 OFFCURVE",
"387 -194 OFFCURVE",
"342 -194 CURVE SMOOTH",
"315 -195 OFFCURVE",
"269 -181 OFFCURVE",
"263 -178 CURVE",
"243 -244 LINE",
"257 -248 OFFCURVE",
"291 -251 OFFCURVE",
"322 -250 CURVE SMOOTH",
"416 -250 OFFCURVE",
"476 -165 OFFCURVE",
"492 -36 CURVE SMOOTH",
"562 508 LINE",
"691 508 LINE",
"698 564 LINE",
"568 564 LINE",
"575 617 LINE SMOOTH",
"585 701 OFFCURVE",
"624 758 OFFCURVE",
"682 758 CURVE SMOOTH",
"717 759 OFFCURVE",
"740 746 OFFCURVE",
"753 737 CURVE",
"775 803 LINE",
"750 813 OFFCURVE",
"724 815 OFFCURVE",
"698 815 CURVE SMOOTH",
"608 815 OFFCURVE",
"521 723 OFFCURVE",
"503 610 CURVE SMOOTH"
);
},
{
closed = 1;
nodes = (
"152 562 LINE",
"81 538 LINE",
"74 508 LINE",
"143 508 LINE",
"71 -62 LINE",
"61 -139 OFFCURVE",
"43 -194 OFFCURVE",
"-2 -194 CURVE SMOOTH",
"-29 -195 OFFCURVE",
"-75 -181 OFFCURVE",
"-81 -178 CURVE",
"-101 -244 LINE",
"-87 -248 OFFCURVE",
"-53 -251 OFFCURVE",
"-21 -250 CURVE SMOOTH",
"72 -250 OFFCURVE",
"132 -165 OFFCURVE",
"148 -36 CURVE SMOOTH",
"218 508 LINE",
"345 508 LINE",
"352 564 LINE",
"225 564 LINE",
"229 602 LINE SMOOTH",
"240 686 OFFCURVE",
"278 743 OFFCURVE",
"335 744 CURVE SMOOTH",
"371 744 OFFCURVE",
"394 731 OFFCURVE",
"406 723 CURVE",
"428 788 LINE",
"403 799 OFFCURVE",
"377 801 OFFCURVE",
"352 801 CURVE SMOOTH",
"262 801 OFFCURVE",
"175 708 OFFCURVE",
"157 595 CURVE SMOOTH"
);
}
);
width = 687;
},
{
layerId = "809C3DC2-6073-4494-AA7C-C910FAB1DD5E";
paths = (
{
closed = 1;
nodes = (
"472 562 LINE",
"405 531 LINE",
"395 480 LINE",
"456 480 LINE",
"389 -76 LINE",
"380 -143 OFFCURVE",
"359 -170 OFFCURVE",
"328 -170 CURVE SMOOTH",
"304 -170 OFFCURVE",
"258 -149 OFFCURVE",
"251 -146 CURVE",
"223 -239 LINE",
"239 -243 OFFCURVE",
"280 -250 OFFCURVE",
"315 -250 CURVE SMOOTH",
"469 -250 OFFCURVE",
"545 -82 OFFCURVE",
"564 77 CURVE SMOOTH",
"612 480 LINE",
"709 480 LINE",
"724 564 LINE",
"624 564 LINE",
"635 637 LINE SMOOTH",
"645 698 OFFCURVE",
"648 739 OFFCURVE",
"699 739 CURVE SMOOTH",
"731 739 OFFCURVE",
"752 725 OFFCURVE",
"765 716 CURVE",
"795 803 LINE",
"769 813 OFFCURVE",
"735 815 OFFCURVE",
"708 815 CURVE SMOOTH",
"578 815 OFFCURVE",
"498 721 OFFCURVE",
"478 600 CURVE SMOOTH"
);
},
{
closed = 1;
nodes = (
"125 562 LINE",
"59 531 LINE",
"49 480 LINE",
"110 480 LINE",
"42 -79 LINE",
"34 -146 OFFCURVE",
"12 -173 OFFCURVE",
"-19 -173 CURVE SMOOTH",
"-42 -173 OFFCURVE",
"-89 -152 OFFCURVE",
"-95 -149 CURVE",
"-124 -239 LINE",
"-107 -243 OFFCURVE",
"-66 -250 OFFCURVE",
"-31 -250 CURVE SMOOTH",
"123 -250 OFFCURVE",
"196 -92 OFFCURVE",
"212 41 CURVE SMOOTH",
"266 480 LINE",
"353 480 LINE",
"368 564 LINE",
"278 564 LINE",
"286 625 LINE SMOOTH",
"298 702 OFFCURVE",
"300 728 OFFCURVE",
"351 728 CURVE SMOOTH",
"384 728 OFFCURVE",
"404 713 OFFCURVE",
"417 704 CURVE",
"447 791 LINE",
"420 802 OFFCURVE",
"387 804 OFFCURVE",
"360 804 CURVE SMOOTH",
"229 804 OFFCURVE",
"150 709 OFFCURVE",
"130 588 CURVE SMOOTH"
);
}
);
width = 692;
}
);
},
{
glyphname = f_f_i;
layers = (
{
layerId = UUID0;
paths = (
{
closed = 1;
nodes = (
"152 562 LINE",
"81 538 LINE",
"74 508 LINE",
"143 508 LINE",
"71 -62 LINE",
"61 -139 OFFCURVE",
"43 -194 OFFCURVE",
"-2 -194 CURVE SMOOTH",
"-29 -195 OFFCURVE",
"-75 -181 OFFCURVE",
"-81 -178 CURVE",
"-101 -244 LINE",
"-87 -248 OFFCURVE",
"-53 -251 OFFCURVE",
"-21 -250 CURVE SMOOTH",
"72 -250 OFFCURVE",
"132 -165 OFFCURVE",
"148 -36 CURVE SMOOTH",
"218 508 LINE",
"345 508 LINE",
"352 564 LINE",
"225 564 LINE",
"229 602 LINE SMOOTH",
"240 686 OFFCURVE",
"278 743 OFFCURVE",
"335 744 CURVE SMOOTH",
"371 744 OFFCURVE",
"394 731 OFFCURVE",
"406 723 CURVE",
"428 788 LINE",
"403 799 OFFCURVE",
"377 801 OFFCURVE",
"352 801 CURVE SMOOTH",
"262 801 OFFCURVE",
"175 708 OFFCURVE",
"157 595 CURVE SMOOTH"
);
},
{
closed = 1;
nodes = (
"496 562 LINE",
"424 538 LINE",
"418 508 LINE",
"486 508 LINE",
"415 -62 LINE",
"405 -139 OFFCURVE",
"387 -194 OFFCURVE",
"342 -194 CURVE SMOOTH",
"315 -195 OFFCURVE",
"269 -181 OFFCURVE",
"263 -178 CURVE",
"243 -244 LINE",
"257 -248 OFFCURVE",
"291 -251 OFFCURVE",
"322 -250 CURVE SMOOTH",
"416 -250 OFFCURVE",
"476 -165 OFFCURVE",
"492 -36 CURVE SMOOTH",
"562 508 LINE",
"689 508 LINE",
"695 564 LINE",
"568 564 LINE",
"575 617 LINE SMOOTH",
"585 701 OFFCURVE",
"622 758 OFFCURVE",
"677 758 CURVE SMOOTH",
"709 759 OFFCURVE",
"730 746 OFFCURVE",
"742 737 CURVE",
"764 803 LINE",
"741 813 OFFCURVE",
"717 815 OFFCURVE",
"693 815 CURVE SMOOTH",
"605 815 OFFCURVE",
"521 723 OFFCURVE",
"503 610 CURVE SMOOTH"
);
},
{
closed = 1;
nodes = (
"920 556 LINE",
"901 566 LINE",
"779 545 LINE",
"772 514 LINE",
"838 494 LINE",
"818 348 OFFCURVE",
"779 110 OFFCURVE",
"775 48 CURVE SMOOTH",
"771 5 OFFCURVE",
"795 -10 OFFCURVE",
"827 -10 CURVE SMOOTH",
"881 -10 OFFCURVE",
"922 41 OFFCURVE",
"931 55 CURVE",
"918 76 LINE",
"895 51 OFFCURVE",
"880 42 OFFCURVE",
"866 42 CURVE SMOOTH",
"856 42 OFFCURVE",
"848 53 OFFCURVE",
"852 77 CURVE SMOOTH"
);
},
{
closed = 1;
nodes = (
"885 792 OFFCURVE",
"856 766 OFFCURVE",
"855 732 CURVE SMOOTH",
"855 704 OFFCURVE",
"874 684 OFFCURVE",
"898 684 CURVE SMOOTH",
"928 684 OFFCURVE",
"954 712 OFFCURVE",
"955 747 CURVE SMOOTH",
"955 773 OFFCURVE",
"938 792 OFFCURVE",
"910 792 CURVE SMOOTH"
);
}
);
width = 996;
},
{
layerId = "809C3DC2-6073-4494-AA7C-C910FAB1DD5E";
paths = (
{
closed = 1;
nodes = (
"125 562 LINE",
"59 531 LINE",
"49 480 LINE",
"110 480 LINE",
"42 -79 LINE",
"34 -146 OFFCURVE",
"12 -173 OFFCURVE",
"-19 -173 CURVE SMOOTH",
"-42 -173 OFFCURVE",
"-89 -152 OFFCURVE",
"-95 -149 CURVE",
"-124 -239 LINE",
"-107 -243 OFFCURVE",
"-66 -250 OFFCURVE",
"-31 -250 CURVE SMOOTH",
"123 -250 OFFCURVE",
"196 -92 OFFCURVE",
"212 41 CURVE SMOOTH",
"266 480 LINE",
"353 480 LINE",
"368 564 LINE",
"278 564 LINE",
"286 625 LINE SMOOTH",
"298 702 OFFCURVE",
"300 728 OFFCURVE",
"351 728 CURVE SMOOTH",
"384 728 OFFCURVE",
"404 713 OFFCURVE",
"417 704 CURVE",
"447 791 LINE",
"420 802 OFFCURVE",
"387 804 OFFCURVE",
"360 804 CURVE SMOOTH",
"229 804 OFFCURVE",
"150 709 OFFCURVE",
"130 588 CURVE SMOOTH"
);
},
{
closed = 1;
nodes = (
"472 562 LINE",
"406 531 LINE",
"396 480 LINE",
"457 480 LINE",
"389 -79 LINE",
"380 -146 OFFCURVE",
"359 -173 OFFCURVE",
"328 -173 CURVE SMOOTH",
"304 -173 OFFCURVE",
"258 -152 OFFCURVE",
"251 -149 CURVE",
"223 -239 LINE",
"239 -243 OFFCURVE",
"280 -250 OFFCURVE",
"316 -250 CURVE SMOOTH",
"470 -250 OFFCURVE",
"543 -92 OFFCURVE",
"559 41 CURVE SMOOTH",
"613 480 LINE",
"695 480 LINE",
"710 564 LINE",
"625 564 LINE",
"634 637 LINE SMOOTH",
"646 714 OFFCURVE",
"648 739 OFFCURVE",
"700 739 CURVE SMOOTH",
"733 739 OFFCURVE",
"753 725 OFFCURVE",
"765 716 CURVE",
"795 803 LINE",
"769 813 OFFCURVE",
"736 815 OFFCURVE",
"708 815 CURVE SMOOTH",
"578 815 OFFCURVE",
"499 721 OFFCURVE",
"479 600 CURVE SMOOTH"
);
},
{
closed = 1;
nodes = (
"974 556 LINE",
"947 568 LINE",
"751 542 LINE",
"744 499 LINE",
"800 468 LINE",
"775 280 OFFCURVE",
"757 141 OFFCURVE",
"745 63 CURVE SMOOTH",
"739 21 OFFCURVE",
"773 -10 OFFCURVE",
"842 -10 CURVE SMOOTH",
"928 -10 OFFCURVE",
"975 46 OFFCURVE",
"987 61 CURVE",
"973 96 LINE",
"951 80 OFFCURVE",
"939 74 OFFCURVE",
"928 74 CURVE SMOOTH",
"914 74 OFFCURVE",
"908 87 OFFCURVE",
"911 111 CURVE SMOOTH"
);
},
{
closed = 1;
nodes = (
"864 831 OFFCURVE",
"829 788 OFFCURVE",
"827 735 CURVE SMOOTH",
"826 694 OFFCURVE",
"863 653 OFFCURVE",
"906 653 CURVE SMOOTH",
"976 653 OFFCURVE",
"1005 698 OFFCURVE",
"1007 752 CURVE SMOOTH",
"1008 791 OFFCURVE",
"976 831 OFFCURVE",
"924 831 CURVE SMOOTH"
);
}
);
width = 1019;
}
);
},
{
glyphname = f_f_i_dflt;
layers = (
{
layerId = UUID0;
paths = (
{
closed = 1;
nodes = (
"152 562 LINE",
"81 538 LINE",
"74 508 LINE",
"143 508 LINE",
"71 -62 LINE",
"61 -139 OFFCURVE",
"43 -194 OFFCURVE",
"-2 -194 CURVE SMOOTH",
"-29 -195 OFFCURVE",
"-75 -181 OFFCURVE",
"-81 -178 CURVE",
"-101 -244 LINE",
"-87 -248 OFFCURVE",
"-53 -251 OFFCURVE",
"-21 -250 CURVE SMOOTH",
"72 -250 OFFCURVE",
"132 -165 OFFCURVE",
"148 -36 CURVE SMOOTH",
"218 508 LINE",
"345 508 LINE",
"352 564 LINE",
"225 564 LINE",
"229 602 LINE SMOOTH",
"240 686 OFFCURVE",
"278 743 OFFCURVE",
"335 744 CURVE SMOOTH",
"371 744 OFFCURVE",
"394 731 OFFCURVE",
"406 723 CURVE",
"428 788 LINE",
"403 799 OFFCURVE",
"377 801 OFFCURVE",
"352 801 CURVE SMOOTH",
"262 801 OFFCURVE",
"175 708 OFFCURVE",
"157 595 CURVE SMOOTH"
);
},
{
closed = 1;
nodes = (
"496 562 LINE",
"424 538 LINE",
"418 508 LINE",
"486 508 LINE",
"415 -62 LINE",
"405 -139 OFFCURVE",
"387 -194 OFFCURVE",
"342 -194 CURVE SMOOTH",
"315 -195 OFFCURVE",
"269 -181 OFFCURVE",
"263 -178 CURVE",
"243 -244 LINE",
"257 -248 OFFCURVE",
"291 -251 OFFCURVE",
"322 -250 CURVE SMOOTH",
"416 -250 OFFCURVE",
"476 -165 OFFCURVE",
"492 -36 CURVE SMOOTH",
"562 508 LINE",
"689 508 LINE",
"695 564 LINE",
"568 564 LINE",
"575 617 LINE SMOOTH",
"585 701 OFFCURVE",
"622 758 OFFCURVE",
"677 758 CURVE SMOOTH",
"709 759 OFFCURVE",
"730 746 OFFCURVE",
"742 737 CURVE",
"764 803 LINE",
"741 813 OFFCURVE",
"717 815 OFFCURVE",
"693 815 CURVE SMOOTH",
"605 815 OFFCURVE",
"521 723 OFFCURVE",
"503 610 CURVE SMOOTH"
);
},
{
closed = 1;
nodes = (
"920 556 LINE",
"901 566 LINE",
"779 545 LINE",
"772 514 LINE",
"838 494 LINE",
"818 348 OFFCURVE",
"779 110 OFFCURVE",
"775 48 CURVE SMOOTH",
"771 5 OFFCURVE",
"795 -10 OFFCURVE",
"827 -10 CURVE SMOOTH",
"881 -10 OFFCURVE",
"922 41 OFFCURVE",
"931 55 CURVE",
"918 76 LINE",
"895 51 OFFCURVE",
"880 42 OFFCURVE",
"866 42 CURVE SMOOTH",
"856 42 OFFCURVE",
"848 53 OFFCURVE",
"852 77 CURVE SMOOTH"
);
}
);
width = 996;
},
{
layerId = "809C3DC2-6073-4494-AA7C-C910FAB1DD5E";
paths = (
{
closed = 1;
nodes = (
"125 562 LINE",
"59 531 LINE",
"49 480 LINE",
"110 480 LINE",
"42 -79 LINE",
"34 -146 OFFCURVE",
"12 -173 OFFCURVE",
"-19 -173 CURVE SMOOTH",
"-42 -173 OFFCURVE",
"-89 -152 OFFCURVE",
"-95 -149 CURVE",
"-124 -239 LINE",
"-107 -243 OFFCURVE",
"-66 -250 OFFCURVE",
"-31 -250 CURVE SMOOTH",
"123 -250 OFFCURVE",
"196 -92 OFFCURVE",
"212 41 CURVE SMOOTH",
"266 480 LINE",
"353 480 LINE",
"368 564 LINE",
"278 564 LINE",
"286 625 LINE SMOOTH",
"298 702 OFFCURVE",
"300 728 OFFCURVE",
"351 728 CURVE SMOOTH",
"384 728 OFFCURVE",
"404 713 OFFCURVE",
"417 704 CURVE",
"447 791 LINE",
"420 802 OFFCURVE",
"387 804 OFFCURVE",
"360 804 CURVE SMOOTH",
"229 804 OFFCURVE",
"150 709 OFFCURVE",
"130 588 CURVE SMOOTH"
);
},
{
closed = 1;
nodes = (
"472 562 LINE",
"406 531 LINE",
"396 480 LINE",
"457 480 LINE",
"389 -79 LINE",
"380 -146 OFFCURVE",
"359 -173 OFFCURVE",
"328 -173 CURVE SMOOTH",
"304 -173 OFFCURVE",
"258 -152 OFFCURVE",
"251 -149 CURVE",
"223 -239 LINE",
"239 -243 OFFCURVE",
"280 -250 OFFCURVE",
"316 -250 CURVE SMOOTH",
"470 -250 OFFCURVE",
"543 -92 OFFCURVE",
"559 41 CURVE SMOOTH",
"613 480 LINE",
"695 480 LINE",
"710 564 LINE",
"625 564 LINE",
"634 637 LINE SMOOTH",
"646 714 OFFCURVE",
"648 739 OFFCURVE",
"700 739 CURVE SMOOTH",
"733 739 OFFCURVE",
"753 725 OFFCURVE",
"765 716 CURVE",
"795 803 LINE",
"769 813 OFFCURVE",
"736 815 OFFCURVE",
"708 815 CURVE SMOOTH",
"578 815 OFFCURVE",
"499 721 OFFCURVE",
"479 600 CURVE SMOOTH"
);
},
{
closed = 1;
nodes = (
"974 556 LINE",
"947 568 LINE",
"751 542 LINE",
"744 499 LINE",
"800 468 LINE",
"775 280 OFFCURVE",
"757 141 OFFCURVE",
"745 63 CURVE SMOOTH",
"739 21 OFFCURVE",
"773 -10 OFFCURVE",
"842 -10 CURVE SMOOTH",
"928 -10 OFFCURVE",
"975 46 OFFCURVE",
"987 61 CURVE",
"973 96 LINE",
"951 80 OFFCURVE",
"939 74 OFFCURVE",
"928 74 CURVE SMOOTH",
"914 74 OFFCURVE",
"908 87 OFFCURVE",
"911 111 CURVE SMOOTH"
);
}
);
width = 1019;
}
);
},
{
glyphname = f_i_trk;
layers = (
{
layerId = UUID0;
paths = (
{
closed = 1;
nodes = (
"152 562 LINE",
"81 538 LINE",
"74 508 LINE",
"143 508 LINE",
"71 -62 LINE",
"61 -139 OFFCURVE",
"43 -194 OFFCURVE",
"-2 -194 CURVE SMOOTH",
"-29 -195 OFFCURVE",
"-75 -181 OFFCURVE",
"-81 -178 CURVE",
"-101 -244 LINE",
"-87 -248 OFFCURVE",
"-53 -251 OFFCURVE",
"-21 -250 CURVE SMOOTH",
"72 -250 OFFCURVE",
"132 -165 OFFCURVE",
"148 -36 CURVE SMOOTH",
"218 508 LINE",
"345 508 LINE",
"351 564 LINE",
"225 564 LINE",
"231 617 LINE SMOOTH",
"242 701 OFFCURVE",
"278 758 OFFCURVE",
"333 758 CURVE SMOOTH",
"366 759 OFFCURVE",
"387 746 OFFCURVE",
"398 737 CURVE",
"420 803 LINE",
"397 813 OFFCURVE",
"373 815 OFFCURVE",
"349 815 CURVE SMOOTH",
"261 815 OFFCURVE",
"177 723 OFFCURVE",
"159 610 CURVE SMOOTH"
);
},
{
closed = 1;
nodes = (
"577 556 LINE",
"558 566 LINE",
"436 545 LINE",
"429 514 LINE",
"495 494 LINE",
"475 348 OFFCURVE",
"436 110 OFFCURVE",
"432 48 CURVE SMOOTH",
"428 5 OFFCURVE",
"452 -10 OFFCURVE",
"484 -10 CURVE SMOOTH",
"538 -10 OFFCURVE",
"579 41 OFFCURVE",
"588 55 CURVE",
"575 76 LINE",
"552 51 OFFCURVE",
"537 42 OFFCURVE",
"522 42 CURVE SMOOTH",
"513 42 OFFCURVE",
"505 53 OFFCURVE",
"508 77 CURVE SMOOTH"
);
}
);
width = 653;
},
{
layerId = "809C3DC2-6073-4494-AA7C-C910FAB1DD5E";
paths = (
{
closed = 1;
nodes = (
"125 562 LINE",
"59 531 LINE",
"49 480 LINE",
"110 480 LINE",
"42 -79 LINE",
"34 -146 OFFCURVE",
"12 -173 OFFCURVE",
"-19 -173 CURVE SMOOTH",
"-42 -173 OFFCURVE",
"-89 -152 OFFCURVE",
"-95 -149 CURVE",
"-124 -239 LINE",
"-107 -243 OFFCURVE",
"-66 -250 OFFCURVE",
"-31 -250 CURVE SMOOTH",
"123 -250 OFFCURVE",
"196 -92 OFFCURVE",
"212 41 CURVE SMOOTH",
"266 480 LINE",
"348 480 LINE",
"363 564 LINE",
"278 564 LINE",
"288 637 LINE SMOOTH",
"300 714 OFFCURVE",
"302 739 OFFCURVE",
"353 739 CURVE SMOOTH",
"386 739 OFFCURVE",
"406 725 OFFCURVE",
"418 716 CURVE",
"449 803 LINE",
"422 813 OFFCURVE",
"389 815 OFFCURVE",
"362 815 CURVE SMOOTH",
"231 815 OFFCURVE",
"152 721 OFFCURVE",
"132 600 CURVE SMOOTH"
);
},
{
closed = 1;
nodes = (
"627 556 LINE",
"601 568 LINE",
"405 542 LINE",
"397 499 LINE",
"454 468 LINE",
"429 280 OFFCURVE",
"411 141 OFFCURVE",
"399 63 CURVE SMOOTH",
"393 21 OFFCURVE",
"427 -10 OFFCURVE",
"496 -10 CURVE SMOOTH",
"582 -10 OFFCURVE",
"629 46 OFFCURVE",
"641 61 CURVE",
"627 96 LINE",
"604 80 OFFCURVE",
"593 74 OFFCURVE",
"582 74 CURVE SMOOTH",
"567 74 OFFCURVE",
"562 87 OFFCURVE",
"565 111 CURVE SMOOTH"
);
}
);
width = 673;
}
);
},
{
glyphname = fi;
layers = (
{
layerId = UUID0;
paths = (
{
closed = 1;
nodes = (
"152 562 LINE",
"81 538 LINE",
"74 508 LINE",
"143 508 LINE",
"71 -62 LINE",
"61 -139 OFFCURVE",
"43 -194 OFFCURVE",
"-2 -194 CURVE SMOOTH",
"-29 -195 OFFCURVE",
"-75 -181 OFFCURVE",
"-81 -178 CURVE",
"-101 -244 LINE",
"-87 -248 OFFCURVE",
"-53 -251 OFFCURVE",
"-21 -250 CURVE SMOOTH",
"72 -250 OFFCURVE",
"132 -165 OFFCURVE",
"148 -36 CURVE SMOOTH",
"218 508 LINE",
"345 508 LINE",
"351 564 LINE",
"225 564 LINE",
"231 617 LINE SMOOTH",
"242 701 OFFCURVE",
"278 758 OFFCURVE",
"333 758 CURVE SMOOTH",
"366 759 OFFCURVE",
"387 746 OFFCURVE",
"398 737 CURVE",
"420 803 LINE",
"397 813 OFFCURVE",
"373 815 OFFCURVE",
"349 815 CURVE SMOOTH",
"261 815 OFFCURVE",
"177 723 OFFCURVE",
"159 610 CURVE SMOOTH"
);
},
{
closed = 1;
nodes = (
"577 556 LINE",
"558 566 LINE",
"436 545 LINE",
"429 514 LINE",
"495 494 LINE",
"475 348 OFFCURVE",
"436 110 OFFCURVE",
"432 48 CURVE SMOOTH",
"428 5 OFFCURVE",
"452 -10 OFFCURVE",
"484 -10 CURVE SMOOTH",
"538 -10 OFFCURVE",
"579 41 OFFCURVE",
"588 55 CURVE",
"575 76 LINE",
"552 51 OFFCURVE",
"537 42 OFFCURVE",
"522 42 CURVE SMOOTH",
"513 42 OFFCURVE",
"505 53 OFFCURVE",
"508 77 CURVE SMOOTH"
);
},
{
closed = 1;
nodes = (
"541 792 OFFCURVE",
"513 766 OFFCURVE",
"512 732 CURVE SMOOTH",
"511 704 OFFCURVE",
"530 684 OFFCURVE",
"554 684 CURVE SMOOTH",
"584 684 OFFCURVE",
"610 712 OFFCURVE",
"611 747 CURVE SMOOTH",
"611 773 OFFCURVE",
"594 792 OFFCURVE",
"566 792 CURVE SMOOTH"
);
}
);
width = 653;
},
{
layerId = "809C3DC2-6073-4494-AA7C-C910FAB1DD5E";
paths = (
{
closed = 1;
nodes = (
"125 562 LINE",
"59 531 LINE",
"49 480 LINE",
"110 480 LINE",
"42 -79 LINE",
"34 -146 OFFCURVE",
"12 -173 OFFCURVE",
"-19 -173 CURVE SMOOTH",
"-42 -173 OFFCURVE",
"-89 -152 OFFCURVE",
"-95 -149 CURVE",
"-124 -239 LINE",
"-107 -243 OFFCURVE",
"-66 -250 OFFCURVE",
"-31 -250 CURVE SMOOTH",
"123 -250 OFFCURVE",
"196 -92 OFFCURVE",
"212 41 CURVE SMOOTH",
"266 480 LINE",
"348 480 LINE",
"363 564 LINE",
"278 564 LINE",
"288 637 LINE SMOOTH",
"300 714 OFFCURVE",
"302 739 OFFCURVE",
"353 739 CURVE SMOOTH",
"386 739 OFFCURVE",
"406 725 OFFCURVE",
"418 716 CURVE",
"449 803 LINE",
"422 813 OFFCURVE",
"389 815 OFFCURVE",
"362 815 CURVE SMOOTH",
"231 815 OFFCURVE",
"152 721 OFFCURVE",
"132 600 CURVE SMOOTH"
);
},
{
closed = 1;
nodes = (
"627 556 LINE",
"601 568 LINE",
"405 542 LINE",
"397 499 LINE",
"454 468 LINE",
"429 280 OFFCURVE",
"411 141 OFFCURVE",
"399 63 CURVE SMOOTH",
"393 21 OFFCURVE",
"427 -10 OFFCURVE",
"496 -10 CURVE SMOOTH",
"582 -10 OFFCURVE",
"629 46 OFFCURVE",
"641 61 CURVE",
"627 96 LINE",
"604 80 OFFCURVE",
"593 74 OFFCURVE",
"582 74 CURVE SMOOTH",
"567 74 OFFCURVE",
"562 87 OFFCURVE",
"565 111 CURVE SMOOTH"
);
},
{
closed = 1;
nodes = (
"518 831 OFFCURVE",
"482 788 OFFCURVE",
"481 735 CURVE SMOOTH",
"480 694 OFFCURVE",
"517 653 OFFCURVE",
"560 653 CURVE SMOOTH",
"629 653 OFFCURVE",
"659 698 OFFCURVE",
"661 752 CURVE SMOOTH",
"662 791 OFFCURVE",
"629 831 OFFCURVE",
"578 831 CURVE SMOOTH"
);
}
);
width = 673;
}
);
unicode = FB01;
},
{
glyphname = fl;
layers = (
{
layerId = UUID0;
paths = (
{
closed = 1;
nodes = (
"152 562 LINE",
"81 538 LINE",
"74 508 LINE",
"143 508 LINE",
"71 -62 LINE",
"61 -139 OFFCURVE",
"43 -194 OFFCURVE",
"-2 -194 CURVE SMOOTH",
"-29 -195 OFFCURVE",
"-75 -181 OFFCURVE",
"-81 -178 CURVE",
"-101 -244 LINE",
"-87 -248 OFFCURVE",
"-53 -251 OFFCURVE",
"-21 -250 CURVE SMOOTH",
"72 -250 OFFCURVE",
"132 -165 OFFCURVE",
"148 -36 CURVE SMOOTH",
"218 508 LINE",
"345 508 LINE",
"351 564 LINE",
"225 564 LINE",
"231 617 LINE SMOOTH",
"242 701 OFFCURVE",
"278 758 OFFCURVE",
"333 758 CURVE SMOOTH",
"366 759 OFFCURVE",
"387 746 OFFCURVE",
"398 737 CURVE",
"420 803 LINE",
"397 813 OFFCURVE",
"373 815 OFFCURVE",
"349 815 CURVE SMOOTH",
"261 815 OFFCURVE",
"177 723 OFFCURVE",
"159 610 CURVE SMOOTH"
);
},
{
closed = 1;
nodes = (
"591 794 LINE",
"572 806 LINE",
"463 789 LINE",
"456 756 LINE",
"513 740 LINE",
"420 83 LINE SMOOTH",
"419 73 OFFCURVE",
"417 57 OFFCURVE",
"417 50 CURVE SMOOTH",
"417 7 OFFCURVE",
"433 -10 OFFCURVE",
"466 -10 CURVE SMOOTH",
"520 -10 OFFCURVE",
"563 41 OFFCURVE",
"570 55 CURVE",
"558 76 LINE",
"533 50 OFFCURVE",
"518 42 OFFCURVE",
"503 42 CURVE SMOOTH",
"494 42 OFFCURVE",
"487 54 OFFCURVE",
"490 77 CURVE SMOOTH"
);
}
);
width = 639;
},
{
layerId = "809C3DC2-6073-4494-AA7C-C910FAB1DD5E";
paths = (
{
closed = 1;
nodes = (
"125 562 LINE",
"59 531 LINE",
"49 480 LINE",
"110 480 LINE",
"42 -79 LINE",
"34 -146 OFFCURVE",
"12 -173 OFFCURVE",
"-19 -173 CURVE",
"-42 -173 OFFCURVE",
"-89 -152 OFFCURVE",
"-95 -149 CURVE",
"-124 -239 LINE",
"-107 -243 OFFCURVE",
"-66 -250 OFFCURVE",
"-31 -250 CURVE SMOOTH",
"123 -250 OFFCURVE",
"196 -92 OFFCURVE",
"212 41 CURVE SMOOTH",
"266 480 LINE",
"348 480 LINE",
"363 564 LINE",
"278 564 LINE",
"288 637 LINE",
"300 714 OFFCURVE",
"302 739 OFFCURVE",
"353 739 CURVE SMOOTH",
"386 739 OFFCURVE",
"406 725 OFFCURVE",
"418 716 CURVE",
"449 803 LINE",
"422 813 OFFCURVE",
"389 815 OFFCURVE",
"362 815 CURVE SMOOTH",
"231 815 OFFCURVE",
"152 721 OFFCURVE",
"132 600 CURVE SMOOTH"
);
},
{
closed = 1;
nodes = (
"645 792 LINE",
"620 806 LINE",
"431 786 LINE",
"415 744 LINE",
"476 724 LINE",
"393 94 LINE SMOOTH",
"392 86 OFFCURVE",
"389 68 OFFCURVE",
"389 56 CURVE SMOOTH",
"390 8 OFFCURVE",
"441 -10 OFFCURVE",
"494 -10 CURVE SMOOTH",
"574 -10 OFFCURVE",
"620 46 OFFCURVE",
"630 61 CURVE",
"617 96 LINE",
"591 77 OFFCURVE",
"582 74 OFFCURVE",
"572 74 CURVE SMOOTH",
"556 74 OFFCURVE",
"551 88 OFFCURVE",
"555 111 CURVE"
);
}
);
width = 656;
}
);
unicode = FB02;
},
{
glyphname = ordfeminine;
layers = (
{
layerId = UUID0;
paths = (
{
closed = 1;
nodes = (
"420 771 LINE",
"381 756 LINE",
"359 763 OFFCURVE",
"325 770 OFFCURVE",
"296 770 CURVE SMOOTH",
"154 770 OFFCURVE",
"46 632 OFFCURVE",
"46 508 CURVE SMOOTH",
"46 418 OFFCURVE",
"89 363 OFFCURVE",
"167 363 CURVE SMOOTH",
"231 363 OFFCURVE",
"271 400 OFFCURVE",
"296 432 CURVE",
"286 389 OFFCURVE",
"306 363 OFFCURVE",
"334 363 CURVE SMOOTH",
"368 363 OFFCURVE",
"408 392 OFFCURVE",
"413 399 CURVE",
"403 416 LINE",
"387 404 OFFCURVE",
"376 400 OFFCURVE",
"369 400 CURVE SMOOTH",
"357 400 OFFCURVE",
"356 417 OFFCURVE",
"359 440 CURVE"
);
},
{
closed = 1;
nodes = (
"298 464 LINE",
"272 439 OFFCURVE",
"233 409 OFFCURVE",
"196 409 CURVE SMOOTH",
"139 409 OFFCURVE",
"115 449 OFFCURVE",
"115 514 CURVE SMOOTH",
"115 616 OFFCURVE",
"178 730 OFFCURVE",
"287 730 CURVE SMOOTH",
"304 730 OFFCURVE",
"328 720 OFFCURVE",
"342 704 CURVE"
);
}
);
width = 417;
},
{
layerId = "809C3DC2-6073-4494-AA7C-C910FAB1DD5E";
paths = (
{
closed = 1;
nodes = (
"447 774 LINE",
"375 757 LINE",
"354 764 OFFCURVE",
"320 770 OFFCURVE",
"292 770 CURVE SMOOTH",
"138 770 OFFCURVE",
"21 632 OFFCURVE",
"21 508 CURVE SMOOTH",
"21 418 OFFCURVE",
"64 363 OFFCURVE",
"138 363 CURVE SMOOTH",
"207 363 OFFCURVE",
"240 396 OFFCURVE",
"263 424 CURVE",
"259 389 OFFCURVE",
"281 363 OFFCURVE",
"326 363 CURVE SMOOTH",
"371 363 OFFCURVE",
"433 399 OFFCURVE",
"439 406 CURVE",
"423 433 LINE",
"408 424 OFFCURVE",
"401 423 OFFCURVE",
"396 423 CURVE SMOOTH",
"390 423 OFFCURVE",
"387 433 OFFCURVE",
"390 449 CURVE SMOOTH"
);
},
{
closed = 1;
nodes = (
"261 457 LINE",
"246 442 OFFCURVE",
"224 430 OFFCURVE",
"202 430 CURVE SMOOTH",
"170 430 OFFCURVE",
"160 457 OFFCURVE",
"160 515 CURVE SMOOTH",
"160 610 OFFCURVE",
"193 720 OFFCURVE",
"280 720 CURVE SMOOTH",
"288 720 OFFCURVE",
"297 717 OFFCURVE",
"306 712 CURVE"
);
}
);
width = 417;
}
);
unicode = 00AA;
},
{
glyphname = ordmasculine;
layers = (
{
layerId = UUID0;
paths = (
{
closed = 1;
nodes = (
"169 777 OFFCURVE",
"44 688 OFFCURVE",
"44 530 CURVE SMOOTH",
"44 426 OFFCURVE",
"108 359 OFFCURVE",
"203 358 CURVE SMOOTH",
"310 356 OFFCURVE",
"428 444 OFFCURVE",
"428 603 CURVE SMOOTH",
"428 703 OFFCURVE",
"373 774 OFFCURVE",
"269 776 CURVE SMOOTH"
);
},
{
closed = 1;
nodes = (
"321 737 OFFCURVE",
"355 677 OFFCURVE",
"355 596 CURVE SMOOTH",
"355 494 OFFCURVE",
"306 398 OFFCURVE",
"207 399 CURVE SMOOTH",
"157 399 OFFCURVE",
"116 453 OFFCURVE",
"116 537 CURVE SMOOTH",
"116 632 OFFCURVE",
"168 737 OFFCURVE",
"260 737 CURVE SMOOTH"
);
}
);
width = 417;
},
{
layerId = "809C3DC2-6073-4494-AA7C-C910FAB1DD5E";
paths = (
{
closed = 1;
nodes = (
"149 777 OFFCURVE",
"28 688 OFFCURVE",
"28 530 CURVE SMOOTH",
"28 426 OFFCURVE",
"101 358 OFFCURVE",
"202 358 CURVE SMOOTH",
"328 358 OFFCURVE",
"441 444 OFFCURVE",
"441 603 CURVE SMOOTH",
"441 703 OFFCURVE",
"378 775 OFFCURVE",
"267 776 CURVE SMOOTH"
);
},
{
closed = 1;
nodes = (
"291 724 OFFCURVE",
"311 671 OFFCURVE",
"311 594 CURVE SMOOTH",
"311 508 OFFCURVE",
"291 413 OFFCURVE",
"207 414 CURVE SMOOTH",
"179 415 OFFCURVE",
"157 461 OFFCURVE",
"157 539 CURVE SMOOTH",
"157 617 OFFCURVE",
"179 723 OFFCURVE",
"256 723 CURVE SMOOTH"
);
}
);
width = 417;
}
);
unicode = 00BA;
},
{
glyphname = "Eldescender-cy";
layers = (
{
background = {
anchors = (
{
name = btm;
position = "{-189, -83}";
},
{
name = top;
position = "{-186, 830}";
}
);
paths = (
{
closed = 1;
nodes = (
"436 0 LINE",
"554 0 LINE",
"558 -34 OFFCURVE",
"547 -117 OFFCURVE",
"545 -166 CURVE",
"591 -166 LINE",
"599 -126 OFFCURVE",
"625 0 OFFCURVE",
"633 50 CURVE",
"510 50 LINE",
"443 50 LINE"
);
},
{
closed = 1;
nodes = (
"436 0 LINE",
"554 0 LINE",
"558 -34 OFFCURVE",
"547 -117 OFFCURVE",
"545 -166 CURVE",
"591 -166 LINE",
"599 -126 OFFCURVE",
"625 0 OFFCURVE",
"633 50 CURVE",
"510 50 LINE",
"443 50 LINE"
);
}
);
};
components = (
{
name = "El-cy";
}
);
layerId = UUID0;
paths = (
{
closed = 1;
nodes = (
"510 50 LINE",
"443 50 LINE",
"436 0 LINE",
"554 0 LINE",
"558 -34 OFFCURVE",
"547 -117 OFFCURVE",
"545 -166 CURVE",
"591 -166 LINE",
"599 -126 OFFCURVE",
"625 0 OFFCURVE",
"633 50 CURVE"
);
}
);
width = 688;
},
{
background = {
anchors = (
{
name = btm;
position = "{-164, -83}";
},
{
name = top;
position = "{-160, 830}";
}
);
guideLines = (
{
position = "{193, 66}";
}
);
paths = (
{
closed = 1;
nodes = (
"543 0 LINE",
"547 -44 OFFCURVE",
"540 -142 OFFCURVE",
"537 -186 CURVE",
"622 -186 LINE",
"637 -134 OFFCURVE",
"671 -52 OFFCURVE",
"689 66 CURVE",
"587 66 LINE",
"415 66 LINE",
"406 0 LINE"
);
}
);
};
components = (
{
name = "El-cy";
}
);
layerId = "809C3DC2-6073-4494-AA7C-C910FAB1DD5E";
paths = (
{
closed = 1;
nodes = (
"587 66 LINE",
"415 66 LINE",
"406 0 LINE",
"543 0 LINE",
"547 -44 OFFCURVE",
"540 -142 OFFCURVE",
"537 -186 CURVE",
"622 -186 LINE",
"637 -134 OFFCURVE",
"671 -52 OFFCURVE",
"689 66 CURVE"
);
}
);
width = 754;
}
);
rightMetricsKey = "Tse-cy";
unicode = 052E;
},
{
glyphname = "EnLeftHook-cy";
layers = (
{
background = {
anchors = (
{
name = btm;
position = "{403, -82}";
},
{
name = top;
position = "{432, 830}";
}
);
paths = (
{
closed = 1;
nodes = (
"553 326 LINE",
"518 46 LINE",
"439 34 LINE",
"437 0 LINE",
"663 0 LINE",
"666 34 LINE",
"590 46 LINE",
"625 326 LINE"
);
},
{
closed = 1;
nodes = (
"625 326 LINE",
"671 694 LINE",
"740 704 LINE",
"745 743 LINE",
"530 743 LINE",
"526 704 LINE",
"598 694 LINE",
"562 405 LINE",
"208 405 LINE",
"245 694 LINE",
"318 704 LINE",
"322 743 LINE",
"109 743 LINE",
"105 704 LINE",
"171 694 LINE",
"90 46 LINE",
"17 34 LINE",
"13 0 LINE",
"236 0 LINE",
"239 34 LINE",
"163 46 LINE",
"202 354 LINE",
"556 354 LINE",
"553 326 LINE"
);
}
);
};
layerId = UUID0;
paths = (
{
closed = 1;
nodes = (
"563 354 LINE",
"525 46 LINE",
"446 34 LINE",
"444 0 LINE",
"668 0 LINE",
"671 34 LINE",
"595 46 LINE",
"670 695 LINE",
"755 704 LINE",
"759 743 LINE",
"523 743 LINE",
"518 704 LINE",
"600 695 LINE",
"569 405 LINE",
"208 405 LINE",
"245 694 LINE",
"318 704 LINE",
"322 743 LINE",
"110 743 LINE",
"105 704 LINE",
"171 694 LINE",
"120 285 LINE SMOOTH",
"109 193 OFFCURVE",
"97 108 OFFCURVE",
"84 44 CURVE SMOOTH",
"66 -36 OFFCURVE",
"-10 -111 OFFCURVE",
"-99 -134 CURVE",
"-85 -168 LINE",
"13 -151 OFFCURVE",
"119 -96 OFFCURVE",
"158 37 CURVE SMOOTH",
"165 61 OFFCURVE",
"178 149 OFFCURVE",
"202 354 CURVE"
);
}
);
width = 745;
},
{
background = {
paths = (
{
closed = 1;
nodes = (
"549 324 LINE",
"535 225 OFFCURVE",
"520 129 OFFCURVE",
"504 42 CURVE SMOOTH",
"492 -22 OFFCURVE",
"454 -83 OFFCURVE",
"348 -116 CURVE",
"373 -168 LINE",
"509 -149 OFFCURVE",
"634 -78 OFFCURVE",
"674 37 CURVE SMOOTH",
"683 63 OFFCURVE",
"700 179 OFFCURVE",
"719 324 CURVE"
);
},
{
closed = 1;
nodes = (
"719 324 LINE",
"733 433 OFFCURVE",
"748 559 OFFCURVE",
"763 677 CURVE",
"833 689 LINE",
"839 743 LINE",
"528 743 LINE",
"521 689 LINE",
"593 676 LINE",
"583 590 OFFCURVE",
"573 500 OFFCURVE",
"561 412 CURVE",
"286 412 LINE",
"321 677 LINE",
"405 689 LINE",
"411 743 LINE",
"83 743 LINE",
"78 689 LINE",
"149 677 LINE",
"69 66 LINE",
"-4 52 LINE",
"-11 0 LINE",
"323 0 LINE",
"326 52 LINE",
"241 66 LINE",
"277 344 LINE",
"552 344 LINE",
"551 337 OFFCURVE",
"550 330 OFFCURVE",
"549 324 CURVE"
);
}
);
};
layerId = "809C3DC2-6073-4494-AA7C-C910FAB1DD5E";
paths = (
{
closed = 1;
nodes = (
"547 344 LINE",
"510 66 LINE",
"417 52 LINE",
"410 0 LINE",
"753 0 LINE",
"759 52 LINE",
"683 66 LINE",
"763 677 LINE",
"838 689 LINE",
"844 743 LINE",
"511 743 LINE",
"505 689 LINE",
"591 677 LINE",
"556 412 LINE",
"287 412 LINE",
"322 677 LINE",
"410 689 LINE",
"416 743 LINE",
"86 743 LINE",
"79 689 LINE",
"150 677 LINE",
"100 294 LINE",
"86 191 OFFCURVE",
"72 108 OFFCURVE",
"60 42 CURVE SMOOTH",
"48 -22 OFFCURVE",
"10 -83 OFFCURVE",
"-96 -116 CURVE",
"-71 -168 LINE",
"65 -149 OFFCURVE",
"190 -78 OFFCURVE",
"230 37 CURVE SMOOTH",
"241 68 OFFCURVE",
"259 187 OFFCURVE",
"277 344 CURVE"
);
}
);
width = 809;
}
);
rightMetricsKey = "En-cy";
unicode = 0528;
},
{
glyphname = "Be-cy";
layers = (
{
anchors = (
{
name = btm;
position = "{283, -83}";
},
{
name = top;
position = "{266, 830}";
}
);
layerId = UUID0;
paths = (
{
closed = 1;
nodes = (
"240 700 LINE",
"521 700 LINE",
"533 564 LINE",
"581 564 LINE",
"593 743 LINE",
"101 743 LINE",
"96 704 LINE",
"170 694 LINE",
"90 46 LINE",
"7 34 LINE",
"3 0 LINE",
"122 0 LINE SMOOTH",
"162 0 OFFCURVE",
"254 -8 OFFCURVE",
"277 -8 CURVE SMOOTH",
"449 -8 OFFCURVE",
"563 112 OFFCURVE",
"563 271 CURVE SMOOTH",
"563 387 OFFCURVE",
"487 455 OFFCURVE",
"347 455 CURVE SMOOTH",
"289 455 OFFCURVE",
"233 443 OFFCURVE",
"208 438 CURVE"
);
},
{
closed = 1;
nodes = (
"202 392 LINE",
"226 396 OFFCURVE",
"273 405 OFFCURVE",
"323 405 CURVE SMOOTH",
"426 405 OFFCURVE",
"489 355 OFFCURVE",
"489 260 CURVE SMOOTH",
"489 133 OFFCURVE",
"410 36 OFFCURVE",
"277 36 CURVE SMOOTH",
"220 36 OFFCURVE",
"185 40 OFFCURVE",
"159 44 CURVE"
);
}
);
width = 604;
},
{
anchors = (
{
name = btm;
position = "{290, -83}";
},
{
name = top;
position = "{273, 830}";
}
);
layerId = "809C3DC2-6073-4494-AA7C-C910FAB1DD5E";
paths = (
{
closed = 1;
nodes = (
"315 685 LINE",
"489 672 LINE",
"505 564 LINE",
"597 564 LINE",
"614 743 LINE",
"85 743 LINE",
"79 689 LINE",
"150 677 LINE",
"69 66 LINE",
"0 52 LINE",
"-4 0 LINE",
"118 0 LINE SMOOTH",
"158 0 OFFCURVE",
"261 -9 OFFCURVE",
"284 -9 CURVE SMOOTH",
"485 -9 OFFCURVE",
"617 83 OFFCURVE",
"617 271 CURVE SMOOTH",
"617 392 OFFCURVE",
"531 455 OFFCURVE",
"363 455 CURVE SMOOTH",
"326 455 OFFCURVE",
"303 449 OFFCURVE",
"283 443 CURVE"
);
},
{
closed = 1;
nodes = (
"274 377 LINE",
"287 381 OFFCURVE",
"313 383 OFFCURVE",
"332 383 CURVE SMOOTH",
"396 383 OFFCURVE",
"438 330 OFFCURVE",
"438 257 CURVE SMOOTH",
"438 137 OFFCURVE",
"384 52 OFFCURVE",
"284 52 CURVE SMOOTH",
"260 52 OFFCURVE",
"244 52 OFFCURVE",
"231 54 CURVE"
);
}
);
width = 644;
}
);
unicode = 0411;
},
{
glyphname = "Ge-cy";
layers = (
{
anchors = (
{
name = btm;
position = "{288, -83}";
},
{
name = top;
position = "{344, 830}";
}
);
layerId = UUID0;
paths = (
{
closed = 1;
nodes = (
"85 705 LINE",
"170 693 LINE",
"90 46 LINE",
"8 34 LINE",
"4 0 LINE",
"323 0 LINE",
"326 34 LINE",
"162 46 LINE",
"243 700 LINE",
"468 696 LINE",
"470 516 LINE",
"521 516 LINE",
"540 743 LINE",
"90 743 LINE"
);
}
);
width = 525;
},
{
anchors = (
{
name = btm;
position = "{262, -83}";
},
{
name = top;
position = "{338, 830}";
}
);
layerId = "809C3DC2-6073-4494-AA7C-C910FAB1DD5E";
paths = (
{
closed = 1;
nodes = (
"79 689 LINE",
"150 677 LINE",
"68 66 LINE",
"1 52 LINE",
"-4 0 LINE",
"345 0 LINE",
"350 52 LINE",
"241 66 LINE",
"324 685 LINE",
"440 672 LINE",
"457 458 LINE",
"545 458 LINE",
"582 743 LINE",
"86 743 LINE"
);
}
);
width = 545;
}
);
unicode = 0413;
},
{
glyphname = "Gheupturn-cy";
layers = (
{
anchors = (
{
name = btm;
position = "{258, -83}";
},
{
name = top;
position = "{157, 830}";
}
);
layerId = UUID0;
paths = (
{
closed = 1;
nodes = (
"487 743 LINE",
"74 743 LINE",
"70 705 LINE",
"170 693 LINE",
"90 46 LINE",
"-14 34 LINE",
"-18 0 LINE",
"308 0 LINE",
"312 34 LINE",
"162 46 LINE",
"242 700 LINE",
"548 689 LINE",
"586 918 LINE",
"535 918 LINE"
);
}
);
width = 489;
},
{
anchors = (
{
name = btm;
position = "{144, -83}";
},
{
name = top;
position = "{275, 830}";
}
);
layerId = "809C3DC2-6073-4494-AA7C-C910FAB1DD5E";
paths = (
{
closed = 1;
nodes = (
"416 743 LINE",
"86 743 LINE",
"79 689 LINE",
"150 677 LINE",
"68 66 LINE",
"1 52 LINE",
"-4 0 LINE",
"375 0 LINE",
"379 52 LINE",
"241 66 LINE",
"322 677 LINE",
"527 658 LINE",
"569 918 LINE",
"475 918 LINE"
);
}
);
width = 488;
}
);
unicode = 0490;
},
{
glyphname = "De-cy";
layers = (
{
anchors = (
{
name = btm;
position = "{232, -83}";
},
{
name = top;
position = "{282, 830}";
}
);
background = {
components = (
{
name = "Tse-cy";
transform = "{1, 0, 0, 1, -73, 0}";
}
);
};
layerId = UUID0;
paths = (
{
closed = 1;
nodes = (
"509 50 LINE",
"591 694 LINE",
"661 704 LINE",
"665 743 LINE",
"158 743 LINE",
"153 704 LINE",
"262 694 LINE",
"253 620 LINE SMOOTH",
"209 258 OFFCURVE",
"98 83 OFFCURVE",
"66 48 CURVE",
"0 48 LINE",
"-8 -23 OFFCURVE",
"-17 -95 OFFCURVE",
"-25 -166 CURVE",
"23 -166 LINE",
"28 -138 OFFCURVE",
"55 -27 OFFCURVE",
"64 0 CURVE",
"528 0 LINE",
"532 -34 OFFCURVE",
"521 -117 OFFCURVE",
"518 -166 CURVE",
"564 -166 LINE",
"571 -131 OFFCURVE",
"590 -51 OFFCURVE",
"607 50 CURVE"
);
},
{
closed = 1;
nodes = (
"309 700 LINE",
"519 700 LINE",
"436 48 LINE",
"129 48 LINE",
"165 93 OFFCURVE",
"261 298 OFFCURVE",
"299 614 CURVE"
);
}
);
width = 653;
},
{
anchors = (
{
name = btm;
position = "{225, -83}";
},
{
name = top;
position = "{275, 830}";
}
);
layerId = "809C3DC2-6073-4494-AA7C-C910FAB1DD5E";
paths = (
{
closed = 1;
nodes = (
"564 66 LINE",
"646 677 LINE",
"719 689 LINE",
"725 743 LINE",
"140 743 LINE",
"133 689 LINE",
"234 676 LINE",
"228 620 LINE SMOOTH",
"183 256 OFFCURVE",
"74 100 OFFCURVE",
"42 66 CURVE",
"-28 66 LINE",
"-33 39 OFFCURVE",
"-46 -83 OFFCURVE",
"-46 -186 CURVE",
"39 -186 LINE",
"47 -144 OFFCURVE",
"89 -20 OFFCURVE",
"100 0 CURVE",
"532 0 LINE",
"536 -44 OFFCURVE",
"528 -142 OFFCURVE",
"525 -186 CURVE",
"610 -186 LINE",
"626 -134 OFFCURVE",
"659 -52 OFFCURVE",
"678 66 CURVE"
);
},
{
closed = 1;
nodes = (
"310 689 LINE",
"475 689 LINE",
"393 66 LINE",
"145 66 LINE",
"180 109 OFFCURVE",
"265 301 OFFCURVE",
"302 614 CURVE"
);
}
);
width = 706;
}
);
unicode = 0414;
},
{
glyphname = "Zhe-cy";
layers = (
{
anchors = (
{
name = top;
position = "{576, 830}";
}
);
layerId = UUID0;
paths = (
{
closed = 1;
nodes = (
"954 693 LINE",
"1030 704 LINE",
"1035 743 LINE",
"819 743 LINE",
"814 704 LINE",
"892 694 LINE",
"639 387 LINE",
"551 387 LINE",
"589 694 LINE",
"663 704 LINE",
"667 743 LINE",
"458 743 LINE",
"453 704 LINE",
"520 694 LINE",
"481 387 LINE",
"400 387 LINE",
"214 694 LINE",
"294 704 LINE",
"298 743 LINE",
"83 743 LINE",
"79 704 LINE",
"153 693 LINE",
"353 382 LINE",
"266 344 OFFCURVE",
"81 60 OFFCURVE",
"36 46 CURVE",
"-7 34 LINE",
"-11 0 LINE",
"91 0 LINE SMOOTH",
"144 0 OFFCURVE",
"332 344 OFFCURVE",
"401 344 CURVE SMOOTH",
"476 344 LINE",
"438 46 LINE",
"365 34 LINE",
"361 0 LINE",
"581 0 LINE",
"583 34 LINE",
"508 46 LINE",
"545 344 LINE",
"630 344 LINE SMOOTH",
"701 344 OFFCURVE",
"808 0 OFFCURVE",
"860 0 CURVE SMOOTH",
"964 0 LINE",
"968 34 LINE",
"923 46 LINE",
"872 72 OFFCURVE",
"765 349 OFFCURVE",
"686 383 CURVE"
);
}
);
width = 983;
},
{
anchors = (
{
name = top;
position = "{586, 830}";
}
);
layerId = "809C3DC2-6073-4494-AA7C-C910FAB1DD5E";
paths = (
{
closed = 1;
nodes = (
"986 676 LINE",
"1052 689 LINE",
"1059 743 LINE",
"833 743 LINE",
"826 689 LINE",
"887 677 LINE",
"674 405 LINE",
"617 405 LINE",
"653 677 LINE",
"735 689 LINE",
"741 743 LINE",
"412 743 LINE",
"405 689 LINE",
"485 677 LINE",
"449 405 LINE",
"393 405 LINE",
"248 676 LINE",
"320 689 LINE",
"326 743 LINE",
"76 743 LINE",
"70 689 LINE",
"147 677 LINE",
"317 404 LINE",
"198 387 OFFCURVE",
"65 93 OFFCURVE",
"4 66 CURVE",
"-21 52 LINE",
"-29 0 LINE",
"168 0 LINE SMOOTH",
"221 0 OFFCURVE",
"322 334 OFFCURVE",
"412 334 CURVE SMOOTH",
"439 334 LINE",
"404 66 LINE",
"328 52 LINE",
"322 0 LINE",
"650 0 LINE",
"654 52 LINE",
"572 66 LINE",
"608 339 LINE",
"627 339 LINE SMOOTH",
"702 339 OFFCURVE",
"761 0 OFFCURVE",
"824 0 CURVE SMOOTH",
"1003 0 LINE",
"1009 52 LINE",
"973 66 LINE",
"922 84 OFFCURVE",
"837 371 OFFCURVE",
"749 402 CURVE"
);
}
);
width = 1044;
}
);
unicode = 0416;
},
{
glyphname = "Ze-cy";
layers = (
{
anchors = (
{
name = top;
position = "{335, 830}";
}
);
layerId = UUID0;
paths = (
{
closed = 1;
nodes = (
"111 571 LINE",
"155 571 LINE",
"174 664 LINE",
"195 687 OFFCURVE",
"248 706 OFFCURVE",
"313 706 CURVE SMOOTH",
"396 706 OFFCURVE",
"442 668 OFFCURVE",
"442 597 CURVE SMOOTH",
"442 470 OFFCURVE",
"345 411 OFFCURVE",
"269 411 CURVE SMOOTH",
"195 411 LINE",
"190 361 LINE",
"277 365 LINE",
"395 365 OFFCURVE",
"438 314 OFFCURVE",
"438 242 CURVE SMOOTH",
"438 112 OFFCURVE",
"345 42 OFFCURVE",
"226 42 CURVE SMOOTH",
"153 42 OFFCURVE",
"101 56 OFFCURVE",
"75 70 CURVE",
"84 194 LINE",
"47 194 LINE",
"5 32 LINE",
"37 18 OFFCURVE",
"103 -6 OFFCURVE",
"200 -6 CURVE SMOOTH",
"374 -6 OFFCURVE",
"518 91 OFFCURVE",
"518 247 CURVE SMOOTH",
"518 328 OFFCURVE",
"466 395 OFFCURVE",
"348 397 CURVE",
"422 414 OFFCURVE",
"518 479 OFFCURVE",
"518 610 CURVE SMOOTH",
"518 697 OFFCURVE",
"445 751 OFFCURVE",
"307 751 CURVE SMOOTH",
"235 751 OFFCURVE",
"163 721 OFFCURVE",
"122 718 CURVE"
);
}
);
width = 562;
},
{
anchors = (
{
name = top;
position = "{364, 830}";
}
);
layerId = "809C3DC2-6073-4494-AA7C-C910FAB1DD5E";
paths = (
{
closed = 1;
nodes = (
"106 571 LINE",
"211 571 LINE",
"234 650 LINE",
"249 679 OFFCURVE",
"275 689 OFFCURVE",
"316 689 CURVE SMOOTH",
"375 689 OFFCURVE",
"407 660 OFFCURVE",
"407 593 CURVE SMOOTH",
"407 466 OFFCURVE",
"346 417 OFFCURVE",
"293 417 CURVE SMOOTH",
"234 414 LINE",
"227 342 LINE",
"298 350 LINE",
"352 350 OFFCURVE",
"385 308 OFFCURVE",
"385 237 CURVE SMOOTH",
"385 139 OFFCURVE",
"341 55 OFFCURVE",
"258 55 CURVE SMOOTH",
"202 55 OFFCURVE",
"177 65 OFFCURVE",
"154 79 CURVE",
"154 213 LINE",
"38 213 LINE",
"-5 57 LINE",
"42 27 OFFCURVE",
"166 -6 OFFCURVE",
"263 -6 CURVE SMOOTH",
"437 -6 OFFCURVE",
"584 49 OFFCURVE",
"584 244 CURVE SMOOTH",
"584 335 OFFCURVE",
"509 394 OFFCURVE",
"391 395 CURVE",
"467 412 OFFCURVE",
"588 435 OFFCURVE",
"588 591 CURVE SMOOTH",
"588 678 OFFCURVE",
"518 751 OFFCURVE",
"346 751 CURVE SMOOTH",
"273 751 OFFCURVE",
"157 721 OFFCURVE",
"116 718 CURVE"
);
}
);
width = 617;
}
);
unicode = 0417;
},
{
glyphname = "Ii-cy";
layers = (
{
anchors = (
{
name = bottomright;
position = "{705, 0}";
},
{
name = top;
position = "{447, 830}";
}
);
background = {
anchors = (
{
name = btm;
position = "{403, -82}";
},
{
name = top;
position = "{432, 830}";
}
);
paths = (
{
closed = 1;
nodes = (
"245 694 LINE",
"318 704 LINE",
"322 743 LINE",
"109 743 LINE",
"105 704 LINE",
"171 694 LINE",
"90 46 LINE",
"17 34 LINE",
"13 0 LINE",
"236 0 LINE",
"239 34 LINE",
"163 46 LINE"
);
},
{
closed = 1;
nodes = (
"537 46 LINE",
"458 34 LINE",
"456 0 LINE",
"682 0 LINE",
"685 34 LINE",
"609 46 LINE",
"690 694 LINE",
"759 704 LINE",
"764 743 LINE",
"549 743 LINE",
"545 704 LINE",
"617 694 LINE"
);
},
{
closed = 1;
nodes = (
"634 665 LINE",
"165 165 LINE",
"159 94 LINE",
"628 594 LINE"
);
}
);
};
layerId = UUID0;
paths = (
{
closed = 1;
nodes = (
"105 704 LINE",
"171 694 LINE",
"90 46 LINE",
"17 34 LINE",
"13 0 LINE",
"236 0 LINE",
"239 34 LINE",
"163 46 LINE",
"171 106 LINE",
"523 482 LINE",
"601 568 LINE",
"537 46 LINE",
"458 34 LINE",
"456 0 LINE",
"682 0 LINE",
"685 34 LINE",
"609 46 LINE",
"690 694 LINE",
"759 704 LINE",
"764 743 LINE",
"549 743 LINE",
"545 704 LINE",
"617 694 LINE",
"610 640 LINE",
"218 222 LINE",
"179 176 LINE",
"245 694 LINE",
"318 704 LINE",
"322 743 LINE",
"109 743 LINE"
);
}
);
width = 763;
},
{
anchors = (
{
name = bottomright;
position = "{760, 0}";
},
{
name = top;
position = "{487, 830}";
}
);
layerId = "809C3DC2-6073-4494-AA7C-C910FAB1DD5E";
paths = (
{
closed = 1;
nodes = (
"79 689 LINE",
"150 677 LINE",
"69 66 LINE",
"1 52 LINE",
"-4 0 LINE",
"322 0 LINE",
"326 52 LINE",
"241 66 LINE",
"248 118 LINE",
"537 454 LINE",
"581 518 LINE",
"521 66 LINE",
"453 52 LINE",
"448 0 LINE",
"773 0 LINE",
"777 52 LINE",
"692 66 LINE",
"773 677 LINE",
"861 689 LINE",
"867 743 LINE",
"538 743 LINE",
"531 689 LINE",
"602 677 LINE",
"594 618 LINE",
"300 280 LINE",
"261 224 LINE",
"322 677 LINE",
"410 689 LINE",
"416 743 LINE",
"86 743 LINE"
);
}
);
width = 819;
}
);
unicode = 0418;
},
{
glyphname = "Iishorttail-cy";
layers = (
{
background = {
anchors = (
{
name = btm;
position = "{321, -83}";
},
{
name = top;
position = "{357, 830}";
}
);
paths = (
{
closed = 1;
nodes = (
"693 -166 LINE",
"701 -126 OFFCURVE",
"727 0 OFFCURVE",
"735 50 CURVE",
"612 50 LINE",
"545 50 LINE",
"538 0 LINE",
"656 0 LINE",
"660 -34 OFFCURVE",
"649 -117 OFFCURVE",
"647 -166 CURVE"
);
}
);
};
components = (
{
name = "Iishort-cy";
}
);
layerId = UUID0;
paths = (
{
closed = 1;
nodes = (
"612 50 LINE",
"545 50 LINE",
"538 0 LINE",
"656 0 LINE",
"660 -34 OFFCURVE",
"649 -117 OFFCURVE",
"647 -166 CURVE",
"693 -166 LINE",
"701 -126 OFFCURVE",
"727 0 OFFCURVE",
"735 50 CURVE"
);
}
);
width = 763;
},
{
background = {
anchors = (
{
name = btm;
position = "{321, -83}";
},
{
name = top;
position = "{357, 830}";
}
);
paths = (
{
closed = 1;
nodes = (
"724 -186 LINE",
"739 -134 OFFCURVE",
"773 -52 OFFCURVE",
"791 66 CURVE",
"689 66 LINE",
"517 66 LINE",
"508 0 LINE",
"645 0 LINE",
"649 -44 OFFCURVE",
"642 -142 OFFCURVE",
"639 -186 CURVE"
);
}
);
};
components = (
{
name = "Iishort-cy";
}
);
layerId = "809C3DC2-6073-4494-AA7C-C910FAB1DD5E";
paths = (
{
closed = 1;
nodes = (
"689 66 LINE",
"517 66 LINE",
"508 0 LINE",
"645 0 LINE",
"649 -44 OFFCURVE",
"642 -142 OFFCURVE",
"639 -186 CURVE",
"724 -186 LINE",
"739 -134 OFFCURVE",
"773 -52 OFFCURVE",
"791 66 CURVE"
);
}
);
width = 819;
}
);
unicode = 048A;
},
{
glyphname = "Ka-cy";
layers = (
{
anchors = (
{
name = btm;
position = "{314, -83}";
},
{
name = top;
position = "{393, 830}";
}
);
layerId = UUID0;
paths = (
{
closed = 1;
nodes = (
"608 693 LINE",
"683 704 LINE",
"688 743 LINE",
"472 743 LINE",
"467 704 LINE",
"548 692 LINE",
"303 387 LINE",
"205 387 LINE",
"244 694 LINE",
"317 704 LINE",
"321 743 LINE",
"109 743 LINE",
"105 704 LINE",
"171 694 LINE",
"90 46 LINE",
"17 34 LINE",
"13 0 LINE",
"235 0 LINE",
"238 34 LINE",
"162 46 LINE",
"200 344 LINE",
"286 344 LINE SMOOTH",
"356 344 OFFCURVE",
"463 0 OFFCURVE",
"516 0 CURVE SMOOTH",
"610 0 LINE",
"614 39 LINE",
"570 50 LINE",
"529 63 OFFCURVE",
"428 333 OFFCURVE",
"351 380 CURVE"
);
}
);
width = 645;
},
{
anchors = (
{
name = btm;
position = "{318, -83}";
},
{
name = top;
position = "{407, 830}";
}
);
layerId = "809C3DC2-6073-4494-AA7C-C910FAB1DD5E";
paths = (
{
closed = 1;
nodes = (
"651 676 LINE",
"716 689 LINE",
"723 743 LINE",
"497 743 LINE",
"490 689 LINE",
"551 677 LINE",
"338 405 LINE",
"283 405 LINE",
"319 677 LINE",
"407 689 LINE",
"413 743 LINE",
"83 743 LINE",
"77 689 LINE",
"147 677 LINE",
"66 66 LINE",
"-1 52 LINE",
"-6 0 LINE",
"319 0 LINE",
"323 52 LINE",
"238 66 LINE",
"274 339 LINE",
"292 339 LINE SMOOTH",
"366 339 OFFCURVE",
"426 0 OFFCURVE",
"488 0 CURVE SMOOTH",
"668 0 LINE",
"674 52 LINE",
"637 66 LINE",
"586 84 OFFCURVE",
"503 368 OFFCURVE",
"414 402 CURVE"
);
}
);
width = 708;
}
);
unicode = 041A;
},
{
glyphname = "El-cy";
layers = (
{
anchors = (
{
name = btm;
position = "{219, -83}";
},
{
name = top;
position = "{255, 830}";
}
);
layerId = UUID0;
paths = (
{
closed = 1;
nodes = (
"307 700 LINE",
"520 700 LINE",
"438 46 LINE",
"358 34 LINE",
"355 0 LINE",
"582 0 LINE",
"585 34 LINE",
"511 46 LINE",
"592 694 LINE",
"680 704 LINE",
"685 743 LINE",
"158 743 LINE",
"154 704 LINE",
"259 691 LINE",
"251 620 LINE SMOOTH",
"232 425 OFFCURVE",
"190 247 OFFCURVE",
"139 149 CURVE SMOOTH",
"114 100 OFFCURVE",
"85 71 OFFCURVE",
"55 71 CURVE SMOOTH",
"20 71 OFFCURVE",
"-4 90 OFFCURVE",
"-11 98 CURVE",
"-28 18 LINE",
"-2 0 OFFCURVE",
"15 -8 OFFCURVE",
"53 -8 CURVE SMOOTH",
"106 -8 OFFCURVE",
"152 51 OFFCURVE",
"190 139 CURVE SMOOTH",
"244 266 OFFCURVE",
"280 455 OFFCURVE",
"297 616 CURVE SMOOTH"
);
}
);
width = 657;
},
{
anchors = (
{
name = btm;
position = "{219, -83}";
},
{
name = top;
position = "{255, 830}";
}
);
layerId = "809C3DC2-6073-4494-AA7C-C910FAB1DD5E";
paths = (
{
closed = 1;
nodes = (
"319 685 LINE",
"495 685 LINE",
"414 66 LINE",
"337 52 LINE",
"333 0 LINE",
"675 0 LINE",
"680 42 LINE",
"586 66 LINE",
"667 677 LINE",
"756 689 LINE",
"762 743 LINE",
"152 743 LINE",
"145 689 LINE",
"251 677 LINE",
"245 620 LINE",
"223 397 OFFCURVE",
"188 239 OFFCURVE",
"155 170 CURVE SMOOTH",
"145 148 OFFCURVE",
"136 137 OFFCURVE",
"111 137 CURVE SMOOTH",
"67 137 OFFCURVE",
"41 149 OFFCURVE",
"25 159 CURVE",
"-11 9 LINE",
"6 -4 OFFCURVE",
"57 -8 OFFCURVE",
"78 -8 CURVE SMOOTH",
"148 -8 OFFCURVE",
"178 21 OFFCURVE",
"219 137 CURVE SMOOTH",
"252 230 OFFCURVE",
"284 380 OFFCURVE",
"311 616 CURVE SMOOTH"
);
}
);
width = 712;
}
);
unicode = 041B;
},
{
glyphname = "Pe-cy";
layers = (
{
anchors = (
{
name = btm;
position = "{342, -83}";
},
{
name = top;
position = "{332, 830}";
}
);
layerId = UUID0;
paths = (
{
closed = 1;
nodes = (
"89 704 LINE",
"170 690 LINE",
"90 46 LINE",
"18 34 LINE",
"15 0 LINE",
"236 0 LINE",
"239 34 LINE",
"163 46 LINE",
"244 694 LINE",
"572 694 LINE",
"490 46 LINE",
"418 34 LINE",
"415 0 LINE",
"638 0 LINE",
"641 34 LINE",
"563 46 LINE",
"645 694 LINE",
"720 704 LINE",
"723 743 LINE",
"93 743 LINE"
);
}
);
width = 713;
},
{
anchors = (
{
name = btm;
position = "{349, -83}";
},
{
name = top;
position = "{338, 830}";
}
);
layerId = "809C3DC2-6073-4494-AA7C-C910FAB1DD5E";
paths = (
{
closed = 1;
nodes = (
"73 689 LINE",
"150 676 LINE",
"69 66 LINE",
"1 52 LINE",
"-4 0 LINE",
"322 0 LINE",
"326 52 LINE",
"241 66 LINE",
"322 683 LINE",
"555 683 LINE",
"472 65 LINE",
"403 52 LINE",
"396 0 LINE",
"715 0 LINE",
"721 52 LINE",
"645 66 LINE",
"725 677 LINE",
"795 689 LINE",
"800 743 LINE",
"80 743 LINE"
);
}
);
width = 771;
}
);
unicode = 041F;
},
{
glyphname = "U-cy";
layers = (
{
anchors = (
{
name = btm;
position = "{262, -83}";
},
{
name = top;
position = "{358, 830}";
}
);
layerId = UUID0;
paths = (
{
closed = 1;
nodes = (
"592 694 LINE",
"646 704 LINE",
"650 743 LINE",
"469 743 LINE",
"464 704 LINE",
"535 694 LINE",
"365 321 LINE",
"321 213 LINE",
"293 320 LINE",
"182 694 LINE",
"262 704 LINE",
"265 743 LINE",
"52 743 LINE",
"47 704 LINE",
"108 693 LINE",
"280 148 LINE",
"258 90 OFFCURVE",
"229 64 OFFCURVE",
"168 64 CURVE SMOOTH",
"100 64 LINE",
"93 4 LINE",
"112 -5 OFFCURVE",
"139 -11 OFFCURVE",
"167 -11 CURVE SMOOTH",
"267 -11 OFFCURVE",
"306 101 OFFCURVE",
"336 165 CURVE SMOOTH"
);
}
);
width = 586;
},
{
anchors = (
{
name = btm;
position = "{261, -83}";
},
{
name = top;
position = "{396, 830}";
}
);
layerId = "809C3DC2-6073-4494-AA7C-C910FAB1DD5E";
paths = (
{
closed = 1;
nodes = (
"611 678 LINE",
"662 689 LINE",
"669 743 LINE",
"458 743 LINE",
"453 689 LINE",
"527 676 LINE",
"417 395 LINE",
"380 298 LINE",
"361 394 LINE",
"292 677 LINE",
"373 689 LINE",
"378 743 LINE",
"64 743 LINE",
"58 689 LINE",
"97 678 LINE",
"266 147 LINE",
"254 112 OFFCURVE",
"219 107 OFFCURVE",
"153 107 CURVE SMOOTH",
"73 107 LINE",
"72 7 LINE",
"91 -3 OFFCURVE",
"135 -11 OFFCURVE",
"168 -11 CURVE SMOOTH",
"290 -11 OFFCURVE",
"341 78 OFFCURVE",
"373 141 CURVE"
);
}
);
width = 612;
}
);
unicode = 0423;
},
